<svg width="576" height="217" viewBox="0 0 576 217" fill="none" xmlns="http://www.w3.org/2000/svg">
<g filter="url(#filter0_d_14_162)">
<rect x="1" y="1" width="556" height="193" rx="14" fill="#D5B68A" stroke="#333333" stroke-width="2"/>
<g clip-path="url(#clip0_14_162)">
<path d="M118 100.561C117.831 99.7769 117.058 99.2794 116.274 99.4484C115.49 99.618 114.992 100.391 115.162 101.175C117.397 111.508 115.64 120.501 110.216 126.688L44.3193 60.7924C56.9923 49.7037 80.9678 54.6798 98.6482 72.3594C105.573 79.2842 110.755 87.3637 113.634 95.7249C113.895 96.4832 114.721 96.886 115.479 96.6249C116.237 96.3637 116.64 95.5375 116.379 94.7794C113.357 86.0035 107.936 77.5409 100.701 70.3062C91.4112 61.0162 80.1621 54.771 69.0261 52.721C57.693 50.6347 47.8125 53.1243 41.2052 59.7315C40.9328 60.0037 40.7799 60.3731 40.7799 60.7581C40.7799 61.1432 40.9328 61.5126 41.2052 61.7847L109.223 129.802C109.506 130.085 109.878 130.227 110.25 130.227C110.621 130.227 110.993 130.085 111.276 129.802C114.779 126.299 117.126 121.887 118.253 116.688C119.328 111.731 119.242 106.304 118 100.561Z" fill="#333333"/>
<path d="M37.7829 65.207C37.2159 64.64 36.2965 64.64 35.7297 65.207C29.1224 71.8143 26.6327 81.6945 28.719 93.0275C30.7691 104.163 37.0145 115.412 46.3048 124.702C57.7607 136.159 72.4165 142.998 85.5088 142.998C93.7327 142.998 100.75 140.328 105.801 135.277C106.368 134.71 106.368 133.791 105.801 133.224L37.7829 65.207ZM85.5088 140.094C73.1697 140.094 59.2815 133.573 48.3582 122.649C39.4799 113.771 33.5195 103.065 31.5748 92.5017C29.7773 82.7384 31.6292 74.2181 36.7904 68.3209L102.686 134.216C98.2831 138.068 92.378 140.094 85.5088 140.094Z" fill="#333333"/>
<path d="M87.6017 132.444C88.4036 132.444 89.0536 131.794 89.0536 130.992C89.0536 130.19 88.4036 129.54 87.6017 129.54C86.7998 129.54 86.1498 130.19 86.1498 130.992C86.1498 131.794 86.7998 132.444 87.6017 132.444Z" fill="#333333"/>
<path d="M79.3883 132.444C80.1901 132.444 80.8402 131.794 80.8402 130.992C80.8402 130.19 80.1901 129.54 79.3883 129.54C78.5864 129.54 77.9363 130.19 77.9363 130.992C77.9363 131.794 78.5864 132.444 79.3883 132.444Z" fill="#333333"/>
<path d="M67.6178 65.4686C68.4196 65.4686 69.0697 64.8185 69.0697 64.0166C69.0697 63.2147 68.4196 62.5647 67.6178 62.5647C66.8159 62.5647 66.1658 63.2147 66.1658 64.0166C66.1658 64.8185 66.8159 65.4686 67.6178 65.4686Z" fill="#333333"/>
</g>
<path d="M168.54 50.78C170.22 50.78 171.78 51.005 173.22 51.455C174.69 51.905 176.085 52.58 177.405 53.48H177.45L177.36 51.05H179.79L179.25 61.445H177.63C177.48 58.625 176.61 56.45 175.02 54.92C173.43 53.39 171.33 52.625 168.72 52.625C167.13 52.625 165.615 52.97 164.175 53.66C162.765 54.32 161.49 55.28 160.35 56.54C159.24 57.8 158.34 59.315 157.65 61.085C156.99 62.855 156.6 64.85 156.48 67.07C156.33 69.89 156.735 72.38 157.695 74.54C158.685 76.7 160.05 78.38 161.79 79.58C163.56 80.78 165.555 81.38 167.775 81.38C169.725 81.38 171.66 80.96 173.58 80.12C175.5 79.25 177.105 77.99 178.395 76.34L179.52 77.285C178.14 79.025 176.67 80.36 175.11 81.29C173.55 82.22 172.02 82.85 170.52 83.18C169.05 83.54 167.7 83.72 166.47 83.72C164.22 83.72 162.195 83.315 160.395 82.505C158.595 81.695 157.065 80.57 155.805 79.13C154.545 77.66 153.6 75.965 152.97 74.045C152.37 72.095 152.13 69.995 152.25 67.745C152.37 65.615 152.79 63.545 153.51 61.535C154.23 59.525 155.265 57.71 156.615 56.09C157.965 54.47 159.63 53.18 161.61 52.22C163.62 51.26 165.93 50.78 168.54 50.78ZM190.75 83.495C188.89 83.495 187.345 83.09 186.115 82.28C184.915 81.47 184.015 80.345 183.415 78.905C182.845 77.435 182.56 75.725 182.56 73.775C182.56 72.035 182.77 70.34 183.19 68.69C183.64 67.04 184.3 65.57 185.17 64.28C186.07 62.96 187.165 61.925 188.455 61.175C189.775 60.395 191.29 60.005 193 60.005C194.02 60.005 194.965 60.155 195.835 60.455C196.735 60.755 197.47 61.235 198.04 61.895C198.61 62.525 198.895 63.365 198.895 64.415C198.895 65.855 198.235 67.28 196.915 68.69C195.595 70.07 193.45 71.105 190.48 71.795L190.615 72.38L186.475 73.46C186.565 75.92 187.015 77.93 187.825 79.49C188.665 81.02 189.985 81.785 191.785 81.785C193.165 81.785 194.23 81.32 194.98 80.39C195.76 79.46 196.15 78.215 196.15 76.655C196.15 75.605 195.94 74.69 195.52 73.91C195.1 73.13 194.485 72.59 193.675 72.29C192.865 71.96 191.845 71.99 190.615 72.38L190.255 71.345C192.115 70.715 193.66 70.415 194.89 70.445C196.15 70.475 197.155 70.745 197.905 71.255C198.655 71.735 199.18 72.365 199.48 73.145C199.81 73.895 199.975 74.69 199.975 75.53C199.975 77.03 199.57 78.38 198.76 79.58C197.98 80.78 196.885 81.74 195.475 82.46C194.095 83.15 192.52 83.495 190.75 83.495ZM186.52 71.75C188.68 71.24 190.375 70.67 191.605 70.04C192.835 69.38 193.705 68.615 194.215 67.745C194.725 66.875 194.98 65.87 194.98 64.73C194.98 63.77 194.8 63.005 194.44 62.435C194.08 61.835 193.45 61.535 192.55 61.535C191.41 61.535 190.405 62 189.535 62.93C188.665 63.86 187.975 65.105 187.465 66.665C186.955 68.195 186.64 69.89 186.52 71.75ZM214.502 60.005C215.582 60.005 216.602 60.17 217.562 60.5C218.522 60.83 219.302 61.37 219.902 62.12C220.502 62.87 220.802 63.89 220.802 65.18C220.802 66.41 220.382 67.475 219.542 68.375C218.702 69.275 217.607 70.025 216.257 70.625C214.907 71.195 213.467 71.66 211.937 72.02C210.407 72.38 208.937 72.635 207.527 72.785C207.527 74.645 207.707 76.205 208.067 77.465C208.457 78.725 209.027 79.67 209.777 80.3C210.527 80.93 211.487 81.245 212.657 81.245C213.527 81.245 214.397 81.05 215.267 80.66C216.167 80.27 217.022 79.685 217.832 78.905C218.642 78.095 219.377 77.06 220.037 75.8L221.522 76.655C220.682 78.215 219.782 79.505 218.822 80.525C217.862 81.545 216.812 82.295 215.672 82.775C214.532 83.255 213.272 83.495 211.892 83.495C209.042 83.495 206.942 82.61 205.592 80.84C204.242 79.04 203.567 76.685 203.567 73.775C203.567 72.035 203.792 70.34 204.242 68.69C204.692 67.04 205.367 65.57 206.267 64.28C207.167 62.96 208.307 61.925 209.687 61.175C211.067 60.395 212.672 60.005 214.502 60.005ZM213.872 61.535C212.492 61.535 211.352 62 210.452 62.93C209.582 63.86 208.907 65.06 208.427 66.53C207.977 68 207.692 69.545 207.572 71.165C209.162 70.955 210.677 70.58 212.117 70.04C213.557 69.5 214.742 68.81 215.672 67.97C216.602 67.1 217.067 66.095 217.067 64.955C217.067 63.995 216.797 63.185 216.257 62.525C215.747 61.865 214.952 61.535 213.872 61.535ZM229.107 83.495C228.267 83.495 227.472 83.27 226.722 82.82C225.972 82.34 225.372 81.71 224.922 80.93C224.472 80.12 224.262 79.22 224.292 78.23C224.352 77.51 224.562 76.955 224.922 76.565C225.312 76.145 225.762 75.935 226.272 75.935C226.932 75.905 227.412 76.07 227.712 76.43C228.042 76.79 228.192 77.21 228.162 77.69C228.162 78.08 228.087 78.425 227.937 78.725C227.817 79.025 227.622 79.295 227.352 79.535C227.472 80.375 227.697 80.96 228.027 81.29C228.387 81.62 228.852 81.785 229.422 81.785C230.172 81.785 230.832 81.455 231.402 80.795C231.972 80.105 232.452 79.22 232.842 78.14C233.232 77.03 233.532 75.845 233.742 74.585C233.982 73.325 234.132 72.095 234.192 70.895C234.342 67.745 234.117 65.51 233.517 64.19C232.947 62.87 232.197 62.21 231.267 62.21C230.427 62.21 229.647 62.54 228.927 63.2C228.237 63.86 227.502 65.165 226.722 67.115L225.372 66.35C226.152 64.61 226.887 63.29 227.577 62.39C228.297 61.46 229.032 60.83 229.782 60.5C230.532 60.14 231.342 59.975 232.212 60.005C233.322 60.005 234.297 60.395 235.137 61.175C236.007 61.925 236.667 63.035 237.117 64.505C237.597 65.975 237.777 67.76 237.657 69.86C237.567 72.32 237.147 74.585 236.397 76.655C235.677 78.725 234.702 80.39 233.472 81.65C232.242 82.88 230.787 83.495 229.107 83.495ZM253.002 83.495C251.652 83.495 250.512 83.12 249.582 82.37C248.652 81.59 247.962 80.465 247.512 78.995C247.062 77.525 246.852 75.74 246.882 73.64C246.942 71.15 247.272 68.885 247.872 66.845C248.502 64.775 249.402 63.125 250.572 61.895C251.742 60.635 253.152 60.005 254.802 60.005C256.332 60.005 257.547 60.515 258.447 61.535C259.377 62.525 259.812 63.77 259.752 65.27C259.752 65.99 259.557 66.56 259.167 66.98C258.807 67.37 258.372 67.565 257.862 67.565C257.202 67.595 256.722 67.43 256.422 67.07C256.122 66.71 255.972 66.29 255.972 65.81C255.972 65.39 256.017 65.045 256.107 64.775C256.227 64.475 256.407 64.205 256.647 63.965C256.647 63.305 256.497 62.765 256.197 62.345C255.927 61.895 255.447 61.67 254.757 61.67C254.007 61.67 253.362 62.015 252.822 62.705C252.282 63.365 251.832 64.25 251.472 65.36C251.112 66.44 250.842 67.625 250.662 68.915C250.482 70.175 250.377 71.405 250.347 72.605C250.317 75.905 250.602 78.26 251.202 79.67C251.832 81.08 252.612 81.785 253.542 81.785C254.502 81.785 255.342 81.305 256.062 80.345C256.782 79.355 257.517 77.78 258.267 75.62L259.797 76.385C259.107 78.125 258.417 79.52 257.727 80.57C257.037 81.59 256.317 82.34 255.567 82.82C254.817 83.27 253.962 83.495 253.002 83.495ZM239.772 83C239.742 82.79 239.727 82.61 239.727 82.46C239.727 82.28 239.727 82.07 239.727 81.83C239.727 81.32 239.742 80.72 239.772 80.03C239.802 79.31 239.862 78.365 239.952 77.195C240.072 76.025 240.237 74.495 240.447 72.605C240.657 70.835 240.867 69.125 241.077 67.475C241.287 65.825 241.362 64.145 241.302 62.435C241.302 62.075 241.287 61.7 241.257 61.31C241.257 60.89 241.227 60.455 241.167 60.005H244.812C244.842 60.215 244.857 60.41 244.857 60.59C244.857 60.74 244.857 60.935 244.857 61.175C244.857 62.435 244.767 63.92 244.587 65.63C244.437 67.34 244.257 69.11 244.047 70.94C243.867 72.74 243.702 74.48 243.552 76.16C243.402 77.84 243.342 79.295 243.372 80.525C243.372 80.885 243.387 81.275 243.417 81.695C243.447 82.115 243.477 82.55 243.507 83H239.772ZM236.442 72.065L236.487 70.76H247.737V72.02L236.442 72.065ZM274.091 60.005C275.171 60.005 276.191 60.17 277.151 60.5C278.111 60.83 278.891 61.37 279.491 62.12C280.091 62.87 280.391 63.89 280.391 65.18C280.391 66.41 279.971 67.475 279.131 68.375C278.291 69.275 277.196 70.025 275.846 70.625C274.496 71.195 273.056 71.66 271.526 72.02C269.996 72.38 268.526 72.635 267.116 72.785C267.116 74.645 267.296 76.205 267.656 77.465C268.046 78.725 268.616 79.67 269.366 80.3C270.116 80.93 271.076 81.245 272.246 81.245C273.116 81.245 273.986 81.05 274.856 80.66C275.756 80.27 276.611 79.685 277.421 78.905C278.231 78.095 278.966 77.06 279.626 75.8L281.111 76.655C280.271 78.215 279.371 79.505 278.411 80.525C277.451 81.545 276.401 82.295 275.261 82.775C274.121 83.255 272.861 83.495 271.481 83.495C268.631 83.495 266.531 82.61 265.181 80.84C263.831 79.04 263.156 76.685 263.156 73.775C263.156 72.035 263.381 70.34 263.831 68.69C264.281 67.04 264.956 65.57 265.856 64.28C266.756 62.96 267.896 61.925 269.276 61.175C270.656 60.395 272.261 60.005 274.091 60.005ZM273.461 61.535C272.081 61.535 270.941 62 270.041 62.93C269.171 63.86 268.496 65.06 268.016 66.53C267.566 68 267.281 69.545 267.161 71.165C268.751 70.955 270.266 70.58 271.706 70.04C273.146 69.5 274.331 68.81 275.261 67.97C276.191 67.1 276.656 66.095 276.656 64.955C276.656 63.995 276.386 63.185 275.846 62.525C275.336 61.865 274.541 61.535 273.461 61.535ZM295.717 60.005C297.337 60.005 298.792 60.395 300.082 61.175C301.372 61.925 302.392 63.035 303.142 64.505C303.892 65.975 304.267 67.76 304.267 69.86C304.267 72.26 303.832 74.51 302.962 76.61C302.092 78.68 300.832 80.345 299.182 81.605C297.562 82.865 295.582 83.495 293.242 83.495C291.262 83.495 289.627 83.045 288.337 82.145C287.077 81.245 286.132 80.03 285.502 78.5C284.902 76.97 284.602 75.275 284.602 73.415C284.602 70.985 285.037 68.75 285.907 66.71C286.807 64.67 288.082 63.05 289.732 61.85C291.412 60.62 293.407 60.005 295.717 60.005ZM295.042 61.67C293.722 61.64 292.582 62.09 291.622 63.02C290.662 63.92 289.912 65.15 289.372 66.71C288.862 68.27 288.592 70.01 288.562 71.93C288.532 72.95 288.592 74.03 288.742 75.17C288.892 76.31 289.147 77.375 289.507 78.365C289.897 79.355 290.422 80.165 291.082 80.795C291.772 81.425 292.627 81.755 293.647 81.785C294.847 81.815 295.867 81.5 296.707 80.84C297.547 80.15 298.222 79.265 298.732 78.185C299.242 77.105 299.617 75.95 299.857 74.72C300.127 73.49 300.277 72.335 300.307 71.255C300.337 70.205 300.277 69.125 300.127 68.015C300.007 66.905 299.752 65.87 299.362 64.91C298.972 63.95 298.432 63.185 297.742 62.615C297.052 62.015 296.152 61.7 295.042 61.67ZM317.293 83.45C315.433 83.45 313.768 82.955 312.298 81.965C310.828 80.975 309.703 79.46 308.923 77.42C308.173 75.35 307.903 72.725 308.113 69.545C308.293 66.905 308.713 64.43 309.373 62.12C310.063 59.81 311.053 57.815 312.343 56.135C313.633 54.425 315.268 53.21 317.248 52.49C318.118 52.16 318.988 51.935 319.858 51.815C320.758 51.695 321.613 51.59 322.423 51.5C323.263 51.41 323.983 51.29 324.583 51.14C325.393 50.93 326.143 50.705 326.833 50.465C327.553 50.195 328.108 49.655 328.498 48.845L329.803 49.295C329.503 50.255 329.098 51.11 328.588 51.86C328.078 52.58 327.478 53.195 326.788 53.705C326.098 54.185 325.303 54.575 324.403 54.875C323.653 55.115 322.873 55.31 322.063 55.46C321.283 55.58 320.503 55.685 319.723 55.775C318.973 55.865 318.283 56 317.653 56.18C315.103 56.93 313.243 58.22 312.073 60.05C310.933 61.88 310.153 64.25 309.733 67.16H310.048C310.858 65.39 311.998 63.98 313.468 62.93C314.938 61.88 316.813 61.355 319.093 61.355C320.593 61.355 322.018 61.76 323.368 62.57C324.718 63.35 325.783 64.52 326.563 66.08C327.373 67.61 327.718 69.5 327.598 71.75C327.478 74.09 326.923 76.145 325.933 77.915C324.943 79.655 323.683 81.02 322.153 82.01C320.653 82.97 319.033 83.45 317.293 83.45ZM317.113 81.74C318.523 81.74 319.693 81.32 320.623 80.48C321.553 79.61 322.258 78.44 322.738 76.97C323.248 75.47 323.548 73.79 323.638 71.93C323.728 70.43 323.593 69.005 323.233 67.655C322.903 66.275 322.333 65.15 321.523 64.28C320.743 63.41 319.708 62.975 318.418 62.975C317.068 62.975 315.928 63.38 314.998 64.19C314.068 65 313.348 66.065 312.838 67.385C312.358 68.675 312.073 70.07 311.983 71.57C311.893 73.58 312.028 75.35 312.388 76.88C312.778 78.41 313.363 79.61 314.143 80.48C314.953 81.32 315.943 81.74 317.113 81.74ZM335.63 83.495C334.79 83.495 333.995 83.27 333.245 82.82C332.495 82.34 331.895 81.71 331.445 80.93C330.995 80.12 330.785 79.22 330.815 78.23C330.875 77.51 331.085 76.955 331.445 76.565C331.835 76.145 332.285 75.935 332.795 75.935C333.455 75.905 333.935 76.07 334.235 76.43C334.565 76.79 334.715 77.21 334.685 77.69C334.685 78.08 334.61 78.425 334.46 78.725C334.34 79.025 334.145 79.295 333.875 79.535C333.995 80.375 334.22 80.96 334.55 81.29C334.91 81.62 335.375 81.785 335.945 81.785C336.695 81.785 337.355 81.455 337.925 80.795C338.495 80.105 338.975 79.22 339.365 78.14C339.755 77.03 340.055 75.845 340.265 74.585C340.505 73.325 340.655 72.095 340.715 70.895C340.865 67.745 340.64 65.51 340.04 64.19C339.47 62.87 338.72 62.21 337.79 62.21C336.95 62.21 336.17 62.54 335.45 63.2C334.76 63.86 334.025 65.165 333.245 67.115L331.895 66.35C332.675 64.61 333.41 63.29 334.1 62.39C334.82 61.46 335.555 60.83 336.305 60.5C337.055 60.14 337.865 59.975 338.735 60.005C339.845 60.005 340.82 60.395 341.66 61.175C342.53 61.925 343.19 63.035 343.64 64.505C344.12 65.975 344.3 67.76 344.18 69.86C344.09 72.32 343.67 74.585 342.92 76.655C342.2 78.725 341.225 80.39 339.995 81.65C338.765 82.88 337.31 83.495 335.63 83.495ZM359.525 83.495C358.175 83.495 357.035 83.12 356.105 82.37C355.175 81.59 354.485 80.465 354.035 78.995C353.585 77.525 353.375 75.74 353.405 73.64C353.465 71.15 353.795 68.885 354.395 66.845C355.025 64.775 355.925 63.125 357.095 61.895C358.265 60.635 359.675 60.005 361.325 60.005C362.855 60.005 364.07 60.515 364.97 61.535C365.9 62.525 366.335 63.77 366.275 65.27C366.275 65.99 366.08 66.56 365.69 66.98C365.33 67.37 364.895 67.565 364.385 67.565C363.725 67.595 363.245 67.43 362.945 67.07C362.645 66.71 362.495 66.29 362.495 65.81C362.495 65.39 362.54 65.045 362.63 64.775C362.75 64.475 362.93 64.205 363.17 63.965C363.17 63.305 363.02 62.765 362.72 62.345C362.45 61.895 361.97 61.67 361.28 61.67C360.53 61.67 359.885 62.015 359.345 62.705C358.805 63.365 358.355 64.25 357.995 65.36C357.635 66.44 357.365 67.625 357.185 68.915C357.005 70.175 356.9 71.405 356.87 72.605C356.84 75.905 357.125 78.26 357.725 79.67C358.355 81.08 359.135 81.785 360.065 81.785C361.025 81.785 361.865 81.305 362.585 80.345C363.305 79.355 364.04 77.78 364.79 75.62L366.32 76.385C365.63 78.125 364.94 79.52 364.25 80.57C363.56 81.59 362.84 82.34 362.09 82.82C361.34 83.27 360.485 83.495 359.525 83.495ZM346.295 83C346.265 82.79 346.25 82.61 346.25 82.46C346.25 82.28 346.25 82.07 346.25 81.83C346.25 81.32 346.265 80.72 346.295 80.03C346.325 79.31 346.385 78.365 346.475 77.195C346.595 76.025 346.76 74.495 346.97 72.605C347.18 70.835 347.39 69.125 347.6 67.475C347.81 65.825 347.885 64.145 347.825 62.435C347.825 62.075 347.81 61.7 347.78 61.31C347.78 60.89 347.75 60.455 347.69 60.005H351.335C351.365 60.215 351.38 60.41 351.38 60.59C351.38 60.74 351.38 60.935 351.38 61.175C351.38 62.435 351.29 63.92 351.11 65.63C350.96 67.34 350.78 69.11 350.57 70.94C350.39 72.74 350.225 74.48 350.075 76.16C349.925 77.84 349.865 79.295 349.895 80.525C349.895 80.885 349.91 81.275 349.94 81.695C349.97 82.115 350 82.55 350.03 83H346.295ZM342.965 72.065L343.01 70.76H354.26V72.02L342.965 72.065ZM382.73 60.005C383.63 60.005 384.62 60.08 385.7 60.23C386.78 60.35 387.8 60.53 388.76 60.77C388.52 62.57 388.28 64.37 388.04 66.17C387.83 67.94 387.62 69.635 387.41 71.255C387.23 72.845 387.08 74.285 386.96 75.575C386.84 76.835 386.78 77.825 386.78 78.545C386.78 79.145 386.825 79.745 386.915 80.345C387.005 80.945 387.38 81.245 388.04 81.245C388.55 81.245 389.105 80.915 389.705 80.255C390.335 79.595 390.875 78.47 391.325 76.88L392.585 77.15C392.495 77.69 392.3 78.32 392 79.04C391.73 79.73 391.355 80.42 390.875 81.11C390.395 81.8 389.81 82.37 389.12 82.82C388.43 83.27 387.635 83.495 386.735 83.495C385.535 83.495 384.68 83.12 384.17 82.37C383.66 81.62 383.405 80.645 383.405 79.445C383.405 78.575 383.48 77.63 383.63 76.61C383.81 75.59 384.005 74.525 384.215 73.415H384.08C383.36 75.635 382.61 77.42 381.83 78.77C381.08 80.09 380.315 81.095 379.535 81.785C378.785 82.475 378.05 82.925 377.33 83.135C376.61 83.375 375.935 83.495 375.305 83.495C373.685 83.495 372.32 82.895 371.21 81.695C370.13 80.495 369.59 78.485 369.59 75.665C369.59 73.565 369.86 71.57 370.4 69.68C370.94 67.79 371.75 66.125 372.83 64.685C373.94 63.215 375.32 62.075 376.97 61.265C378.62 60.425 380.54 60.005 382.73 60.005ZM381.335 61.625C379.985 61.625 378.8 62 377.78 62.75C376.79 63.5 375.965 64.52 375.305 65.81C374.645 67.07 374.15 68.495 373.82 70.085C373.52 71.645 373.37 73.25 373.37 74.9C373.37 76.82 373.58 78.41 374 79.67C374.42 80.9 375.185 81.515 376.295 81.515C377.105 81.515 377.915 81.11 378.725 80.3C379.565 79.49 380.345 78.41 381.065 77.06C381.785 75.68 382.43 74.15 383 72.47C383.57 70.76 384.02 69.02 384.35 67.25C384.68 65.48 384.845 63.785 384.845 62.165C384.395 61.985 383.87 61.85 383.27 61.76C382.67 61.67 382.025 61.625 381.335 61.625ZM394.468 94.475V93.125C395.308 93.125 395.893 92.84 396.223 92.27C396.583 91.7 396.808 90.935 396.898 89.975C397.018 89.045 397.123 87.995 397.213 86.825C397.423 84.245 397.633 81.755 397.843 79.355C398.083 76.925 398.293 74.72 398.473 72.74C398.683 70.73 398.848 69.02 398.968 67.61C399.088 66.2 399.148 65.21 399.148 64.64C399.148 64.04 399.088 63.5 398.968 63.02C398.878 62.51 398.533 62.255 397.933 62.255C397.453 62.255 396.898 62.585 396.268 63.245C395.668 63.905 395.143 65.03 394.693 66.62L393.388 66.35C393.478 65.81 393.658 65.195 393.928 64.505C394.228 63.785 394.618 63.08 395.098 62.39C395.578 61.7 396.163 61.13 396.853 60.68C397.543 60.23 398.338 60.005 399.238 60.005C400.588 60.005 401.488 60.485 401.938 61.445C402.418 62.375 402.658 63.47 402.658 64.73C402.658 65.63 402.583 66.545 402.433 67.475C402.313 68.375 402.178 69.17 402.028 69.86H402.163C403.003 67.1 403.858 65.015 404.728 63.605C405.628 62.195 406.543 61.25 407.473 60.77C408.403 60.26 409.303 60.005 410.173 60.005C411.553 60.005 412.693 60.41 413.593 61.22C414.493 62 415.153 63.05 415.573 64.37C416.023 65.69 416.248 67.145 416.248 68.735C416.248 71.645 415.738 74.21 414.718 76.43C413.728 78.65 412.243 80.39 410.263 81.65C408.313 82.88 405.883 83.495 402.973 83.495C402.583 83.495 402.208 83.48 401.848 83.45C401.518 83.42 401.188 83.39 400.858 83.36C400.708 85.64 400.588 87.395 400.498 88.625C400.438 89.885 400.378 90.8 400.318 91.37C400.288 91.97 400.228 92.435 400.138 92.765C400.618 92.735 401.083 92.705 401.533 92.675C402.013 92.675 402.493 92.66 402.973 92.63V94.475H394.468ZM403.738 81.965C404.998 81.965 406.108 81.71 407.068 81.2C408.028 80.69 408.838 80.015 409.498 79.175C410.188 78.305 410.743 77.33 411.163 76.25C411.583 75.17 411.883 74.06 412.063 72.92C412.273 71.75 412.378 70.625 412.378 69.545C412.378 68.165 412.288 66.92 412.108 65.81C411.928 64.67 411.613 63.77 411.163 63.11C410.713 62.45 410.068 62.12 409.228 62.12C408.418 62.12 407.608 62.555 406.798 63.425C405.988 64.295 405.238 65.465 404.548 66.935C403.858 68.375 403.243 69.98 402.703 71.75C402.163 73.52 401.758 75.32 401.488 77.15C401.368 77.81 401.263 78.5 401.173 79.22C401.113 79.91 401.053 80.645 400.993 81.425C401.473 81.575 401.923 81.71 402.343 81.83C402.793 81.92 403.258 81.965 403.738 81.965ZM430.976 60.005C432.056 60.005 433.076 60.17 434.036 60.5C434.996 60.83 435.776 61.37 436.376 62.12C436.976 62.87 437.276 63.89 437.276 65.18C437.276 66.41 436.856 67.475 436.016 68.375C435.176 69.275 434.081 70.025 432.731 70.625C431.381 71.195 429.941 71.66 428.411 72.02C426.881 72.38 425.411 72.635 424.001 72.785C424.001 74.645 424.181 76.205 424.541 77.465C424.931 78.725 425.501 79.67 426.251 80.3C427.001 80.93 427.961 81.245 429.131 81.245C430.001 81.245 430.871 81.05 431.741 80.66C432.641 80.27 433.496 79.685 434.306 78.905C435.116 78.095 435.851 77.06 436.511 75.8L437.996 76.655C437.156 78.215 436.256 79.505 435.296 80.525C434.336 81.545 433.286 82.295 432.146 82.775C431.006 83.255 429.746 83.495 428.366 83.495C425.516 83.495 423.416 82.61 422.066 80.84C420.716 79.04 420.041 76.685 420.041 73.775C420.041 72.035 420.266 70.34 420.716 68.69C421.166 67.04 421.841 65.57 422.741 64.28C423.641 62.96 424.781 61.925 426.161 61.175C427.541 60.395 429.146 60.005 430.976 60.005ZM430.346 61.535C428.966 61.535 427.826 62 426.926 62.93C426.056 63.86 425.381 65.06 424.901 66.53C424.451 68 424.166 69.545 424.046 71.165C425.636 70.955 427.151 70.58 428.591 70.04C430.031 69.5 431.216 68.81 432.146 67.97C433.076 67.1 433.541 66.095 433.541 64.955C433.541 63.995 433.271 63.185 432.731 62.525C432.221 61.865 431.426 61.535 430.346 61.535ZM460.161 83.495C459.351 83.495 458.691 83.33 458.181 83C457.671 82.64 457.296 82.16 457.056 81.56C456.816 80.96 456.696 80.255 456.696 79.445C456.696 78.755 456.756 77.87 456.876 76.79C457.026 75.68 457.176 74.48 457.326 73.19L448.641 73.28C448.521 74.42 448.386 75.575 448.236 76.745C448.116 77.885 447.981 79.025 447.831 80.165C447.771 80.735 447.741 81.245 447.741 81.695C447.771 82.145 447.816 82.58 447.876 83H444.096C444.066 82.79 444.051 82.61 444.051 82.46C444.051 82.28 444.051 82.07 444.051 81.83C444.081 81.32 444.126 80.735 444.186 80.075C444.246 79.385 444.351 78.485 444.501 77.375C444.681 76.235 444.891 74.72 445.131 72.83C445.371 71.06 445.551 69.68 445.671 68.69C445.821 67.7 445.926 66.95 445.986 66.44C446.076 65.9 446.136 65.495 446.166 65.225C446.196 64.925 446.211 64.61 446.211 64.28C446.241 63.74 446.166 63.275 445.986 62.885C445.806 62.465 445.461 62.255 444.951 62.255C444.471 62.255 443.916 62.585 443.286 63.245C442.656 63.905 442.086 65.03 441.576 66.62L440.316 66.35C440.436 65.81 440.646 65.195 440.946 64.505C441.246 63.785 441.636 63.08 442.116 62.39C442.626 61.7 443.226 61.13 443.916 60.68C444.606 60.23 445.401 60.005 446.301 60.005C447.441 60.005 448.251 60.335 448.731 60.995C449.211 61.625 449.481 62.45 449.541 63.47C449.601 64.49 449.556 65.57 449.406 66.71C449.316 67.49 449.226 68.285 449.136 69.095C449.046 69.905 448.956 70.7 448.866 71.48H457.551C457.731 70.04 457.881 68.75 458.001 67.61C458.121 66.47 458.196 65.345 458.226 64.235C458.286 63.125 458.271 61.88 458.181 60.5H461.961C461.991 60.71 462.006 60.905 462.006 61.085C462.006 61.235 462.006 61.43 462.006 61.67C462.006 62.36 461.946 63.32 461.826 64.55C461.706 65.75 461.556 67.07 461.376 68.51C461.226 69.95 461.061 71.39 460.881 72.83C460.701 74.27 460.551 75.56 460.431 76.7C460.311 77.81 460.251 78.65 460.251 79.22C460.251 79.76 460.326 80.225 460.476 80.615C460.656 81.005 460.986 81.2 461.466 81.2C461.976 81.2 462.531 80.885 463.131 80.255C463.761 79.595 464.301 78.47 464.751 76.88L466.011 77.15C465.921 77.69 465.726 78.32 465.426 79.04C465.156 79.73 464.781 80.42 464.301 81.11C463.821 81.8 463.236 82.37 462.546 82.82C461.856 83.27 461.061 83.495 460.161 83.495ZM492.369 83.495C491.559 83.495 490.899 83.33 490.389 83C489.879 82.64 489.504 82.16 489.264 81.56C489.024 80.96 488.904 80.255 488.904 79.445C488.904 78.665 488.979 77.645 489.129 76.385C489.309 75.095 489.489 73.685 489.669 72.155C489.879 70.595 490.059 69.035 490.209 67.475C490.389 65.915 490.479 64.46 490.479 63.11C490.479 62.66 490.464 62.225 490.434 61.805C490.434 61.385 490.419 60.95 490.389 60.5H494.169C494.199 60.71 494.214 60.905 494.214 61.085C494.214 61.235 494.214 61.43 494.214 61.67C494.214 62.36 494.154 63.32 494.034 64.55C493.914 65.75 493.764 67.07 493.584 68.51C493.434 69.95 493.269 71.39 493.089 72.83C492.909 74.27 492.759 75.56 492.639 76.7C492.519 77.81 492.459 78.65 492.459 79.22C492.459 79.76 492.534 80.225 492.684 80.615C492.864 81.005 493.194 81.2 493.674 81.2C494.154 81.2 494.709 80.885 495.339 80.255C495.969 79.595 496.509 78.47 496.959 76.88L498.219 77.15C498.129 77.69 497.934 78.32 497.634 79.04C497.364 79.73 496.989 80.42 496.509 81.11C496.029 81.8 495.444 82.37 494.754 82.82C494.064 83.27 493.269 83.495 492.369 83.495ZM477.114 83.495C475.584 83.495 474.354 83.195 473.424 82.595C472.494 81.965 471.849 81.125 471.489 80.075C471.129 78.995 471.039 77.78 471.219 76.43C471.609 74 471.924 72.035 472.164 70.535C472.404 69.005 472.584 67.82 472.704 66.98C472.824 66.14 472.899 65.525 472.929 65.135C472.989 64.745 473.019 64.46 473.019 64.28C473.049 63.74 472.989 63.275 472.839 62.885C472.719 62.465 472.404 62.255 471.894 62.255C471.414 62.255 470.844 62.585 470.184 63.245C469.524 63.905 468.939 65.03 468.429 66.62L467.169 66.35C467.289 65.81 467.499 65.195 467.799 64.505C468.129 63.785 468.534 63.08 469.014 62.39C469.524 61.7 470.124 61.13 470.814 60.68C471.534 60.23 472.344 60.005 473.244 60.005C474.384 60.005 475.194 60.335 475.674 60.995C476.154 61.625 476.409 62.45 476.439 63.47C476.499 64.49 476.439 65.57 476.259 66.71L474.639 76.835C474.429 78.425 474.699 79.655 475.449 80.525C476.199 81.365 477.174 81.785 478.374 81.785C479.814 81.785 480.954 81.26 481.794 80.21C482.664 79.13 483.114 77.6 483.144 75.62C483.204 73.97 483.009 72.635 482.559 71.615C482.109 70.595 481.194 70.085 479.814 70.085C479.004 70.085 478.194 70.28 477.384 70.67C476.574 71.03 475.749 71.585 474.909 72.335L474.954 70.265C475.914 69.695 476.814 69.245 477.654 68.915C478.524 68.585 479.424 68.42 480.354 68.42C481.644 68.42 482.769 68.675 483.729 69.185C484.719 69.665 485.499 70.37 486.069 71.3C486.639 72.23 486.909 73.37 486.879 74.72C486.849 76.34 486.414 77.825 485.574 79.175C484.734 80.495 483.579 81.545 482.109 82.325C480.669 83.105 479.004 83.495 477.114 83.495ZM508.066 83.495C506.866 83.495 505.906 83.225 505.186 82.685C504.466 82.145 503.941 81.425 503.611 80.525C503.311 79.625 503.161 78.665 503.161 77.645C503.161 75.965 503.281 74.27 503.521 72.56C503.761 70.85 504.001 69.275 504.241 67.835C504.481 66.365 504.601 65.21 504.601 64.37C504.601 63.8 504.526 63.305 504.376 62.885C504.256 62.465 503.926 62.255 503.386 62.255C502.906 62.255 502.366 62.585 501.766 63.245C501.196 63.905 500.686 65.03 500.236 66.62L498.976 66.35C499.066 65.81 499.246 65.195 499.516 64.505C499.786 63.785 500.146 63.08 500.596 62.39C501.076 61.7 501.646 61.13 502.306 60.68C502.996 60.23 503.791 60.005 504.691 60.005C505.891 60.005 506.791 60.38 507.391 61.13C508.021 61.88 508.336 62.96 508.336 64.37C508.336 65.21 508.261 66.245 508.111 67.475C507.961 68.705 507.781 69.995 507.571 71.345C507.391 72.665 507.226 73.955 507.076 75.215C506.926 76.475 506.851 77.585 506.851 78.545C506.851 78.875 506.896 79.265 506.986 79.715C507.106 80.165 507.316 80.555 507.616 80.885C507.946 81.215 508.396 81.38 508.966 81.38C509.806 81.38 510.631 80.99 511.441 80.21C512.251 79.43 513.016 78.38 513.736 77.06C514.456 75.74 515.101 74.285 515.671 72.695C516.241 71.075 516.676 69.425 516.976 67.745C517.306 66.035 517.471 64.415 517.471 62.885C517.471 62.435 517.456 62.03 517.426 61.67C517.426 61.28 517.411 60.89 517.381 60.5H521.161C521.191 60.71 521.206 60.905 521.206 61.085C521.206 61.235 521.206 61.43 521.206 61.67C521.206 62.18 521.176 62.795 521.116 63.515C521.056 64.205 520.966 65.135 520.846 66.305C520.726 67.445 520.546 68.96 520.306 70.85C520.096 72.59 519.931 73.955 519.811 74.945C519.721 75.935 519.646 76.685 519.586 77.195C519.526 77.675 519.481 78.05 519.451 78.32C519.451 78.59 519.451 78.89 519.451 79.22C519.451 79.76 519.526 80.225 519.676 80.615C519.856 81.005 520.186 81.2 520.666 81.2C521.176 81.2 521.731 80.885 522.331 80.255C522.961 79.595 523.501 78.47 523.951 76.88L525.211 77.15C525.121 77.69 524.926 78.32 524.626 79.04C524.356 79.73 523.981 80.42 523.501 81.11C523.021 81.8 522.436 82.37 521.746 82.82C521.056 83.27 520.261 83.495 519.361 83.495C518.161 83.495 517.276 83.12 516.706 82.37C516.166 81.62 515.896 80.645 515.896 79.445C515.896 78.575 515.971 77.63 516.121 76.61C516.301 75.59 516.496 74.525 516.706 73.415H516.571C515.551 76.145 514.576 78.245 513.646 79.715C512.716 81.155 511.801 82.145 510.901 82.685C510.001 83.225 509.056 83.495 508.066 83.495ZM512.206 55.775C511.156 55.775 510.181 55.64 509.281 55.37C508.381 55.07 507.661 54.62 507.121 54.02C506.611 53.42 506.386 52.685 506.446 51.815C506.506 51.005 506.776 50.435 507.256 50.105C507.736 49.745 508.261 49.55 508.831 49.52C509.641 49.49 510.181 49.715 510.451 50.195C510.751 50.645 510.901 51.08 510.901 51.5C510.871 51.74 510.796 52.01 510.676 52.31C510.586 52.61 510.421 52.88 510.181 53.12C510.511 53.42 510.871 53.66 511.261 53.84C511.681 53.99 512.221 54.065 512.881 54.065C514.321 54.065 515.521 53.69 516.481 52.94C516.811 52.67 517.126 52.31 517.426 51.86C517.726 51.41 518.011 50.96 518.281 50.51L519.631 51.725C518.551 53.105 517.366 54.125 516.076 54.785C514.816 55.445 513.526 55.775 512.206 55.775ZM169.71 141.495C168.69 141.495 167.865 141.105 167.235 140.325C166.635 139.545 166.23 137.97 166.02 135.6C165.84 133.47 165.495 132.015 164.985 131.235C164.475 130.425 163.68 130.02 162.6 130.02L157.785 130.065L157.83 128.76H163.815V129.165C165.765 129.165 167.145 129.675 167.955 130.695C168.795 131.715 169.29 132.975 169.44 134.475C169.59 136.035 169.77 137.16 169.98 137.85C170.22 138.54 170.67 138.915 171.33 138.975C171.81 139.005 172.23 138.825 172.59 138.435C172.95 138.045 173.265 137.295 173.535 136.185L174.795 136.41C174.615 137.25 174.315 138.06 173.895 138.84C173.475 139.62 172.92 140.265 172.23 140.775C171.57 141.255 170.73 141.495 169.71 141.495ZM154.545 141C154.515 140.82 154.5 140.595 154.5 140.325C154.53 140.055 154.545 139.74 154.545 139.38C154.575 138.3 154.65 137.13 154.77 135.87C154.89 134.58 155.04 133.29 155.22 132C155.4 130.68 155.565 129.42 155.715 128.22C155.895 127.02 156.045 125.955 156.165 125.025C156.285 124.065 156.36 123.345 156.39 122.865C156.42 122.265 156.39 121.68 156.3 121.11C156.21 120.54 155.85 120.255 155.22 120.255C154.74 120.255 154.17 120.585 153.51 121.245C152.88 121.905 152.325 123.03 151.845 124.62L150.585 124.35C150.705 123.81 150.915 123.195 151.215 122.505C151.515 121.785 151.905 121.08 152.385 120.39C152.895 119.7 153.495 119.13 154.185 118.68C154.875 118.23 155.67 118.005 156.57 118.005C158.25 118.005 159.24 118.665 159.54 119.985C159.87 121.275 159.855 123.09 159.495 125.43C159.225 127.2 159 128.79 158.82 130.2C158.67 131.58 158.535 132.81 158.415 133.89C158.325 134.94 158.265 135.855 158.235 136.635C158.205 137.385 158.19 138.015 158.19 138.525C158.19 138.885 158.19 139.275 158.19 139.695C158.22 140.115 158.25 140.55 158.28 141H154.545ZM160.485 129.57V128.76C161.805 128.76 162.855 128.4 163.635 127.68C164.415 126.96 165.135 125.7 165.795 123.9C166.575 121.77 167.4 120.255 168.27 119.355C169.17 118.455 170.31 118.005 171.69 118.005C172.47 118.005 173.085 118.23 173.535 118.68C173.985 119.13 174.21 119.73 174.21 120.48C174.21 121.08 174.03 121.62 173.67 122.1C173.31 122.55 172.785 122.775 172.095 122.775C171.345 122.775 170.76 122.61 170.34 122.28C169.92 121.95 169.68 121.485 169.62 120.885C169.2 121.155 168.825 121.575 168.495 122.145C168.165 122.685 167.79 123.525 167.37 124.665C166.86 126.105 166.17 127.29 165.3 128.22C164.46 129.12 163.53 129.57 162.51 129.57H160.485ZM188.71 118.005C190.33 118.005 191.785 118.395 193.075 119.175C194.365 119.925 195.385 121.035 196.135 122.505C196.885 123.975 197.26 125.76 197.26 127.86C197.26 130.26 196.825 132.51 195.955 134.61C195.085 136.68 193.825 138.345 192.175 139.605C190.555 140.865 188.575 141.495 186.235 141.495C184.255 141.495 182.62 141.045 181.33 140.145C180.07 139.245 179.125 138.03 178.495 136.5C177.895 134.97 177.595 133.275 177.595 131.415C177.595 128.985 178.03 126.75 178.9 124.71C179.8 122.67 181.075 121.05 182.725 119.85C184.405 118.62 186.4 118.005 188.71 118.005ZM188.035 119.67C186.715 119.64 185.575 120.09 184.615 121.02C183.655 121.92 182.905 123.15 182.365 124.71C181.855 126.27 181.585 128.01 181.555 129.93C181.525 130.95 181.585 132.03 181.735 133.17C181.885 134.31 182.14 135.375 182.5 136.365C182.89 137.355 183.415 138.165 184.075 138.795C184.765 139.425 185.62 139.755 186.64 139.785C187.84 139.815 188.86 139.5 189.7 138.84C190.54 138.15 191.215 137.265 191.725 136.185C192.235 135.105 192.61 133.95 192.85 132.72C193.12 131.49 193.27 130.335 193.3 129.255C193.33 128.205 193.27 127.125 193.12 126.015C193 124.905 192.745 123.87 192.355 122.91C191.965 121.95 191.425 121.185 190.735 120.615C190.045 120.015 189.145 119.7 188.035 119.67ZM209.882 152.475V151.125C210.722 151.125 211.307 150.84 211.637 150.27C211.997 149.7 212.222 148.935 212.312 147.975C212.432 147.045 212.537 145.995 212.627 144.825C212.747 143.415 212.867 141.72 212.987 139.74C213.137 137.76 213.302 135.63 213.482 133.35C213.692 131.04 213.902 128.67 214.112 126.24C214.322 123.78 214.547 121.365 214.787 118.995C215.057 116.625 215.327 114.39 215.597 112.29C215.717 111.48 215.807 110.955 215.867 110.715C215.927 110.445 215.987 110.16 216.047 109.86C215.507 109.89 214.967 109.92 214.427 109.95C213.887 109.98 213.347 110.01 212.807 110.04L213.032 108.24C214.352 108.24 215.372 108.18 216.092 108.06C216.842 107.94 217.412 107.79 217.802 107.61C218.192 107.43 218.507 107.235 218.747 107.025H220.007C219.917 107.775 219.782 108.615 219.602 109.545C219.452 110.475 219.302 111.39 219.152 112.29C219.032 113.19 218.927 113.985 218.837 114.675C218.627 116.325 218.432 117.87 218.252 119.31C218.102 120.72 217.937 122.22 217.757 123.81C217.607 125.37 217.442 127.185 217.262 129.255C217.112 131.295 216.917 133.755 216.677 136.635C216.467 139.485 216.212 142.95 215.912 147.03C215.882 147.63 215.852 148.275 215.822 148.965C215.792 149.655 215.702 150.255 215.552 150.765C216.032 150.735 216.497 150.705 216.947 150.675C217.427 150.675 217.907 150.66 218.387 150.63V152.475H209.882ZM209.252 141.495C207.512 141.495 206.027 141.045 204.797 140.145C203.567 139.245 202.637 138.03 202.007 136.5C201.377 134.97 201.062 133.275 201.062 131.415C201.062 128.985 201.497 126.75 202.367 124.71C203.237 122.67 204.452 121.05 206.012 119.85C207.602 118.62 209.432 118.005 211.502 118.005C212.372 118.005 213.107 118.125 213.707 118.365C214.307 118.605 214.847 118.98 215.327 119.49L215.012 122.01C214.622 121.26 214.172 120.69 213.662 120.3C213.182 119.88 212.462 119.67 211.502 119.67C210.182 119.67 209.042 120.135 208.082 121.065C207.122 121.965 206.372 123.195 205.832 124.755C205.322 126.285 205.052 128.01 205.022 129.93C204.992 130.95 205.052 132.03 205.202 133.17C205.382 134.31 205.652 135.375 206.012 136.365C206.372 137.355 206.852 138.165 207.452 138.795C208.052 139.425 208.787 139.755 209.657 139.785C210.527 139.785 211.277 139.62 211.907 139.29C212.537 138.96 213.062 138.465 213.482 137.805L213.392 140.055C212.882 140.565 212.282 140.925 211.592 141.135C210.902 141.375 210.122 141.495 209.252 141.495ZM220.142 141.495C219.152 141.495 218.282 141.285 217.532 140.865C216.782 140.415 216.122 139.845 215.552 139.155L216.002 136.86C216.602 137.88 217.217 138.63 217.847 139.11C218.477 139.59 219.227 139.83 220.097 139.83C221.147 139.83 222.047 139.5 222.797 138.84C223.547 138.15 224.162 137.265 224.642 136.185C225.122 135.105 225.482 133.95 225.722 132.72C225.962 131.49 226.097 130.335 226.127 129.255C226.157 128.205 226.097 127.125 225.947 126.015C225.827 124.875 225.587 123.825 225.227 122.865C224.867 121.905 224.357 121.14 223.697 120.57C223.067 119.97 222.257 119.67 221.267 119.67C220.727 119.67 220.112 119.85 219.422 120.21C218.762 120.54 218.132 121.14 217.532 122.01L217.757 119.715C218.357 119.205 219.002 118.8 219.692 118.5C220.412 118.17 221.237 118.005 222.167 118.005C223.577 118.005 224.882 118.395 226.082 119.175C227.282 119.925 228.242 121.035 228.962 122.505C229.712 123.975 230.087 125.76 230.087 127.86C230.087 129.66 229.847 131.385 229.367 133.035C228.887 134.685 228.197 136.14 227.297 137.4C226.427 138.66 225.377 139.665 224.147 140.415C222.947 141.135 221.612 141.495 220.142 141.495ZM244.78 118.005C245.86 118.005 246.88 118.17 247.84 118.5C248.8 118.83 249.58 119.37 250.18 120.12C250.78 120.87 251.08 121.89 251.08 123.18C251.08 124.41 250.66 125.475 249.82 126.375C248.98 127.275 247.885 128.025 246.535 128.625C245.185 129.195 243.745 129.66 242.215 130.02C240.685 130.38 239.215 130.635 237.805 130.785C237.805 132.645 237.985 134.205 238.345 135.465C238.735 136.725 239.305 137.67 240.055 138.3C240.805 138.93 241.765 139.245 242.935 139.245C243.805 139.245 244.675 139.05 245.545 138.66C246.445 138.27 247.3 137.685 248.11 136.905C248.92 136.095 249.655 135.06 250.315 133.8L251.8 134.655C250.96 136.215 250.06 137.505 249.1 138.525C248.14 139.545 247.09 140.295 245.95 140.775C244.81 141.255 243.55 141.495 242.17 141.495C239.32 141.495 237.22 140.61 235.87 138.84C234.52 137.04 233.845 134.685 233.845 131.775C233.845 130.035 234.07 128.34 234.52 126.69C234.97 125.04 235.645 123.57 236.545 122.28C237.445 120.96 238.585 119.925 239.965 119.175C241.345 118.395 242.95 118.005 244.78 118.005ZM244.15 119.535C242.77 119.535 241.63 120 240.73 120.93C239.86 121.86 239.185 123.06 238.705 124.53C238.255 126 237.97 127.545 237.85 129.165C239.44 128.955 240.955 128.58 242.395 128.04C243.835 127.5 245.02 126.81 245.95 125.97C246.88 125.1 247.345 124.095 247.345 122.955C247.345 121.995 247.075 121.185 246.535 120.525C246.025 119.865 245.23 119.535 244.15 119.535Z" fill="#333333"/>
</g>
<defs>
<filter id="filter0_d_14_162" x="0" y="0" width="575.1" height="216.1" filterUnits="userSpaceOnUse" color-interpolation-filters="sRGB">
<feFlood flood-opacity="0" result="BackgroundImageFix"/>
<feColorMatrix in="SourceAlpha" type="matrix" values="0 0 0 0 0 0 0 0 0 0 0 0 0 0 0 0 0 0 127 0" result="hardAlpha"/>
<feOffset dx="10" dy="14"/>
<feGaussianBlur stdDeviation="3.55"/>
<feComposite in2="hardAlpha" operator="out"/>
<feColorMatrix type="matrix" values="0 0 0 0 0 0 0 0 0 0 0 0 0 0 0 0 0 0 0.25 0"/>
<feBlend mode="normal" in2="BackgroundImageFix" result="effect1_dropShadow_14_162"/>
<feBlend mode="normal" in="SourceGraphic" in2="effect1_dropShadow_14_162" result="shape"/>
</filter>
<clipPath id="clip0_14_162">
<rect width="91" height="91" fill="white" transform="translate(28 52)"/>
</clipPath>
</defs>
</svg>
