<svg width="576" height="217" viewBox="0 0 576 217" fill="none" xmlns="http://www.w3.org/2000/svg">
<g filter="url(#filter0_d_14_164)">
<rect x="1" y="1" width="556" height="193" rx="14" fill="#D5B68A" stroke="#333333" stroke-width="2"/>
<path d="M151.8 83L151.89 81.515C153.03 81.485 153.825 81.23 154.275 80.75C154.725 80.24 154.995 79.565 155.085 78.725C155.175 77.855 155.25 76.865 155.31 75.755L156.3 56.54C156.33 55.94 156.375 55.37 156.435 54.83C156.495 54.26 156.555 53.75 156.615 53.3C156.075 53.33 155.52 53.36 154.95 53.39C154.41 53.42 153.87 53.45 153.33 53.48L153.42 51.5H174.795L174.615 59.375H173.13C173.22 57.605 172.995 56.27 172.455 55.37C171.945 54.44 171.225 53.825 170.295 53.525C169.395 53.195 168.375 53.045 167.235 53.075L163.275 53.165C162.255 53.165 161.52 53.375 161.07 53.795C160.65 54.185 160.38 54.755 160.26 55.505C160.14 56.225 160.05 57.11 159.99 58.16L159.585 65.135L163.365 65.045C165.615 64.985 167.52 65.135 169.08 65.495C170.64 65.825 171.915 66.365 172.905 67.115C173.895 67.835 174.615 68.735 175.065 69.815C175.515 70.865 175.74 72.08 175.74 73.46C175.74 75.62 175.245 77.405 174.255 78.815C173.295 80.225 171.99 81.275 170.34 81.965C168.69 82.655 166.845 83 164.805 83H151.8ZM163.41 81.245C165.72 81.245 167.625 80.66 169.125 79.49C170.625 78.29 171.435 76.43 171.555 73.91C171.645 72.08 171.345 70.655 170.655 69.635C169.995 68.585 169.08 67.835 167.91 67.385C166.77 66.935 165.51 66.71 164.13 66.71C163.23 66.71 162.405 66.725 161.655 66.755C160.935 66.755 160.215 66.785 159.495 66.845L158.955 77.645C158.925 78.455 158.88 79.145 158.82 79.715C158.76 80.285 158.7 80.765 158.64 81.155C159.12 81.185 159.69 81.215 160.35 81.245C161.04 81.245 161.67 81.245 162.24 81.245C162.84 81.245 163.23 81.245 163.41 81.245ZM190.551 60.005C191.631 60.005 192.651 60.17 193.611 60.5C194.571 60.83 195.351 61.37 195.951 62.12C196.551 62.87 196.851 63.89 196.851 65.18C196.851 66.41 196.431 67.475 195.591 68.375C194.751 69.275 193.656 70.025 192.306 70.625C190.956 71.195 189.516 71.66 187.986 72.02C186.456 72.38 184.986 72.635 183.576 72.785C183.576 74.645 183.756 76.205 184.116 77.465C184.506 78.725 185.076 79.67 185.826 80.3C186.576 80.93 187.536 81.245 188.706 81.245C189.576 81.245 190.446 81.05 191.316 80.66C192.216 80.27 193.071 79.685 193.881 78.905C194.691 78.095 195.426 77.06 196.086 75.8L197.571 76.655C196.731 78.215 195.831 79.505 194.871 80.525C193.911 81.545 192.861 82.295 191.721 82.775C190.581 83.255 189.321 83.495 187.941 83.495C185.091 83.495 182.991 82.61 181.641 80.84C180.291 79.04 179.616 76.685 179.616 73.775C179.616 72.035 179.841 70.34 180.291 68.69C180.741 67.04 181.416 65.57 182.316 64.28C183.216 62.96 184.356 61.925 185.736 61.175C187.116 60.395 188.721 60.005 190.551 60.005ZM189.921 61.535C188.541 61.535 187.401 62 186.501 62.93C185.631 63.86 184.956 65.06 184.476 66.53C184.026 68 183.741 69.545 183.621 71.165C185.211 70.955 186.726 70.58 188.166 70.04C189.606 69.5 190.791 68.81 191.721 67.97C192.651 67.1 193.116 66.095 193.116 64.955C193.116 63.995 192.846 63.185 192.306 62.525C191.796 61.865 191.001 61.535 189.921 61.535ZM211.817 60.005C213.107 60.005 214.262 60.245 215.282 60.725C216.302 61.175 217.097 61.805 217.667 62.615C218.267 63.395 218.567 64.28 218.567 65.27C218.567 65.93 218.402 66.47 218.072 66.89C217.742 67.28 217.277 67.475 216.677 67.475C215.957 67.505 215.447 67.295 215.147 66.845C214.877 66.395 214.742 66.005 214.742 65.675C214.742 65.405 214.772 65.12 214.832 64.82C214.922 64.52 215.087 64.235 215.327 63.965C215.177 63.125 214.757 62.525 214.067 62.165C213.407 61.775 212.642 61.58 211.772 61.58C210.482 61.58 209.402 61.925 208.532 62.615C207.662 63.305 206.972 64.205 206.462 65.315C205.952 66.425 205.577 67.625 205.337 68.915C205.127 70.175 205.022 71.405 205.022 72.605C205.022 74.705 205.247 76.4 205.697 77.69C206.177 78.95 206.837 79.865 207.677 80.435C208.517 81.005 209.462 81.29 210.512 81.29C211.292 81.29 212.102 81.125 212.942 80.795C213.782 80.435 214.592 79.85 215.372 79.04C216.152 78.2 216.827 77.06 217.397 75.62L218.972 76.385C218.222 78.125 217.352 79.52 216.362 80.57C215.372 81.59 214.307 82.34 213.167 82.82C212.057 83.27 210.917 83.495 209.747 83.495C207.107 83.495 204.992 82.7 203.402 81.11C201.842 79.49 201.062 77 201.062 73.64C201.062 72.17 201.272 70.64 201.692 69.05C202.112 67.46 202.757 65.99 203.627 64.64C204.497 63.26 205.607 62.15 206.957 61.31C208.337 60.44 209.957 60.005 211.817 60.005ZM241.861 83.495C240.451 83.495 239.491 83.12 238.981 82.37C238.471 81.62 238.216 80.555 238.216 79.175C238.216 78.335 238.276 77.345 238.396 76.205C238.546 75.065 238.711 73.85 238.891 72.56C239.101 71.27 239.266 69.965 239.386 68.645C239.536 67.325 239.611 66.065 239.611 64.865C239.611 64.505 239.551 64.115 239.431 63.695C239.341 63.275 239.146 62.915 238.846 62.615C238.546 62.285 238.096 62.12 237.496 62.12C236.656 62.12 235.816 62.51 234.976 63.29C234.136 64.07 233.341 65.12 232.591 66.44C231.841 67.76 231.166 69.23 230.566 70.85C229.966 72.44 229.486 74.09 229.126 75.8C228.796 77.48 228.631 79.085 228.631 80.615C228.631 81.065 228.631 81.485 228.631 81.875C228.661 82.235 228.691 82.61 228.721 83H224.941C224.911 82.79 224.896 82.61 224.896 82.46C224.896 82.28 224.896 82.07 224.896 81.83C224.896 81.32 224.926 80.735 224.986 80.075C225.046 79.385 225.136 78.485 225.256 77.375C225.406 76.235 225.586 74.72 225.796 72.83C226.006 71.06 226.156 69.68 226.246 68.69C226.366 67.7 226.456 66.95 226.516 66.44C226.576 65.9 226.606 65.495 226.606 65.225C226.636 64.925 226.651 64.61 226.651 64.28C226.651 63.74 226.576 63.275 226.426 62.885C226.276 62.465 225.946 62.255 225.436 62.255C224.956 62.255 224.401 62.585 223.771 63.245C223.141 63.905 222.601 65.03 222.151 66.62L220.891 66.35C220.981 65.81 221.161 65.195 221.431 64.505C221.731 63.785 222.121 63.08 222.601 62.39C223.081 61.7 223.666 61.13 224.356 60.68C225.046 60.23 225.841 60.005 226.741 60.005C227.761 60.005 228.511 60.29 228.991 60.86C229.501 61.4 229.816 62.105 229.936 62.975C230.086 63.845 230.131 64.775 230.071 65.765C230.011 66.605 229.906 67.415 229.756 68.195C229.636 68.975 229.516 69.665 229.396 70.265H229.531C230.551 67.535 231.556 65.435 232.546 63.965C233.536 62.465 234.511 61.43 235.471 60.86C236.461 60.29 237.436 60.005 238.396 60.005C239.596 60.005 240.556 60.275 241.276 60.815C241.996 61.355 242.506 62.075 242.806 62.975C243.136 63.845 243.301 64.805 243.301 65.855C243.301 67.505 243.181 69.2 242.941 70.94C242.731 72.65 242.506 74.24 242.266 75.71C242.056 77.15 241.951 78.305 241.951 79.175C241.951 79.715 242.011 80.195 242.131 80.615C242.281 81.035 242.626 81.245 243.166 81.245C243.676 81.245 244.231 80.93 244.831 80.3C245.461 79.64 246.001 78.5 246.451 76.88L247.711 77.195C247.621 77.705 247.426 78.32 247.126 79.04C246.856 79.76 246.481 80.465 246.001 81.155C245.521 81.815 244.936 82.37 244.246 82.82C243.556 83.27 242.761 83.495 241.861 83.495ZM251.007 83.45C250.167 83.45 249.462 83.21 248.892 82.73C248.352 82.25 248.082 81.68 248.082 81.02C248.082 80.45 248.277 79.955 248.667 79.535C249.057 79.085 249.552 78.86 250.152 78.86C250.632 78.86 251.067 79.025 251.457 79.355C251.877 79.685 252.087 80.105 252.087 80.615C252.087 80.765 252.072 80.9 252.042 81.02C252.042 81.11 252.027 81.2 251.997 81.29C252.777 81.38 253.542 81.065 254.292 80.345C255.042 79.625 255.747 78.62 256.407 77.33C257.097 76.04 257.712 74.57 258.252 72.92C258.822 71.24 259.317 69.485 259.737 67.655C260.187 65.825 260.532 64.025 260.772 62.255L256.632 62.3L256.767 60.5H269.907C269.937 60.71 269.952 60.905 269.952 61.085C269.952 61.235 269.952 61.43 269.952 61.67C269.952 62.36 269.892 63.32 269.772 64.55C269.652 65.75 269.502 67.07 269.322 68.51C269.172 69.95 269.007 71.39 268.827 72.83C268.647 74.27 268.497 75.56 268.377 76.7C268.257 77.81 268.197 78.65 268.197 79.22C268.197 79.76 268.272 80.225 268.422 80.615C268.602 81.005 268.932 81.2 269.412 81.2C269.922 81.2 270.477 80.885 271.077 80.255C271.707 79.595 272.247 78.47 272.697 76.88L273.957 77.15C273.867 77.69 273.672 78.32 273.372 79.04C273.102 79.73 272.727 80.42 272.247 81.11C271.767 81.8 271.182 82.37 270.492 82.82C269.802 83.27 269.007 83.495 268.107 83.495C267.297 83.495 266.637 83.33 266.127 83C265.617 82.64 265.242 82.16 265.002 81.56C264.762 80.96 264.642 80.255 264.642 79.445C264.642 78.635 264.717 77.6 264.867 76.34C265.047 75.08 265.227 73.67 265.407 72.11C265.617 70.55 265.797 68.93 265.947 67.25C266.127 65.54 266.217 63.86 266.217 62.21L264.327 62.255C263.907 62.255 263.577 62.39 263.337 62.66C263.127 62.93 262.977 63.275 262.887 63.695C262.347 66.395 261.717 68.93 260.997 71.3C260.307 73.67 259.482 75.77 258.522 77.6C257.562 79.43 256.467 80.87 255.237 81.92C254.007 82.94 252.597 83.45 251.007 83.45ZM289.258 60.005C290.158 60.005 291.148 60.08 292.228 60.23C293.308 60.35 294.328 60.53 295.288 60.77C295.048 62.57 294.808 64.37 294.568 66.17C294.358 67.94 294.148 69.635 293.938 71.255C293.758 72.845 293.608 74.285 293.488 75.575C293.368 76.835 293.308 77.825 293.308 78.545C293.308 79.145 293.353 79.745 293.443 80.345C293.533 80.945 293.908 81.245 294.568 81.245C295.078 81.245 295.633 80.915 296.233 80.255C296.863 79.595 297.403 78.47 297.853 76.88L299.113 77.15C299.023 77.69 298.828 78.32 298.528 79.04C298.258 79.73 297.883 80.42 297.403 81.11C296.923 81.8 296.338 82.37 295.648 82.82C294.958 83.27 294.163 83.495 293.263 83.495C292.063 83.495 291.208 83.12 290.698 82.37C290.188 81.62 289.933 80.645 289.933 79.445C289.933 78.575 290.008 77.63 290.158 76.61C290.338 75.59 290.533 74.525 290.743 73.415H290.608C289.888 75.635 289.138 77.42 288.358 78.77C287.608 80.09 286.843 81.095 286.063 81.785C285.313 82.475 284.578 82.925 283.858 83.135C283.138 83.375 282.463 83.495 281.833 83.495C280.213 83.495 278.848 82.895 277.738 81.695C276.658 80.495 276.118 78.485 276.118 75.665C276.118 73.565 276.388 71.57 276.928 69.68C277.468 67.79 278.278 66.125 279.358 64.685C280.468 63.215 281.848 62.075 283.498 61.265C285.148 60.425 287.068 60.005 289.258 60.005ZM287.863 61.625C286.513 61.625 285.328 62 284.308 62.75C283.318 63.5 282.493 64.52 281.833 65.81C281.173 67.07 280.678 68.495 280.348 70.085C280.048 71.645 279.898 73.25 279.898 74.9C279.898 76.82 280.108 78.41 280.528 79.67C280.948 80.9 281.713 81.515 282.823 81.515C283.633 81.515 284.443 81.11 285.253 80.3C286.093 79.49 286.873 78.41 287.593 77.06C288.313 75.68 288.958 74.15 289.528 72.47C290.098 70.76 290.548 69.02 290.878 67.25C291.208 65.48 291.373 63.785 291.373 62.165C290.923 61.985 290.398 61.85 289.798 61.76C289.198 61.67 288.553 61.625 287.863 61.625ZM332.091 83.495C330.681 83.495 329.721 83.12 329.211 82.37C328.731 81.62 328.491 80.555 328.491 79.175C328.491 78.335 328.566 77.345 328.716 76.205C328.896 75.065 329.091 73.85 329.301 72.56C329.511 71.27 329.691 69.965 329.841 68.645C330.021 67.325 330.111 66.065 330.111 64.865C330.111 64.505 330.051 64.115 329.931 63.695C329.811 63.275 329.601 62.915 329.301 62.615C329.001 62.285 328.551 62.12 327.951 62.12C327.111 62.12 326.286 62.51 325.476 63.29C324.666 64.07 323.916 65.12 323.226 66.44C322.536 67.76 321.921 69.23 321.381 70.85C320.871 72.44 320.466 74.09 320.166 75.8C319.866 77.48 319.716 79.085 319.716 80.615C319.716 81.065 319.716 81.485 319.716 81.875C319.746 82.235 319.776 82.61 319.806 83H316.026C315.996 82.79 315.981 82.61 315.981 82.46C315.981 82.28 315.981 82.07 315.981 81.83C315.981 80.69 316.056 79.34 316.206 77.78C316.386 76.22 316.581 74.615 316.791 72.965C317.031 71.315 317.226 69.755 317.376 68.285C317.556 66.815 317.631 65.615 317.601 64.685C317.571 64.175 317.421 63.62 317.151 63.02C316.881 62.42 316.311 62.12 315.441 62.12C314.601 62.12 313.776 62.51 312.966 63.29C312.186 64.07 311.451 65.12 310.761 66.44C310.071 67.76 309.456 69.23 308.916 70.85C308.376 72.44 307.956 74.09 307.656 75.8C307.356 77.48 307.206 79.085 307.206 80.615C307.206 81.065 307.206 81.485 307.206 81.875C307.236 82.235 307.266 82.61 307.296 83H303.516C303.486 82.79 303.471 82.61 303.471 82.46C303.471 82.28 303.471 82.07 303.471 81.83C303.471 81.32 303.486 80.735 303.516 80.075C303.576 79.385 303.666 78.485 303.786 77.375C303.936 76.235 304.116 74.72 304.326 72.83C304.536 71.06 304.701 69.68 304.821 68.69C304.941 67.7 305.031 66.95 305.091 66.44C305.151 65.9 305.181 65.495 305.181 65.225C305.211 64.925 305.226 64.61 305.226 64.28C305.226 63.74 305.151 63.275 305.001 62.885C304.851 62.465 304.521 62.255 304.011 62.255C303.531 62.255 302.976 62.585 302.346 63.245C301.716 63.905 301.176 65.03 300.726 66.62L299.466 66.35C299.556 65.81 299.736 65.195 300.006 64.505C300.306 63.785 300.696 63.08 301.176 62.39C301.656 61.7 302.241 61.13 302.931 60.68C303.621 60.23 304.416 60.005 305.316 60.005C306.306 60.005 307.041 60.26 307.521 60.77C308.001 61.25 308.316 61.895 308.466 62.705C308.646 63.485 308.706 64.34 308.646 65.27C308.616 66.11 308.526 66.965 308.376 67.835C308.226 68.675 308.091 69.41 307.971 70.04H308.106C309.066 67.31 310.011 65.225 310.941 63.785C311.901 62.345 312.831 61.355 313.731 60.815C314.661 60.275 315.531 60.005 316.341 60.005C317.541 60.005 318.486 60.29 319.176 60.86C319.896 61.4 320.406 62.06 320.706 62.84C321.006 63.62 321.156 64.385 321.156 65.135C321.156 65.975 321.096 66.695 320.976 67.295C320.856 67.895 320.661 68.765 320.391 69.905H320.526C321.516 67.175 322.491 65.105 323.451 63.695C324.441 62.255 325.401 61.28 326.331 60.77C327.261 60.26 328.131 60.005 328.941 60.005C330.141 60.005 331.086 60.275 331.776 60.815C332.466 61.355 332.946 62.075 333.216 62.975C333.516 63.845 333.666 64.805 333.666 65.855C333.666 67.505 333.546 69.2 333.306 70.94C333.066 72.65 332.811 74.24 332.541 75.71C332.301 77.15 332.181 78.305 332.181 79.175C332.181 79.715 332.241 80.195 332.361 80.615C332.511 81.035 332.856 81.245 333.396 81.245C333.906 81.245 334.476 80.93 335.106 80.3C335.736 79.64 336.276 78.5 336.726 76.88L337.986 77.195C337.896 77.705 337.701 78.32 337.401 79.04C337.101 79.76 336.711 80.465 336.231 81.155C335.751 81.815 335.166 82.37 334.476 82.82C333.786 83.27 332.991 83.495 332.091 83.495ZM358.955 83.495C358.145 83.495 357.485 83.33 356.975 83C356.465 82.64 356.09 82.16 355.85 81.56C355.61 80.96 355.49 80.255 355.49 79.445C355.49 78.755 355.55 77.87 355.67 76.79C355.82 75.68 355.97 74.48 356.12 73.19L347.435 73.28C347.315 74.42 347.18 75.575 347.03 76.745C346.91 77.885 346.775 79.025 346.625 80.165C346.565 80.735 346.535 81.245 346.535 81.695C346.565 82.145 346.61 82.58 346.67 83H342.89C342.86 82.79 342.845 82.61 342.845 82.46C342.845 82.28 342.845 82.07 342.845 81.83C342.875 81.32 342.92 80.735 342.98 80.075C343.04 79.385 343.145 78.485 343.295 77.375C343.475 76.235 343.685 74.72 343.925 72.83C344.165 71.06 344.345 69.68 344.465 68.69C344.615 67.7 344.72 66.95 344.78 66.44C344.87 65.9 344.93 65.495 344.96 65.225C344.99 64.925 345.005 64.61 345.005 64.28C345.035 63.74 344.96 63.275 344.78 62.885C344.6 62.465 344.255 62.255 343.745 62.255C343.265 62.255 342.71 62.585 342.08 63.245C341.45 63.905 340.88 65.03 340.37 66.62L339.11 66.35C339.23 65.81 339.44 65.195 339.74 64.505C340.04 63.785 340.43 63.08 340.91 62.39C341.42 61.7 342.02 61.13 342.71 60.68C343.4 60.23 344.195 60.005 345.095 60.005C346.235 60.005 347.045 60.335 347.525 60.995C348.005 61.625 348.275 62.45 348.335 63.47C348.395 64.49 348.35 65.57 348.2 66.71C348.11 67.49 348.02 68.285 347.93 69.095C347.84 69.905 347.75 70.7 347.66 71.48H356.345C356.525 70.04 356.675 68.75 356.795 67.61C356.915 66.47 356.99 65.345 357.02 64.235C357.08 63.125 357.065 61.88 356.975 60.5H360.755C360.785 60.71 360.8 60.905 360.8 61.085C360.8 61.235 360.8 61.43 360.8 61.67C360.8 62.36 360.74 63.32 360.62 64.55C360.5 65.75 360.35 67.07 360.17 68.51C360.02 69.95 359.855 71.39 359.675 72.83C359.495 74.27 359.345 75.56 359.225 76.7C359.105 77.81 359.045 78.65 359.045 79.22C359.045 79.76 359.12 80.225 359.27 80.615C359.45 81.005 359.78 81.2 360.26 81.2C360.77 81.2 361.325 80.885 361.925 80.255C362.555 79.595 363.095 78.47 363.545 76.88L364.805 77.15C364.715 77.69 364.52 78.32 364.22 79.04C363.95 79.73 363.575 80.42 363.095 81.11C362.615 81.8 362.03 82.37 361.34 82.82C360.65 83.27 359.855 83.495 358.955 83.495ZM391.163 83.495C390.353 83.495 389.693 83.33 389.183 83C388.673 82.64 388.298 82.16 388.058 81.56C387.818 80.96 387.698 80.255 387.698 79.445C387.698 78.665 387.773 77.645 387.923 76.385C388.103 75.095 388.283 73.685 388.463 72.155C388.673 70.595 388.853 69.035 389.003 67.475C389.183 65.915 389.273 64.46 389.273 63.11C389.273 62.66 389.258 62.225 389.228 61.805C389.228 61.385 389.213 60.95 389.183 60.5H392.963C392.993 60.71 393.008 60.905 393.008 61.085C393.008 61.235 393.008 61.43 393.008 61.67C393.008 62.36 392.948 63.32 392.828 64.55C392.708 65.75 392.558 67.07 392.378 68.51C392.228 69.95 392.063 71.39 391.883 72.83C391.703 74.27 391.553 75.56 391.433 76.7C391.313 77.81 391.253 78.65 391.253 79.22C391.253 79.76 391.328 80.225 391.478 80.615C391.658 81.005 391.988 81.2 392.468 81.2C392.948 81.2 393.503 80.885 394.133 80.255C394.763 79.595 395.303 78.47 395.753 76.88L397.013 77.15C396.923 77.69 396.728 78.32 396.428 79.04C396.158 79.73 395.783 80.42 395.303 81.11C394.823 81.8 394.238 82.37 393.548 82.82C392.858 83.27 392.063 83.495 391.163 83.495ZM375.908 83.495C374.378 83.495 373.148 83.195 372.218 82.595C371.288 81.965 370.643 81.125 370.283 80.075C369.923 78.995 369.833 77.78 370.013 76.43C370.403 74 370.718 72.035 370.958 70.535C371.198 69.005 371.378 67.82 371.498 66.98C371.618 66.14 371.693 65.525 371.723 65.135C371.783 64.745 371.813 64.46 371.813 64.28C371.843 63.74 371.783 63.275 371.633 62.885C371.513 62.465 371.198 62.255 370.688 62.255C370.208 62.255 369.638 62.585 368.978 63.245C368.318 63.905 367.733 65.03 367.223 66.62L365.963 66.35C366.083 65.81 366.293 65.195 366.593 64.505C366.923 63.785 367.328 63.08 367.808 62.39C368.318 61.7 368.918 61.13 369.608 60.68C370.328 60.23 371.138 60.005 372.038 60.005C373.178 60.005 373.988 60.335 374.468 60.995C374.948 61.625 375.203 62.45 375.233 63.47C375.293 64.49 375.233 65.57 375.053 66.71L373.433 76.835C373.223 78.425 373.493 79.655 374.243 80.525C374.993 81.365 375.968 81.785 377.168 81.785C378.608 81.785 379.748 81.26 380.588 80.21C381.458 79.13 381.908 77.6 381.938 75.62C381.998 73.97 381.803 72.635 381.353 71.615C380.903 70.595 379.988 70.085 378.608 70.085C377.798 70.085 376.988 70.28 376.178 70.67C375.368 71.03 374.543 71.585 373.703 72.335L373.748 70.265C374.708 69.695 375.608 69.245 376.448 68.915C377.318 68.585 378.218 68.42 379.148 68.42C380.438 68.42 381.563 68.675 382.523 69.185C383.513 69.665 384.293 70.37 384.863 71.3C385.433 72.23 385.703 73.37 385.673 74.72C385.643 76.34 385.208 77.825 384.368 79.175C383.528 80.495 382.373 81.545 380.903 82.325C379.463 83.105 377.798 83.495 375.908 83.495ZM406.86 83.495C405.66 83.495 404.7 83.225 403.98 82.685C403.26 82.145 402.735 81.425 402.405 80.525C402.105 79.625 401.955 78.665 401.955 77.645C401.955 75.965 402.075 74.27 402.315 72.56C402.555 70.85 402.795 69.275 403.035 67.835C403.275 66.365 403.395 65.21 403.395 64.37C403.395 63.8 403.32 63.305 403.17 62.885C403.05 62.465 402.72 62.255 402.18 62.255C401.7 62.255 401.16 62.585 400.56 63.245C399.99 63.905 399.48 65.03 399.03 66.62L397.77 66.35C397.86 65.81 398.04 65.195 398.31 64.505C398.58 63.785 398.94 63.08 399.39 62.39C399.87 61.7 400.44 61.13 401.1 60.68C401.79 60.23 402.585 60.005 403.485 60.005C404.685 60.005 405.585 60.38 406.185 61.13C406.815 61.88 407.13 62.96 407.13 64.37C407.13 65.21 407.055 66.245 406.905 67.475C406.755 68.705 406.575 69.995 406.365 71.345C406.185 72.665 406.02 73.955 405.87 75.215C405.72 76.475 405.645 77.585 405.645 78.545C405.645 78.875 405.69 79.265 405.78 79.715C405.9 80.165 406.11 80.555 406.41 80.885C406.74 81.215 407.19 81.38 407.76 81.38C408.6 81.38 409.425 80.99 410.235 80.21C411.045 79.43 411.81 78.38 412.53 77.06C413.25 75.74 413.895 74.285 414.465 72.695C415.035 71.075 415.47 69.425 415.77 67.745C416.1 66.035 416.265 64.415 416.265 62.885C416.265 62.435 416.25 62.03 416.22 61.67C416.22 61.28 416.205 60.89 416.175 60.5H419.955C419.985 60.71 420 60.905 420 61.085C420 61.235 420 61.43 420 61.67C420 62.18 419.97 62.795 419.91 63.515C419.85 64.205 419.76 65.135 419.64 66.305C419.52 67.445 419.34 68.96 419.1 70.85C418.89 72.59 418.725 73.955 418.605 74.945C418.515 75.935 418.44 76.685 418.38 77.195C418.32 77.675 418.275 78.05 418.245 78.32C418.245 78.59 418.245 78.89 418.245 79.22C418.245 79.76 418.32 80.225 418.47 80.615C418.65 81.005 418.98 81.2 419.46 81.2C419.97 81.2 420.525 80.885 421.125 80.255C421.755 79.595 422.295 78.47 422.745 76.88L424.005 77.15C423.915 77.69 423.72 78.32 423.42 79.04C423.15 79.73 422.775 80.42 422.295 81.11C421.815 81.8 421.23 82.37 420.54 82.82C419.85 83.27 419.055 83.495 418.155 83.495C416.955 83.495 416.07 83.12 415.5 82.37C414.96 81.62 414.69 80.645 414.69 79.445C414.69 78.575 414.765 77.63 414.915 76.61C415.095 75.59 415.29 74.525 415.5 73.415H415.365C414.345 76.145 413.37 78.245 412.44 79.715C411.51 81.155 410.595 82.145 409.695 82.685C408.795 83.225 407.85 83.495 406.86 83.495ZM411 55.775C409.95 55.775 408.975 55.64 408.075 55.37C407.175 55.07 406.455 54.62 405.915 54.02C405.405 53.42 405.18 52.685 405.24 51.815C405.3 51.005 405.57 50.435 406.05 50.105C406.53 49.745 407.055 49.55 407.625 49.52C408.435 49.49 408.975 49.715 409.245 50.195C409.545 50.645 409.695 51.08 409.695 51.5C409.665 51.74 409.59 52.01 409.47 52.31C409.38 52.61 409.215 52.88 408.975 53.12C409.305 53.42 409.665 53.66 410.055 53.84C410.475 53.99 411.015 54.065 411.675 54.065C413.115 54.065 414.315 53.69 415.275 52.94C415.605 52.67 415.92 52.31 416.22 51.86C416.52 51.41 416.805 50.96 417.075 50.51L418.425 51.725C417.345 53.105 416.16 54.125 414.87 54.785C413.61 55.445 412.32 55.775 411 55.775ZM162.15 141.495L155.355 117.51C154.905 115.92 154.545 114.675 154.275 113.775C154.035 112.845 153.87 112.05 153.78 111.39C153.36 111.42 152.94 111.435 152.52 111.435C152.1 111.435 151.68 111.45 151.26 111.48L151.35 109.5H162.15L162.06 110.985C160.32 111.075 159.255 111.465 158.865 112.155C158.475 112.845 158.475 114.09 158.865 115.89L161.745 126.375C162.105 127.725 162.465 129.015 162.825 130.245C163.185 131.445 163.56 132.75 163.95 134.16H164.04C164.22 133.65 164.415 133.11 164.625 132.54C164.865 131.94 165.09 131.355 165.3 130.785C165.51 130.215 165.705 129.69 165.885 129.21C166.065 128.7 166.215 128.295 166.335 127.995L173.175 109.41H174.39L179.07 126.375C179.46 127.725 179.835 129.075 180.195 130.425C180.585 131.775 180.96 133.155 181.32 134.565H181.41C181.74 133.695 182.1 132.765 182.49 131.775C182.91 130.755 183.315 129.72 183.705 128.67C184.515 126.42 185.205 124.545 185.775 123.045C186.345 121.545 186.81 120.3 187.17 119.31C187.56 118.32 187.89 117.465 188.16 116.745C188.46 116.025 188.745 115.32 189.015 114.63C189.195 114.12 189.42 113.58 189.69 113.01C189.96 112.41 190.245 111.855 190.545 111.345C189.945 111.375 189.345 111.405 188.745 111.435C188.145 111.435 187.545 111.45 186.945 111.48L187.035 109.5H196.17L196.08 110.985C195.33 111.075 194.685 111.225 194.145 111.435C193.635 111.615 193.185 111.93 192.795 112.38C192.405 112.83 192 113.475 191.58 114.315C191.19 115.155 190.725 116.265 190.185 117.645L180.825 141.495H179.655L174.525 123.765C174.075 122.205 173.715 120.93 173.445 119.94C173.205 118.95 172.965 118.005 172.725 117.105H172.545C172.155 118.095 171.78 119.085 171.42 120.075C171.06 121.065 170.685 122.055 170.295 123.045L163.32 141.495H162.15ZM200.37 118.005C201.63 118.005 202.575 118.44 203.205 119.31C203.835 120.15 204.15 121.275 204.15 122.685C204.15 123.585 204.06 124.62 203.88 125.79C203.73 126.93 203.535 128.16 203.295 129.48C203.055 130.8 202.845 132.135 202.665 133.485C202.515 134.805 202.44 136.095 202.44 137.355C202.44 137.955 202.545 138.42 202.755 138.75C202.995 139.08 203.355 139.245 203.835 139.245C204.345 139.245 204.9 138.915 205.5 138.255C206.13 137.595 206.67 136.47 207.12 134.88L208.38 135.15C208.26 135.78 208.05 136.47 207.75 137.22C207.48 137.94 207.12 138.63 206.67 139.29C206.22 139.92 205.665 140.445 205.005 140.865C204.375 141.285 203.64 141.495 202.8 141.495C201.42 141.495 200.4 141.135 199.74 140.415C199.08 139.695 198.75 138.645 198.75 137.265C198.75 135.945 198.84 134.67 199.02 133.44C199.2 132.18 199.395 130.95 199.605 129.75C199.845 128.52 200.055 127.29 200.235 126.06C200.415 124.83 200.505 123.57 200.505 122.28C200.505 121.89 200.415 121.455 200.235 120.975C200.085 120.495 199.755 120.255 199.245 120.255C198.765 120.255 198.21 120.585 197.58 121.245C196.95 121.905 196.41 123.03 195.96 124.62L194.7 124.35C194.79 123.81 194.97 123.195 195.24 122.505C195.51 121.785 195.87 121.08 196.32 120.39C196.8 119.7 197.37 119.13 198.03 118.68C198.69 118.23 199.47 118.005 200.37 118.005ZM202.935 108.285C203.625 108.285 204.195 108.525 204.645 109.005C205.095 109.455 205.32 110.07 205.32 110.85C205.32 111.6 205.08 112.215 204.6 112.695C204.12 113.145 203.55 113.37 202.89 113.37C202.23 113.37 201.66 113.145 201.18 112.695C200.73 112.215 200.505 111.6 200.505 110.85C200.505 110.07 200.745 109.455 201.225 109.005C201.705 108.525 202.275 108.285 202.935 108.285ZM227.92 125.115L227.785 127.905L211.81 128.085L211.945 125.115H227.92ZM254.059 109.5L253.879 117.375H252.394C252.484 115.605 252.259 114.27 251.719 113.37C251.209 112.44 250.489 111.825 249.559 111.525C248.659 111.195 247.639 111.045 246.499 111.075L243.214 111.165C242.194 111.195 241.444 111.405 240.964 111.795C240.514 112.185 240.229 112.755 240.109 113.505C239.989 114.225 239.899 115.11 239.839 116.16L239.389 124.44H242.899C243.979 124.41 244.849 124.305 245.509 124.125C246.169 123.945 246.664 123.555 246.994 122.955C247.354 122.355 247.564 121.44 247.624 120.21H249.109L248.614 130.065H247.129C247.189 128.835 247.069 127.95 246.769 127.41C246.499 126.84 246.034 126.48 245.374 126.33C244.744 126.18 243.889 126.105 242.809 126.105C242.239 126.105 241.654 126.12 241.054 126.15C240.484 126.15 239.899 126.18 239.299 126.24L238.804 135.645C238.774 136.455 238.729 137.16 238.669 137.76C238.609 138.33 238.549 138.81 238.489 139.2C238.999 139.17 239.509 139.155 240.019 139.155C240.529 139.125 241.039 139.095 241.549 139.065C242.059 139.035 242.569 139.02 243.079 139.02L242.989 141H231.694L231.784 139.515C232.924 139.455 233.719 139.2 234.169 138.75C234.619 138.27 234.889 137.625 234.979 136.815C235.069 135.975 235.129 135.03 235.159 133.98L236.239 114.54C236.269 113.94 236.314 113.37 236.374 112.83C236.434 112.26 236.494 111.75 236.554 111.3C236.014 111.33 235.459 111.36 234.889 111.39C234.349 111.42 233.809 111.45 233.269 111.48L233.359 109.5H254.059ZM261.542 118.005C262.802 118.005 263.747 118.44 264.377 119.31C265.007 120.15 265.322 121.275 265.322 122.685C265.322 123.585 265.232 124.62 265.052 125.79C264.902 126.93 264.707 128.16 264.467 129.48C264.227 130.8 264.017 132.135 263.837 133.485C263.687 134.805 263.612 136.095 263.612 137.355C263.612 137.955 263.717 138.42 263.927 138.75C264.167 139.08 264.527 139.245 265.007 139.245C265.517 139.245 266.072 138.915 266.672 138.255C267.302 137.595 267.842 136.47 268.292 134.88L269.552 135.15C269.432 135.78 269.222 136.47 268.922 137.22C268.652 137.94 268.292 138.63 267.842 139.29C267.392 139.92 266.837 140.445 266.177 140.865C265.547 141.285 264.812 141.495 263.972 141.495C262.592 141.495 261.572 141.135 260.912 140.415C260.252 139.695 259.922 138.645 259.922 137.265C259.922 135.945 260.012 134.67 260.192 133.44C260.372 132.18 260.567 130.95 260.777 129.75C261.017 128.52 261.227 127.29 261.407 126.06C261.587 124.83 261.677 123.57 261.677 122.28C261.677 121.89 261.587 121.455 261.407 120.975C261.257 120.495 260.927 120.255 260.417 120.255C259.937 120.255 259.382 120.585 258.752 121.245C258.122 121.905 257.582 123.03 257.132 124.62L255.872 124.35C255.962 123.81 256.142 123.195 256.412 122.505C256.682 121.785 257.042 121.08 257.492 120.39C257.972 119.7 258.542 119.13 259.202 118.68C259.862 118.23 260.642 118.005 261.542 118.005ZM264.107 108.285C264.797 108.285 265.367 108.525 265.817 109.005C266.267 109.455 266.492 110.07 266.492 110.85C266.492 111.6 266.252 112.215 265.772 112.695C265.292 113.145 264.722 113.37 264.062 113.37C263.402 113.37 262.832 113.145 262.352 112.695C261.902 112.215 261.677 111.6 261.677 110.85C261.677 110.07 261.917 109.455 262.397 109.005C262.877 108.525 263.447 108.285 264.107 108.285Z" fill="#333333"/>
<g clip-path="url(#clip0_14_164)">
<path d="M37.151 83.0435C32.1055 83.0435 28.0009 87.1482 28.0009 92.1936C28.0009 97.2389 32.1057 101.344 37.151 101.344C53.9709 101.344 67.6552 115.028 67.6552 131.848C67.6552 136.894 71.76 141 76.8053 141C81.8517 141 85.9572 136.894 85.9572 131.848C85.9574 104.937 64.063 83.0435 37.151 83.0435ZM76.8055 137.428C73.7295 137.428 71.2268 134.925 71.2268 131.848C71.2268 113.059 55.9404 97.7723 37.1512 97.7723C34.0751 97.7723 31.5725 95.2698 31.5725 92.1936C31.5725 89.1175 34.075 86.6149 37.1512 86.6149C62.0937 86.6149 82.386 106.906 82.386 131.848C82.3858 134.925 79.8824 137.428 76.8055 137.428Z" fill="#333333"/>
<path d="M95.0256 73.9735C79.5662 58.5138 59.0125 50 37.151 50C32.1057 50 28.0009 54.1057 28.0009 59.1519C28.0009 64.1974 32.1057 68.302 37.151 68.302C72.1903 68.302 100.697 96.8087 100.697 131.848C100.697 136.894 104.803 141 109.849 141C114.894 141 118.999 136.894 118.999 131.848C118.999 109.985 110.485 89.4311 95.0256 73.9735ZM109.849 137.428C106.772 137.428 104.268 134.925 104.268 131.848C104.268 94.8392 74.1599 64.7304 37.151 64.7304C34.075 64.7306 31.5725 62.2281 31.5725 59.1519C31.5725 56.0748 34.075 53.5714 37.1512 53.5714C58.0588 53.5714 77.7153 61.7139 92.5003 76.4988C107.285 91.282 115.428 110.939 115.428 131.848C115.428 134.925 112.925 137.428 109.849 137.428Z" fill="#333333"/>
<path d="M69.7622 64.9398C63.0535 61.6567 55.9123 59.4156 48.537 58.2789C47.5627 58.1283 46.6504 58.7971 46.5 59.7718C46.3498 60.7463 47.0183 61.6583 47.993 61.8085C55.0117 62.8905 61.8079 65.0232 68.1925 68.1477C68.4452 68.2713 68.7127 68.3301 68.9761 68.3301C69.6366 68.3301 70.2715 67.962 70.5812 67.3289C71.0147 66.4427 70.6481 65.3731 69.7622 64.9398Z" fill="#333333"/>
<path d="M44.1905 115.66C39.1441 115.66 35.0386 119.766 35.0386 124.812C35.0386 129.858 39.1443 133.962 44.1905 133.962C49.2361 133.962 53.3407 129.858 53.3407 124.812C53.3407 119.766 49.2359 115.66 44.1905 115.66ZM44.1905 130.391C41.1136 130.391 38.61 127.888 38.61 124.812C38.61 121.735 41.1134 119.232 44.1905 119.232C47.2666 119.232 49.7693 121.735 49.7693 124.812C49.7693 127.888 47.2666 130.391 44.1905 130.391Z" fill="#333333"/>
<path d="M74.6089 68.1414C72.3108 68.1414 72.3071 71.7129 74.6089 71.7129C76.907 71.7129 76.9107 68.1414 74.6089 68.1414Z" fill="#333333"/>
</g>
</g>
<defs>
<filter id="filter0_d_14_164" x="0" y="0" width="575.1" height="216.1" filterUnits="userSpaceOnUse" color-interpolation-filters="sRGB">
<feFlood flood-opacity="0" result="BackgroundImageFix"/>
<feColorMatrix in="SourceAlpha" type="matrix" values="0 0 0 0 0 0 0 0 0 0 0 0 0 0 0 0 0 0 127 0" result="hardAlpha"/>
<feOffset dx="10" dy="14"/>
<feGaussianBlur stdDeviation="3.55"/>
<feComposite in2="hardAlpha" operator="out"/>
<feColorMatrix type="matrix" values="0 0 0 0 0 0 0 0 0 0 0 0 0 0 0 0 0 0 0.25 0"/>
<feBlend mode="normal" in2="BackgroundImageFix" result="effect1_dropShadow_14_164"/>
<feBlend mode="normal" in="SourceGraphic" in2="effect1_dropShadow_14_164" result="shape"/>
</filter>
<clipPath id="clip0_14_164">
<rect width="91" height="91" fill="white" transform="translate(28 50)"/>
</clipPath>
</defs>
</svg>
