<svg width="576" height="217" viewBox="0 0 576 217" fill="none" xmlns="http://www.w3.org/2000/svg">
<g filter="url(#filter0_d_14_165)">
<rect x="1" y="1" width="556" height="193" rx="14" fill="#D5B68A" stroke="#333333" stroke-width="2"/>
<path d="M173.83 79.765C172.9 79.765 172.075 79.555 171.355 79.135C170.665 78.715 170.32 78.01 170.32 77.02C170.32 76.24 170.545 75.64 170.995 75.22C171.445 74.77 172.015 74.53 172.705 74.5C173.425 74.47 173.935 74.665 174.235 75.085C174.565 75.505 174.715 75.955 174.685 76.435C174.655 76.885 174.505 77.26 174.235 77.56C174.325 77.62 174.4 77.665 174.46 77.695C174.55 77.725 174.7 77.74 174.91 77.74C175.42 77.74 175.9 77.47 176.35 76.93C176.8 76.39 177.25 75.685 177.7 74.815C178.15 73.915 178.6 72.985 179.05 72.025L171.085 54.43C170.575 53.23 170.2 52.24 169.96 51.46C169.75 50.65 169.615 49.96 169.555 49.39L166.765 49.48L166.855 47.5H177.7L177.61 48.985C176.35 48.985 175.465 49.195 174.955 49.615C174.475 50.035 174.265 50.62 174.325 51.37C174.385 52.09 174.61 52.93 175 53.89L178.96 63.295C179.29 64.045 179.62 64.81 179.95 65.59C180.28 66.34 180.595 67.105 180.895 67.885H180.985L187.06 54.16C187.39 53.26 187.765 52.33 188.185 51.37C188.635 50.41 189.025 49.735 189.355 49.345L185.8 49.48L185.89 47.5H195.07L195.025 48.985C193.915 49.045 193.03 49.3 192.37 49.75C191.74 50.17 191.185 50.8 190.705 51.64C190.255 52.45 189.745 53.47 189.175 54.7L180.985 72.295C180.205 73.945 179.47 75.325 178.78 76.435C178.09 77.545 177.355 78.385 176.575 78.955C175.795 79.495 174.88 79.765 173.83 79.765ZM197.875 79C197.845 78.79 197.83 78.61 197.83 78.46C197.83 78.28 197.83 78.07 197.83 77.83C197.83 77.32 197.86 76.735 197.92 76.075C197.98 75.385 198.07 74.485 198.19 73.375C198.34 72.235 198.52 70.72 198.73 68.83C198.94 67.06 199.09 65.68 199.18 64.69C199.3 63.7 199.39 62.95 199.45 62.44C199.51 61.9 199.54 61.495 199.54 61.225C199.57 60.925 199.585 60.61 199.585 60.28C199.585 59.74 199.51 59.275 199.36 58.885C199.21 58.465 198.88 58.255 198.37 58.255C197.89 58.255 197.335 58.585 196.705 59.245C196.075 59.905 195.535 61.03 195.085 62.62L193.825 62.35C193.915 61.81 194.095 61.195 194.365 60.505C194.665 59.785 195.055 59.08 195.535 58.39C196.015 57.7 196.6 57.13 197.29 56.68C197.98 56.23 198.775 56.005 199.675 56.005C200.815 56.005 201.625 56.335 202.105 56.995C202.585 57.625 202.855 58.45 202.915 59.47C203.005 60.49 202.99 61.57 202.87 62.71C202.75 63.82 202.63 64.945 202.51 66.085C202.42 67.195 202.315 68.32 202.195 69.46C202.105 70.57 202 71.68 201.88 72.79C201.79 73.9 201.685 75.025 201.565 76.165C201.505 76.735 201.49 77.245 201.52 77.695C201.55 78.145 201.595 78.58 201.655 79H197.875ZM214.255 79.495C212.515 79.495 211.045 79.045 209.845 78.145C208.675 77.245 207.79 76.03 207.19 74.5C206.59 72.97 206.29 71.275 206.29 69.415C206.29 66.985 206.725 64.75 207.595 62.71C208.465 60.67 209.68 59.05 211.24 57.85C212.83 56.62 214.66 56.005 216.73 56.005C218.14 56.005 219.43 56.395 220.6 57.175C221.8 57.925 222.76 59.035 223.48 60.505C224.23 61.975 224.605 63.76 224.605 65.86C224.605 67.66 224.365 69.385 223.885 71.035C223.405 72.685 222.715 74.14 221.815 75.4C220.915 76.66 219.82 77.665 218.53 78.415C217.27 79.135 215.845 79.495 214.255 79.495ZM214.66 77.785C215.71 77.815 216.61 77.5 217.36 76.84C218.11 76.18 218.725 75.31 219.205 74.23C219.685 73.12 220.045 71.95 220.285 70.72C220.525 69.49 220.66 68.335 220.69 67.255C220.69 66.205 220.615 65.125 220.465 64.015C220.345 62.875 220.12 61.84 219.79 60.91C219.46 59.95 218.98 59.17 218.35 58.57C217.75 57.97 216.985 57.67 216.055 57.67C214.945 57.64 213.955 58.09 213.085 59.02C212.215 59.92 211.525 61.15 211.015 62.71C210.535 64.27 210.265 66.01 210.205 67.93C210.205 68.95 210.265 70.03 210.385 71.17C210.535 72.31 210.775 73.375 211.105 74.365C211.465 75.355 211.93 76.165 212.5 76.795C213.07 77.425 213.79 77.755 214.66 77.785ZM201.385 69.28L201.565 67.48H207.19L207.055 69.19L201.385 69.28ZM259.63 79.495C258.22 79.495 257.26 79.12 256.75 78.37C256.27 77.62 256.03 76.555 256.03 75.175C256.03 74.335 256.105 73.345 256.255 72.205C256.435 71.065 256.63 69.85 256.84 68.56C257.05 67.27 257.23 65.965 257.38 64.645C257.56 63.325 257.65 62.065 257.65 60.865C257.65 60.505 257.59 60.115 257.47 59.695C257.35 59.275 257.14 58.915 256.84 58.615C256.54 58.285 256.09 58.12 255.49 58.12C254.65 58.12 253.825 58.51 253.015 59.29C252.205 60.07 251.455 61.12 250.765 62.44C250.075 63.76 249.46 65.23 248.92 66.85C248.41 68.44 248.005 70.09 247.705 71.8C247.405 73.48 247.255 75.085 247.255 76.615C247.255 77.065 247.255 77.485 247.255 77.875C247.285 78.235 247.315 78.61 247.345 79H243.565C243.535 78.79 243.52 78.61 243.52 78.46C243.52 78.28 243.52 78.07 243.52 77.83C243.52 76.69 243.595 75.34 243.745 73.78C243.925 72.22 244.12 70.615 244.33 68.965C244.57 67.315 244.765 65.755 244.915 64.285C245.095 62.815 245.17 61.615 245.14 60.685C245.11 60.175 244.96 59.62 244.69 59.02C244.42 58.42 243.85 58.12 242.98 58.12C242.14 58.12 241.315 58.51 240.505 59.29C239.725 60.07 238.99 61.12 238.3 62.44C237.61 63.76 236.995 65.23 236.455 66.85C235.915 68.44 235.495 70.09 235.195 71.8C234.895 73.48 234.745 75.085 234.745 76.615C234.745 77.065 234.745 77.485 234.745 77.875C234.775 78.235 234.805 78.61 234.835 79H231.055C231.025 78.79 231.01 78.61 231.01 78.46C231.01 78.28 231.01 78.07 231.01 77.83C231.01 77.32 231.025 76.735 231.055 76.075C231.115 75.385 231.205 74.485 231.325 73.375C231.475 72.235 231.655 70.72 231.865 68.83C232.075 67.06 232.24 65.68 232.36 64.69C232.48 63.7 232.57 62.95 232.63 62.44C232.69 61.9 232.72 61.495 232.72 61.225C232.75 60.925 232.765 60.61 232.765 60.28C232.765 59.74 232.69 59.275 232.54 58.885C232.39 58.465 232.06 58.255 231.55 58.255C231.07 58.255 230.515 58.585 229.885 59.245C229.255 59.905 228.715 61.03 228.265 62.62L227.005 62.35C227.095 61.81 227.275 61.195 227.545 60.505C227.845 59.785 228.235 59.08 228.715 58.39C229.195 57.7 229.78 57.13 230.47 56.68C231.16 56.23 231.955 56.005 232.855 56.005C233.845 56.005 234.58 56.26 235.06 56.77C235.54 57.25 235.855 57.895 236.005 58.705C236.185 59.485 236.245 60.34 236.185 61.27C236.155 62.11 236.065 62.965 235.915 63.835C235.765 64.675 235.63 65.41 235.51 66.04H235.645C236.605 63.31 237.55 61.225 238.48 59.785C239.44 58.345 240.37 57.355 241.27 56.815C242.2 56.275 243.07 56.005 243.88 56.005C245.08 56.005 246.025 56.29 246.715 56.86C247.435 57.4 247.945 58.06 248.245 58.84C248.545 59.62 248.695 60.385 248.695 61.135C248.695 61.975 248.635 62.695 248.515 63.295C248.395 63.895 248.2 64.765 247.93 65.905H248.065C249.055 63.175 250.03 61.105 250.99 59.695C251.98 58.255 252.94 57.28 253.87 56.77C254.8 56.26 255.67 56.005 256.48 56.005C257.68 56.005 258.625 56.275 259.315 56.815C260.005 57.355 260.485 58.075 260.755 58.975C261.055 59.845 261.205 60.805 261.205 61.855C261.205 63.505 261.085 65.2 260.845 66.94C260.605 68.65 260.35 70.24 260.08 71.71C259.84 73.15 259.72 74.305 259.72 75.175C259.72 75.715 259.78 76.195 259.9 76.615C260.05 77.035 260.395 77.245 260.935 77.245C261.445 77.245 262.015 76.93 262.645 76.3C263.275 75.64 263.815 74.5 264.265 72.88L265.525 73.195C265.435 73.705 265.24 74.32 264.94 75.04C264.64 75.76 264.25 76.465 263.77 77.155C263.29 77.815 262.705 78.37 262.015 78.82C261.325 79.27 260.53 79.495 259.63 79.495ZM286.493 79.495C285.683 79.495 285.023 79.33 284.513 79C284.003 78.64 283.628 78.16 283.388 77.56C283.148 76.96 283.028 76.255 283.028 75.445C283.028 74.755 283.088 73.87 283.208 72.79C283.358 71.68 283.508 70.48 283.658 69.19L274.973 69.28C274.853 70.42 274.718 71.575 274.568 72.745C274.448 73.885 274.313 75.025 274.163 76.165C274.103 76.735 274.073 77.245 274.073 77.695C274.103 78.145 274.148 78.58 274.208 79H270.428C270.398 78.79 270.383 78.61 270.383 78.46C270.383 78.28 270.383 78.07 270.383 77.83C270.413 77.32 270.458 76.735 270.518 76.075C270.578 75.385 270.683 74.485 270.833 73.375C271.013 72.235 271.223 70.72 271.463 68.83C271.703 67.06 271.883 65.68 272.003 64.69C272.153 63.7 272.258 62.95 272.318 62.44C272.408 61.9 272.468 61.495 272.498 61.225C272.528 60.925 272.543 60.61 272.543 60.28C272.573 59.74 272.498 59.275 272.318 58.885C272.138 58.465 271.793 58.255 271.283 58.255C270.803 58.255 270.248 58.585 269.618 59.245C268.988 59.905 268.418 61.03 267.908 62.62L266.648 62.35C266.768 61.81 266.978 61.195 267.278 60.505C267.578 59.785 267.968 59.08 268.448 58.39C268.958 57.7 269.558 57.13 270.248 56.68C270.938 56.23 271.733 56.005 272.633 56.005C273.773 56.005 274.583 56.335 275.063 56.995C275.543 57.625 275.813 58.45 275.873 59.47C275.933 60.49 275.888 61.57 275.738 62.71C275.648 63.49 275.558 64.285 275.468 65.095C275.378 65.905 275.288 66.7 275.198 67.48H283.883C284.063 66.04 284.213 64.75 284.333 63.61C284.453 62.47 284.528 61.345 284.558 60.235C284.618 59.125 284.603 57.88 284.513 56.5H288.293C288.323 56.71 288.338 56.905 288.338 57.085C288.338 57.235 288.338 57.43 288.338 57.67C288.338 58.36 288.278 59.32 288.158 60.55C288.038 61.75 287.888 63.07 287.708 64.51C287.558 65.95 287.393 67.39 287.213 68.83C287.033 70.27 286.883 71.56 286.763 72.7C286.643 73.81 286.583 74.65 286.583 75.22C286.583 75.76 286.658 76.225 286.808 76.615C286.988 77.005 287.318 77.2 287.798 77.2C288.308 77.2 288.863 76.885 289.463 76.255C290.093 75.595 290.633 74.47 291.083 72.88L292.343 73.15C292.253 73.69 292.058 74.32 291.758 75.04C291.488 75.73 291.113 76.42 290.633 77.11C290.153 77.8 289.568 78.37 288.878 78.82C288.188 79.27 287.393 79.495 286.493 79.495ZM307.631 56.005C308.531 56.005 309.521 56.08 310.601 56.23C311.681 56.35 312.701 56.53 313.661 56.77C313.421 58.57 313.181 60.37 312.941 62.17C312.731 63.94 312.521 65.635 312.311 67.255C312.131 68.845 311.981 70.285 311.861 71.575C311.741 72.835 311.681 73.825 311.681 74.545C311.681 75.145 311.726 75.745 311.816 76.345C311.906 76.945 312.281 77.245 312.941 77.245C313.451 77.245 314.006 76.915 314.606 76.255C315.236 75.595 315.776 74.47 316.226 72.88L317.486 73.15C317.396 73.69 317.201 74.32 316.901 75.04C316.631 75.73 316.256 76.42 315.776 77.11C315.296 77.8 314.711 78.37 314.021 78.82C313.331 79.27 312.536 79.495 311.636 79.495C310.436 79.495 309.581 79.12 309.071 78.37C308.561 77.62 308.306 76.645 308.306 75.445C308.306 74.575 308.381 73.63 308.531 72.61C308.711 71.59 308.906 70.525 309.116 69.415H308.981C308.261 71.635 307.511 73.42 306.731 74.77C305.981 76.09 305.216 77.095 304.436 77.785C303.686 78.475 302.951 78.925 302.231 79.135C301.511 79.375 300.836 79.495 300.206 79.495C298.586 79.495 297.221 78.895 296.111 77.695C295.031 76.495 294.491 74.485 294.491 71.665C294.491 69.565 294.761 67.57 295.301 65.68C295.841 63.79 296.651 62.125 297.731 60.685C298.841 59.215 300.221 58.075 301.871 57.265C303.521 56.425 305.441 56.005 307.631 56.005ZM306.236 57.625C304.886 57.625 303.701 58 302.681 58.75C301.691 59.5 300.866 60.52 300.206 61.81C299.546 63.07 299.051 64.495 298.721 66.085C298.421 67.645 298.271 69.25 298.271 70.9C298.271 72.82 298.481 74.41 298.901 75.67C299.321 76.9 300.086 77.515 301.196 77.515C302.006 77.515 302.816 77.11 303.626 76.3C304.466 75.49 305.246 74.41 305.966 73.06C306.686 71.68 307.331 70.15 307.901 68.47C308.471 66.76 308.921 65.02 309.251 63.25C309.581 61.48 309.746 59.785 309.746 58.165C309.296 57.985 308.771 57.85 308.171 57.76C307.571 57.67 306.926 57.625 306.236 57.625ZM336.155 79.495C334.475 79.495 333.47 78.91 333.14 77.74C332.81 76.54 332.81 74.875 333.14 72.745C333.59 70.045 333.935 67.885 334.175 66.265C334.445 64.615 334.64 63.325 334.76 62.395C334.91 61.435 335.015 60.685 335.075 60.145C335.135 59.605 335.18 59.095 335.21 58.615C334.19 58.255 333.215 58.075 332.285 58.075C330.785 58.075 329.54 58.555 328.55 59.515C327.56 60.475 327.035 61.915 326.975 63.835C326.945 65.215 327.245 66.385 327.875 67.345C328.505 68.275 329.51 68.74 330.89 68.74C331.4 68.74 331.91 68.71 332.42 68.65C332.96 68.56 333.59 68.425 334.31 68.245L334.22 69.955C333.29 70.105 332.39 70.225 331.52 70.315C330.65 70.375 329.81 70.405 329 70.405V69.865C327.41 69.625 326.045 68.965 324.905 67.885C323.765 66.775 323.24 65.26 323.33 63.34C323.39 62.08 323.675 61 324.185 60.1C324.725 59.17 325.43 58.42 326.3 57.85C327.2 57.28 328.19 56.86 329.27 56.59C330.35 56.29 331.46 56.14 332.6 56.14C333.38 56.14 334.085 56.155 334.715 56.185C335.345 56.215 335.975 56.275 336.605 56.365C337.265 56.425 337.97 56.515 338.72 56.635C338.54 58.195 338.345 59.755 338.135 61.315C337.955 62.845 337.76 64.39 337.55 65.95C337.34 67.48 337.13 69.025 336.92 70.585C336.74 72.115 336.56 73.66 336.38 75.22C336.32 75.85 336.365 76.345 336.515 76.705C336.665 77.035 336.995 77.2 337.505 77.2C338.015 77.2 338.585 76.885 339.215 76.255C339.875 75.595 340.46 74.47 340.97 72.88L342.23 73.15C341.99 74.17 341.615 75.175 341.105 76.165C340.625 77.125 339.98 77.92 339.17 78.55C338.36 79.18 337.355 79.495 336.155 79.495ZM321.98 79.495C321.05 79.495 320.285 79.255 319.685 78.775C319.085 78.265 318.62 77.62 318.29 76.84C317.96 76.06 317.75 75.25 317.66 74.41L318.92 74.14C319.07 75.25 319.385 76.015 319.865 76.435C320.375 76.855 320.855 77.02 321.305 76.93C321.605 76.87 321.86 76.75 322.07 76.57C322.28 76.39 322.52 76.03 322.79 75.49C323.06 74.95 323.42 74.14 323.87 73.06C324.2 72.22 324.575 71.515 324.995 70.945C325.445 70.345 326.045 69.925 326.795 69.685C327.575 69.445 328.64 69.43 329.99 69.64L329.81 70.405C329.36 70.405 328.97 70.54 328.64 70.81C328.31 71.05 328.01 71.47 327.74 72.07C327.47 72.67 327.17 73.495 326.84 74.545C326.39 75.925 325.925 76.975 325.445 77.695C324.995 78.385 324.5 78.85 323.96 79.09C323.42 79.36 322.76 79.495 321.98 79.495ZM180.805 114.005C181.705 114.005 182.695 114.08 183.775 114.23C184.855 114.35 185.875 114.53 186.835 114.77C186.595 116.57 186.355 118.37 186.115 120.17C185.905 121.94 185.695 123.635 185.485 125.255C185.305 126.845 185.155 128.285 185.035 129.575C184.915 130.835 184.855 131.825 184.855 132.545C184.855 133.145 184.9 133.745 184.99 134.345C185.08 134.945 185.455 135.245 186.115 135.245C186.625 135.245 187.18 134.915 187.78 134.255C188.41 133.595 188.95 132.47 189.4 130.88L190.66 131.15C190.57 131.69 190.375 132.32 190.075 133.04C189.805 133.73 189.43 134.42 188.95 135.11C188.47 135.8 187.885 136.37 187.195 136.82C186.505 137.27 185.71 137.495 184.81 137.495C183.61 137.495 182.755 137.12 182.245 136.37C181.735 135.62 181.48 134.645 181.48 133.445C181.48 132.575 181.555 131.63 181.705 130.61C181.885 129.59 182.08 128.525 182.29 127.415H182.155C181.435 129.635 180.685 131.42 179.905 132.77C179.155 134.09 178.39 135.095 177.61 135.785C176.86 136.475 176.125 136.925 175.405 137.135C174.685 137.375 174.01 137.495 173.38 137.495C171.76 137.495 170.395 136.895 169.285 135.695C168.205 134.495 167.665 132.485 167.665 129.665C167.665 127.565 167.935 125.57 168.475 123.68C169.015 121.79 169.825 120.125 170.905 118.685C172.015 117.215 173.395 116.075 175.045 115.265C176.695 114.425 178.615 114.005 180.805 114.005ZM179.41 115.625C178.06 115.625 176.875 116 175.855 116.75C174.865 117.5 174.04 118.52 173.38 119.81C172.72 121.07 172.225 122.495 171.895 124.085C171.595 125.645 171.445 127.25 171.445 128.9C171.445 130.82 171.655 132.41 172.075 133.67C172.495 134.9 173.26 135.515 174.37 135.515C175.18 135.515 175.99 135.11 176.8 134.3C177.64 133.49 178.42 132.41 179.14 131.06C179.86 129.68 180.505 128.15 181.075 126.47C181.645 124.76 182.095 123.02 182.425 121.25C182.755 119.48 182.92 117.785 182.92 116.165C182.47 115.985 181.945 115.85 181.345 115.76C180.745 115.67 180.1 115.625 179.41 115.625ZM223.638 137.495C222.228 137.495 221.268 137.12 220.758 136.37C220.278 135.62 220.038 134.555 220.038 133.175C220.038 132.335 220.113 131.345 220.263 130.205C220.443 129.065 220.638 127.85 220.848 126.56C221.058 125.27 221.238 123.965 221.388 122.645C221.568 121.325 221.658 120.065 221.658 118.865C221.658 118.505 221.598 118.115 221.478 117.695C221.358 117.275 221.148 116.915 220.848 116.615C220.548 116.285 220.098 116.12 219.498 116.12C218.658 116.12 217.833 116.51 217.023 117.29C216.213 118.07 215.463 119.12 214.773 120.44C214.083 121.76 213.468 123.23 212.928 124.85C212.418 126.44 212.013 128.09 211.713 129.8C211.413 131.48 211.263 133.085 211.263 134.615C211.263 135.065 211.263 135.485 211.263 135.875C211.293 136.235 211.323 136.61 211.353 137H207.573C207.543 136.79 207.528 136.61 207.528 136.46C207.528 136.28 207.528 136.07 207.528 135.83C207.528 134.69 207.603 133.34 207.753 131.78C207.933 130.22 208.128 128.615 208.338 126.965C208.578 125.315 208.773 123.755 208.923 122.285C209.103 120.815 209.178 119.615 209.148 118.685C209.118 118.175 208.968 117.62 208.698 117.02C208.428 116.42 207.858 116.12 206.988 116.12C206.148 116.12 205.323 116.51 204.513 117.29C203.733 118.07 202.998 119.12 202.308 120.44C201.618 121.76 201.003 123.23 200.463 124.85C199.923 126.44 199.503 128.09 199.203 129.8C198.903 131.48 198.753 133.085 198.753 134.615C198.753 135.065 198.753 135.485 198.753 135.875C198.783 136.235 198.813 136.61 198.843 137H195.063C195.033 136.79 195.018 136.61 195.018 136.46C195.018 136.28 195.018 136.07 195.018 135.83C195.018 135.32 195.033 134.735 195.063 134.075C195.123 133.385 195.213 132.485 195.333 131.375C195.483 130.235 195.663 128.72 195.873 126.83C196.083 125.06 196.248 123.68 196.368 122.69C196.488 121.7 196.578 120.95 196.638 120.44C196.698 119.9 196.728 119.495 196.728 119.225C196.758 118.925 196.773 118.61 196.773 118.28C196.773 117.74 196.698 117.275 196.548 116.885C196.398 116.465 196.068 116.255 195.558 116.255C195.078 116.255 194.523 116.585 193.893 117.245C193.263 117.905 192.723 119.03 192.273 120.62L191.013 120.35C191.103 119.81 191.283 119.195 191.553 118.505C191.853 117.785 192.243 117.08 192.723 116.39C193.203 115.7 193.788 115.13 194.478 114.68C195.168 114.23 195.963 114.005 196.863 114.005C197.853 114.005 198.588 114.26 199.068 114.77C199.548 115.25 199.863 115.895 200.013 116.705C200.193 117.485 200.253 118.34 200.193 119.27C200.163 120.11 200.073 120.965 199.923 121.835C199.773 122.675 199.638 123.41 199.518 124.04H199.653C200.613 121.31 201.558 119.225 202.488 117.785C203.448 116.345 204.378 115.355 205.278 114.815C206.208 114.275 207.078 114.005 207.888 114.005C209.088 114.005 210.033 114.29 210.723 114.86C211.443 115.4 211.953 116.06 212.253 116.84C212.553 117.62 212.703 118.385 212.703 119.135C212.703 119.975 212.643 120.695 212.523 121.295C212.403 121.895 212.208 122.765 211.938 123.905H212.073C213.063 121.175 214.038 119.105 214.998 117.695C215.988 116.255 216.948 115.28 217.878 114.77C218.808 114.26 219.678 114.005 220.488 114.005C221.688 114.005 222.633 114.275 223.323 114.815C224.013 115.355 224.493 116.075 224.763 116.975C225.063 117.845 225.213 118.805 225.213 119.855C225.213 121.505 225.093 123.2 224.853 124.94C224.613 126.65 224.358 128.24 224.088 129.71C223.848 131.15 223.728 132.305 223.728 133.175C223.728 133.715 223.788 134.195 223.908 134.615C224.058 135.035 224.403 135.245 224.943 135.245C225.453 135.245 226.023 134.93 226.653 134.3C227.283 133.64 227.823 132.5 228.273 130.88L229.533 131.195C229.443 131.705 229.248 132.32 228.948 133.04C228.648 133.76 228.258 134.465 227.778 135.155C227.298 135.815 226.713 136.37 226.023 136.82C225.333 137.27 224.538 137.495 223.638 137.495ZM232.817 137.45C231.977 137.45 231.272 137.21 230.702 136.73C230.162 136.25 229.892 135.68 229.892 135.02C229.892 134.45 230.087 133.955 230.477 133.535C230.867 133.085 231.362 132.86 231.962 132.86C232.442 132.86 232.877 133.025 233.267 133.355C233.687 133.685 233.897 134.105 233.897 134.615C233.897 134.765 233.882 134.9 233.852 135.02C233.852 135.11 233.837 135.2 233.807 135.29C234.317 135.32 234.857 134.99 235.427 134.3C235.997 133.61 236.597 132.515 237.227 131.015C237.887 129.515 238.592 127.55 239.342 125.12C240.122 122.66 240.947 119.705 241.817 116.255L237.767 116.3L237.947 114.5H246.857C246.917 114.74 246.947 114.995 246.947 115.265C246.977 115.505 246.992 115.76 246.992 116.03C246.992 118.82 246.947 121.58 246.857 124.31C246.797 127.01 246.827 129.74 246.947 132.5C247.007 133.49 247.067 134.18 247.127 134.57C247.187 134.93 247.367 135.11 247.667 135.11C248.027 135.11 248.582 134.45 249.332 133.13C250.112 131.78 251.117 129.605 252.347 126.605C253.577 123.575 255.047 119.54 256.757 114.5H260.897C260.927 114.71 260.942 114.905 260.942 115.085C260.942 115.235 260.942 115.43 260.942 115.67C260.942 116.36 260.867 117.32 260.717 118.55C260.597 119.75 260.432 121.07 260.222 122.51C260.042 123.95 259.847 125.39 259.637 126.83C259.457 128.27 259.292 129.56 259.142 130.7C259.022 131.81 258.962 132.65 258.962 133.22C258.962 133.76 259.037 134.225 259.187 134.615C259.337 135.005 259.637 135.2 260.087 135.2C260.597 135.2 261.167 134.885 261.797 134.255C262.457 133.595 263.012 132.47 263.462 130.88L264.722 131.15C264.632 131.69 264.437 132.32 264.137 133.04C263.867 133.73 263.477 134.42 262.967 135.11C262.487 135.8 261.887 136.37 261.167 136.82C260.477 137.27 259.667 137.495 258.737 137.495C257.957 137.495 257.312 137.33 256.802 137C256.322 136.64 255.962 136.16 255.722 135.56C255.512 134.96 255.407 134.255 255.407 133.445C255.407 132.665 255.497 131.645 255.677 130.385C255.857 129.125 256.082 127.76 256.352 126.29C256.622 124.79 256.892 123.305 257.162 121.835C257.432 120.335 257.642 118.97 257.792 117.74H257.522C256.172 121.52 254.987 124.685 253.967 127.235C252.977 129.785 252.077 131.81 251.267 133.31C250.457 134.81 249.662 135.89 248.882 136.55C248.102 137.18 247.247 137.495 246.317 137.495C245.237 137.495 244.472 137.09 244.022 136.28C243.602 135.47 243.392 134.075 243.392 132.095C243.392 131.015 243.392 129.8 243.392 128.45C243.422 127.1 243.452 125.735 243.482 124.355C243.512 122.945 243.557 121.655 243.617 120.485C243.677 119.315 243.767 118.4 243.887 117.74H243.527C242.537 121.16 241.652 124.115 240.872 126.605C240.122 129.095 239.372 131.135 238.622 132.725C237.872 134.315 237.032 135.5 236.102 136.28C235.202 137.06 234.107 137.45 232.817 137.45ZM278.099 114.005C279.719 114.005 281.174 114.395 282.464 115.175C283.754 115.925 284.774 117.035 285.524 118.505C286.274 119.975 286.649 121.76 286.649 123.86C286.649 126.26 286.214 128.51 285.344 130.61C284.474 132.68 283.214 134.345 281.564 135.605C279.944 136.865 277.964 137.495 275.624 137.495C273.644 137.495 272.009 137.045 270.719 136.145C269.459 135.245 268.514 134.03 267.884 132.5C267.284 130.97 266.984 129.275 266.984 127.415C266.984 124.985 267.419 122.75 268.289 120.71C269.189 118.67 270.464 117.05 272.114 115.85C273.794 114.62 275.789 114.005 278.099 114.005ZM277.424 115.67C276.104 115.64 274.964 116.09 274.004 117.02C273.044 117.92 272.294 119.15 271.754 120.71C271.244 122.27 270.974 124.01 270.944 125.93C270.914 126.95 270.974 128.03 271.124 129.17C271.274 130.31 271.529 131.375 271.889 132.365C272.279 133.355 272.804 134.165 273.464 134.795C274.154 135.425 275.009 135.755 276.029 135.785C277.229 135.815 278.249 135.5 279.089 134.84C279.929 134.15 280.604 133.265 281.114 132.185C281.624 131.105 281.999 129.95 282.239 128.72C282.509 127.49 282.659 126.335 282.689 125.255C282.719 124.205 282.659 123.125 282.509 122.015C282.389 120.905 282.134 119.87 281.744 118.91C281.354 117.95 280.814 117.185 280.124 116.615C279.434 116.015 278.534 115.7 277.424 115.67ZM301.205 114.005C302.495 114.005 303.65 114.245 304.67 114.725C305.69 115.175 306.485 115.805 307.055 116.615C307.655 117.395 307.955 118.28 307.955 119.27C307.955 119.93 307.79 120.47 307.46 120.89C307.13 121.28 306.665 121.475 306.065 121.475C305.345 121.505 304.835 121.295 304.535 120.845C304.265 120.395 304.13 120.005 304.13 119.675C304.13 119.405 304.16 119.12 304.22 118.82C304.31 118.52 304.475 118.235 304.715 117.965C304.565 117.125 304.145 116.525 303.455 116.165C302.795 115.775 302.03 115.58 301.16 115.58C299.87 115.58 298.79 115.925 297.92 116.615C297.05 117.305 296.36 118.205 295.85 119.315C295.34 120.425 294.965 121.625 294.725 122.915C294.515 124.175 294.41 125.405 294.41 126.605C294.41 128.705 294.635 130.4 295.085 131.69C295.565 132.95 296.225 133.865 297.065 134.435C297.905 135.005 298.85 135.29 299.9 135.29C300.68 135.29 301.49 135.125 302.33 134.795C303.17 134.435 303.98 133.85 304.76 133.04C305.54 132.2 306.215 131.06 306.785 129.62L308.36 130.385C307.61 132.125 306.74 133.52 305.75 134.57C304.76 135.59 303.695 136.34 302.555 136.82C301.445 137.27 300.305 137.495 299.135 137.495C296.495 137.495 294.38 136.7 292.79 135.11C291.23 133.49 290.45 131 290.45 127.64C290.45 126.17 290.66 124.64 291.08 123.05C291.5 121.46 292.145 119.99 293.015 118.64C293.885 117.26 294.995 116.15 296.345 115.31C297.725 114.44 299.345 114.005 301.205 114.005ZM320.54 148.475V147.125C321.38 147.125 321.965 146.84 322.295 146.27C322.655 145.7 322.88 144.935 322.97 143.975C323.09 143.045 323.195 141.995 323.285 140.825C323.405 139.415 323.525 137.72 323.645 135.74C323.795 133.76 323.96 131.63 324.14 129.35C324.35 127.04 324.56 124.67 324.77 122.24C324.98 119.78 325.205 117.365 325.445 114.995C325.715 112.625 325.985 110.39 326.255 108.29C326.375 107.48 326.465 106.955 326.525 106.715C326.585 106.445 326.645 106.16 326.705 105.86C326.165 105.89 325.625 105.92 325.085 105.95C324.545 105.98 324.005 106.01 323.465 106.04L323.69 104.24C325.01 104.24 326.03 104.18 326.75 104.06C327.5 103.94 328.07 103.79 328.46 103.61C328.85 103.43 329.165 103.235 329.405 103.025H330.665C330.575 103.775 330.44 104.615 330.26 105.545C330.11 106.475 329.96 107.39 329.81 108.29C329.69 109.19 329.585 109.985 329.495 110.675C329.285 112.325 329.09 113.87 328.91 115.31C328.76 116.72 328.595 118.22 328.415 119.81C328.265 121.37 328.1 123.185 327.92 125.255C327.77 127.295 327.575 129.755 327.335 132.635C327.125 135.485 326.87 138.95 326.57 143.03C326.54 143.63 326.51 144.275 326.48 144.965C326.45 145.655 326.36 146.255 326.21 146.765C326.69 146.735 327.155 146.705 327.605 146.675C328.085 146.675 328.565 146.66 329.045 146.63V148.475H320.54ZM319.91 137.495C318.17 137.495 316.685 137.045 315.455 136.145C314.225 135.245 313.295 134.03 312.665 132.5C312.035 130.97 311.72 129.275 311.72 127.415C311.72 124.985 312.155 122.75 313.025 120.71C313.895 118.67 315.11 117.05 316.67 115.85C318.26 114.62 320.09 114.005 322.16 114.005C323.03 114.005 323.765 114.125 324.365 114.365C324.965 114.605 325.505 114.98 325.985 115.49L325.67 118.01C325.28 117.26 324.83 116.69 324.32 116.3C323.84 115.88 323.12 115.67 322.16 115.67C320.84 115.67 319.7 116.135 318.74 117.065C317.78 117.965 317.03 119.195 316.49 120.755C315.98 122.285 315.71 124.01 315.68 125.93C315.65 126.95 315.71 128.03 315.86 129.17C316.04 130.31 316.31 131.375 316.67 132.365C317.03 133.355 317.51 134.165 318.11 134.795C318.71 135.425 319.445 135.755 320.315 135.785C321.185 135.785 321.935 135.62 322.565 135.29C323.195 134.96 323.72 134.465 324.14 133.805L324.05 136.055C323.54 136.565 322.94 136.925 322.25 137.135C321.56 137.375 320.78 137.495 319.91 137.495ZM330.8 137.495C329.81 137.495 328.94 137.285 328.19 136.865C327.44 136.415 326.78 135.845 326.21 135.155L326.66 132.86C327.26 133.88 327.875 134.63 328.505 135.11C329.135 135.59 329.885 135.83 330.755 135.83C331.805 135.83 332.705 135.5 333.455 134.84C334.205 134.15 334.82 133.265 335.3 132.185C335.78 131.105 336.14 129.95 336.38 128.72C336.62 127.49 336.755 126.335 336.785 125.255C336.815 124.205 336.755 123.125 336.605 122.015C336.485 120.875 336.245 119.825 335.885 118.865C335.525 117.905 335.015 117.14 334.355 116.57C333.725 115.97 332.915 115.67 331.925 115.67C331.385 115.67 330.77 115.85 330.08 116.21C329.42 116.54 328.79 117.14 328.19 118.01L328.415 115.715C329.015 115.205 329.66 114.8 330.35 114.5C331.07 114.17 331.895 114.005 332.825 114.005C334.235 114.005 335.54 114.395 336.74 115.175C337.94 115.925 338.9 117.035 339.62 118.505C340.37 119.975 340.745 121.76 340.745 123.86C340.745 125.66 340.505 127.385 340.025 129.035C339.545 130.685 338.855 132.14 337.955 133.4C337.085 134.66 336.035 135.665 334.805 136.415C333.605 137.135 332.27 137.495 330.8 137.495ZM355.438 114.005C356.518 114.005 357.538 114.17 358.498 114.5C359.458 114.83 360.238 115.37 360.838 116.12C361.438 116.87 361.738 117.89 361.738 119.18C361.738 120.41 361.318 121.475 360.478 122.375C359.638 123.275 358.543 124.025 357.193 124.625C355.843 125.195 354.403 125.66 352.873 126.02C351.343 126.38 349.873 126.635 348.463 126.785C348.463 128.645 348.643 130.205 349.003 131.465C349.393 132.725 349.963 133.67 350.713 134.3C351.463 134.93 352.423 135.245 353.593 135.245C354.463 135.245 355.333 135.05 356.203 134.66C357.103 134.27 357.958 133.685 358.768 132.905C359.578 132.095 360.313 131.06 360.973 129.8L362.458 130.655C361.618 132.215 360.718 133.505 359.758 134.525C358.798 135.545 357.748 136.295 356.608 136.775C355.468 137.255 354.208 137.495 352.828 137.495C349.978 137.495 347.878 136.61 346.528 134.84C345.178 133.04 344.503 130.685 344.503 127.775C344.503 126.035 344.728 124.34 345.178 122.69C345.628 121.04 346.303 119.57 347.203 118.28C348.103 116.96 349.243 115.925 350.623 115.175C352.003 114.395 353.608 114.005 355.438 114.005ZM354.808 115.535C353.428 115.535 352.288 116 351.388 116.93C350.518 117.86 349.843 119.06 349.363 120.53C348.913 122 348.628 123.545 348.508 125.165C350.098 124.955 351.613 124.58 353.053 124.04C354.493 123.5 355.678 122.81 356.608 121.97C357.538 121.1 358.003 120.095 358.003 118.955C358.003 117.995 357.733 117.185 357.193 116.525C356.683 115.865 355.888 115.535 354.808 115.535ZM366.083 148.475V147.125C366.923 147.125 367.508 146.84 367.838 146.27C368.198 145.7 368.423 144.935 368.513 143.975C368.633 143.045 368.738 141.995 368.828 140.825C369.038 138.245 369.248 135.755 369.458 133.355C369.698 130.925 369.908 128.72 370.088 126.74C370.298 124.73 370.463 123.02 370.583 121.61C370.703 120.2 370.763 119.21 370.763 118.64C370.763 118.04 370.703 117.5 370.583 117.02C370.493 116.51 370.148 116.255 369.548 116.255C369.068 116.255 368.513 116.585 367.883 117.245C367.283 117.905 366.758 119.03 366.308 120.62L365.003 120.35C365.093 119.81 365.273 119.195 365.543 118.505C365.843 117.785 366.233 117.08 366.713 116.39C367.193 115.7 367.778 115.13 368.468 114.68C369.158 114.23 369.953 114.005 370.853 114.005C372.203 114.005 373.103 114.485 373.553 115.445C374.033 116.375 374.273 117.47 374.273 118.73C374.273 119.63 374.198 120.545 374.048 121.475C373.928 122.375 373.793 123.17 373.643 123.86H373.778C374.618 121.1 375.473 119.015 376.343 117.605C377.243 116.195 378.158 115.25 379.088 114.77C380.018 114.26 380.918 114.005 381.788 114.005C383.168 114.005 384.308 114.41 385.208 115.22C386.108 116 386.768 117.05 387.188 118.37C387.638 119.69 387.863 121.145 387.863 122.735C387.863 125.645 387.353 128.21 386.333 130.43C385.343 132.65 383.858 134.39 381.878 135.65C379.928 136.88 377.498 137.495 374.588 137.495C374.198 137.495 373.823 137.48 373.463 137.45C373.133 137.42 372.803 137.39 372.473 137.36C372.323 139.64 372.203 141.395 372.113 142.625C372.053 143.885 371.993 144.8 371.933 145.37C371.903 145.97 371.843 146.435 371.753 146.765C372.233 146.735 372.698 146.705 373.148 146.675C373.628 146.675 374.108 146.66 374.588 146.63V148.475H366.083ZM375.353 135.965C376.613 135.965 377.723 135.71 378.683 135.2C379.643 134.69 380.453 134.015 381.113 133.175C381.803 132.305 382.358 131.33 382.778 130.25C383.198 129.17 383.498 128.06 383.678 126.92C383.888 125.75 383.993 124.625 383.993 123.545C383.993 122.165 383.903 120.92 383.723 119.81C383.543 118.67 383.228 117.77 382.778 117.11C382.328 116.45 381.683 116.12 380.843 116.12C380.033 116.12 379.223 116.555 378.413 117.425C377.603 118.295 376.853 119.465 376.163 120.935C375.473 122.375 374.858 123.98 374.318 125.75C373.778 127.52 373.373 129.32 373.103 131.15C372.983 131.81 372.878 132.5 372.788 133.22C372.728 133.91 372.668 134.645 372.608 135.425C373.088 135.575 373.538 135.71 373.958 135.83C374.408 135.92 374.873 135.965 375.353 135.965ZM404.706 114.005C405.606 114.005 406.596 114.08 407.676 114.23C408.756 114.35 409.776 114.53 410.736 114.77C410.496 116.57 410.256 118.37 410.016 120.17C409.806 121.94 409.596 123.635 409.386 125.255C409.206 126.845 409.056 128.285 408.936 129.575C408.816 130.835 408.756 131.825 408.756 132.545C408.756 133.145 408.801 133.745 408.891 134.345C408.981 134.945 409.356 135.245 410.016 135.245C410.526 135.245 411.081 134.915 411.681 134.255C412.311 133.595 412.851 132.47 413.301 130.88L414.561 131.15C414.471 131.69 414.276 132.32 413.976 133.04C413.706 133.73 413.331 134.42 412.851 135.11C412.371 135.8 411.786 136.37 411.096 136.82C410.406 137.27 409.611 137.495 408.711 137.495C407.511 137.495 406.656 137.12 406.146 136.37C405.636 135.62 405.381 134.645 405.381 133.445C405.381 132.575 405.456 131.63 405.606 130.61C405.786 129.59 405.981 128.525 406.191 127.415H406.056C405.336 129.635 404.586 131.42 403.806 132.77C403.056 134.09 402.291 135.095 401.511 135.785C400.761 136.475 400.026 136.925 399.306 137.135C398.586 137.375 397.911 137.495 397.281 137.495C395.661 137.495 394.296 136.895 393.186 135.695C392.106 134.495 391.566 132.485 391.566 129.665C391.566 127.565 391.836 125.57 392.376 123.68C392.916 121.79 393.726 120.125 394.806 118.685C395.916 117.215 397.296 116.075 398.946 115.265C400.596 114.425 402.516 114.005 404.706 114.005ZM403.311 115.625C401.961 115.625 400.776 116 399.756 116.75C398.766 117.5 397.941 118.52 397.281 119.81C396.621 121.07 396.126 122.495 395.796 124.085C395.496 125.645 395.346 127.25 395.346 128.9C395.346 130.82 395.556 132.41 395.976 133.67C396.396 134.9 397.161 135.515 398.271 135.515C399.081 135.515 399.891 135.11 400.701 134.3C401.541 133.49 402.321 132.41 403.041 131.06C403.761 129.68 404.406 128.15 404.976 126.47C405.546 124.76 405.996 123.02 406.326 121.25C406.656 119.48 406.821 117.785 406.821 116.165C406.371 115.985 405.846 115.85 405.246 115.76C404.646 115.67 404.001 115.625 403.311 115.625Z" fill="#333333"/>
<g clip-path="url(#clip0_14_165)">
<path d="M101.893 105.581H107.5C111.907 105.581 116.051 103.865 119.167 100.747C122.283 97.6299 124 93.4864 124 89.0788V82.0968C124 76.4313 119.39 71.8226 113.726 71.8226H107.855C107.855 70.2036 106.538 68.8871 104.919 68.8871H52.0806C50.4617 68.8871 49.1452 70.2036 49.1452 71.8226V77.6935V79.1613V89.4355C49.1452 98.9597 54.5142 107.248 62.3798 111.452H38.871C35.6331 111.452 33 114.085 33 117.323C33 120.56 35.6331 123.194 38.871 123.194H48.6021L58.8748 132H98.1222L108.395 123.194H118.129C121.367 123.194 124 120.56 124 117.323C124 114.085 121.367 111.452 118.129 111.452H94.6202C97.4016 109.965 99.863 107.964 101.893 105.581ZM107.855 89.4355V83.5645H112.258V89.0803C112.258 90.3323 111.75 91.5593 110.865 92.4443C109.98 93.3294 108.752 93.8387 107.5 93.8387H107.442C107.698 92.4062 107.855 90.9399 107.855 89.4355ZM106.75 96.7742H107.5C109.524 96.7742 111.507 95.9522 112.942 94.5197C114.372 93.0872 115.194 91.1043 115.194 89.0803V83.5645C115.194 81.9456 113.877 80.629 112.258 80.629H107.855V79.1613V77.6935V74.7581H113.726C117.772 74.7581 121.065 78.0502 121.065 82.0968V89.0788C121.065 92.7027 119.654 96.1093 117.091 98.672C114.529 101.235 111.124 102.645 107.5 102.645H104.033C105.173 100.827 106.105 98.8657 106.75 96.7742ZM118.129 114.387C119.748 114.387 121.065 115.704 121.065 117.323C121.065 118.941 119.748 120.258 118.129 120.258H100.516V123.194H103.888L97.0376 129.065H59.9624L53.1125 123.194H97.5806V120.258H38.871C37.252 120.258 35.9355 118.941 35.9355 117.323C35.9355 115.704 37.252 114.387 38.871 114.387H74.0968H82.9032H118.129ZM82.9032 111.452H74.0968C61.9571 111.452 52.0806 101.575 52.0806 89.4355V80.629H99.0484V77.6935H52.0806V71.8226H104.919V77.6935H101.984V80.629H104.919V89.4355C104.919 101.575 95.0429 111.452 82.9032 111.452Z" fill="#333333"/>
<path d="M71.1613 41H68.2258V43.9355H71.1613V41Z" fill="#333333"/>
<path d="M62.3549 56.3247C62.3549 55.6921 62.757 55.1329 63.3588 54.9318L68.1524 53.3349C69.9519 52.7346 71.1613 51.057 71.1613 49.1592V46.871H68.2258V49.1592C68.2258 49.7918 67.8237 50.351 67.2219 50.5521L62.4282 52.149C60.6288 52.7493 59.4194 54.4269 59.4194 56.3247V64.4839H62.3549V56.3247Z" fill="#333333"/>
<path d="M77.0323 56.3247C77.0323 55.6921 77.4344 55.1329 78.0362 54.9318L82.8299 53.3349C84.6293 52.7346 85.8387 51.057 85.8387 49.1592V41H82.9033V49.1592C82.9033 49.7918 82.5011 50.351 81.8993 50.5521L77.1057 52.149C75.3062 52.7493 74.0968 54.4269 74.0968 56.3247V64.4839H77.0323V56.3247Z" fill="#333333"/>
<path d="M91.7097 56.3247C91.7097 55.6921 92.1118 55.1329 92.7136 54.9318L97.5073 53.3349C99.3067 52.7346 100.516 51.057 100.516 49.1592V41H97.5807V49.1592C97.5807 49.7918 97.1785 50.351 96.5767 50.5521L91.7831 52.149C89.9836 52.7493 88.7742 54.4269 88.7742 56.3247V58.6129H91.7097V56.3247Z" fill="#333333"/>
<path d="M91.7097 61.5483H88.7742V64.4838H91.7097V61.5483Z" fill="#333333"/>
</g>
</g>
<defs>
<filter id="filter0_d_14_165" x="0" y="0" width="575.1" height="216.1" filterUnits="userSpaceOnUse" color-interpolation-filters="sRGB">
<feFlood flood-opacity="0" result="BackgroundImageFix"/>
<feColorMatrix in="SourceAlpha" type="matrix" values="0 0 0 0 0 0 0 0 0 0 0 0 0 0 0 0 0 0 127 0" result="hardAlpha"/>
<feOffset dx="10" dy="14"/>
<feGaussianBlur stdDeviation="3.55"/>
<feComposite in2="hardAlpha" operator="out"/>
<feColorMatrix type="matrix" values="0 0 0 0 0 0 0 0 0 0 0 0 0 0 0 0 0 0 0.25 0"/>
<feBlend mode="normal" in2="BackgroundImageFix" result="effect1_dropShadow_14_165"/>
<feBlend mode="normal" in="SourceGraphic" in2="effect1_dropShadow_14_165" result="shape"/>
</filter>
<clipPath id="clip0_14_165">
<rect width="91" height="91" fill="white" transform="translate(33 41)"/>
</clipPath>
</defs>
</svg>
