<svg width="576" height="217" viewBox="0 0 576 217" fill="none" xmlns="http://www.w3.org/2000/svg">
<g filter="url(#filter0_d_14_163)">
<rect x="1" y="1" width="556" height="193" rx="14" fill="#D5B68A" stroke="#333333" stroke-width="2"/>
<path d="M120.223 56.1071C107.842 45.7264 82.2096 55.8309 63.0879 78.6309C53.9269 89.5546 47.5653 101.749 45.1743 112.965C42.7159 124.5 44.7355 133.68 50.8611 138.818C54.1617 141.585 58.4107 142.975 63.3379 142.975C67.5542 142.975 72.269 141.957 77.3088 139.915C87.9375 135.606 98.8362 127.216 107.996 116.294C127.12 93.4925 132.604 66.4935 120.223 56.1071ZM105.817 114.467C96.9505 125.04 86.4461 133.141 76.2403 137.279C66.3337 141.296 57.9698 141.068 52.6884 136.638C47.4078 132.209 45.7269 124.014 47.9555 113.558C50.2515 102.787 56.3993 91.0319 65.2665 80.4582C78.7522 64.3775 95.4057 54.7562 107.65 54.7562C111.854 54.7562 115.538 55.8906 118.395 58.2873C129.576 67.6641 123.934 92.8663 105.817 114.467Z" fill="#333333"/>
<path d="M84.1142 119.381C83.9766 118.795 83.8719 118.107 83.6227 117.403C83.368 116.703 83.1687 115.897 82.7651 115.133C82.4082 114.346 82.0185 113.512 81.4853 112.725C81.0077 111.901 80.4005 111.123 79.7856 110.33C79.1101 109.59 78.4331 108.822 77.6502 108.164C76.1291 106.802 74.3891 105.689 72.6469 104.921C71.8049 104.477 70.9051 104.239 70.0942 103.946C69.2515 103.733 68.47 103.5 67.7174 103.417C66.9764 103.295 66.2965 103.213 65.677 103.207C65.0658 103.177 64.5388 103.165 64.1143 103.209C63.2589 103.275 62.767 103.338 62.767 103.338C62.767 103.338 63.2317 103.511 64.0503 103.768C64.4674 103.877 64.9402 104.089 65.4827 104.272C66.0245 104.448 66.6203 104.723 67.2728 104.98C67.9309 105.221 68.5916 105.616 69.3213 105.915C70.0142 106.31 70.7611 106.673 71.4855 107.133C72.2376 107.544 72.9326 108.094 73.6758 108.587C74.3701 109.148 75.1156 109.664 75.7675 110.294C76.4736 110.864 77.0717 111.546 77.7212 112.16C78.2831 112.853 78.9423 113.454 79.433 114.159C79.9687 114.83 80.4593 115.503 80.9079 116.162C81.3843 116.804 81.7282 117.478 82.1293 118.063C82.5029 118.663 82.7867 119.247 83.0899 119.748C83.3882 120.252 83.6062 120.712 83.8008 121.089C84.1911 121.844 84.4434 122.279 84.4434 122.279C84.4434 122.279 84.4252 121.79 84.3427 120.927C84.2939 120.498 84.2652 119.963 84.1142 119.381Z" fill="#333333"/>
<path d="M97.0334 101.222C96.8117 100.495 96.6357 99.6628 96.2681 98.8588C95.935 98.0371 95.5489 97.1778 95.0362 96.3472C94.5755 95.4832 93.9475 94.6861 93.3282 93.8619C92.6463 93.0904 91.9499 92.3009 91.1476 91.6209C89.5788 90.2258 87.7782 89.0923 85.9698 88.3465C85.0873 87.9277 84.1621 87.6938 83.3189 87.4308C82.4404 87.2583 81.6346 87.0495 80.8581 87.0042C80.0914 86.9289 79.3913 86.8936 78.7522 86.9299C78.1239 86.9385 77.5832 86.9762 77.1571 87.0587C76.293 87.198 75.7937 87.3269 75.7937 87.3269C75.7937 87.3269 76.2509 87.5653 77.0607 87.897C77.4763 88.0439 77.9356 88.3054 78.4608 88.5276C78.9834 88.7453 79.5584 89.0671 80.1856 89.3709C80.8194 89.6491 81.456 90.0684 82.15 90.4083C82.8104 90.8338 83.5321 91.2002 84.2161 91.6859C84.9274 92.1217 85.6025 92.6512 86.3127 93.1433C86.975 93.7018 87.6958 94.2019 88.3235 94.816C89.0103 95.3633 89.5887 96.0238 90.2318 96.6067C90.7895 97.2673 91.4278 97.8502 91.9354 98.5147C92.4917 99.1424 92.9857 99.7894 93.4582 100.415C93.9706 101.016 94.3378 101.664 94.772 102.222C95.1886 102.79 95.5171 103.348 95.8605 103.829C96.1957 104.313 96.4611 104.755 96.6918 105.119C97.1531 105.848 97.4699 106.268 97.4699 106.268C97.4699 106.268 97.5165 105.763 97.5047 104.875C97.4923 104.433 97.5111 103.879 97.3969 103.278C97.3 102.672 97.2395 101.958 97.0334 101.222Z" fill="#333333"/>
<path d="M109.372 90.6062C109.235 90.0208 109.13 89.3326 108.881 88.6288C108.626 87.9288 108.427 87.1229 108.023 86.3589C107.666 85.5712 107.277 84.7379 106.743 83.9503C106.266 83.127 105.658 82.3484 105.043 81.556C104.368 80.8159 103.691 80.0478 102.908 79.39C101.387 78.028 99.647 76.9148 97.9048 76.147C97.0629 75.7024 96.163 75.4648 95.3521 75.1718C94.5094 74.9585 93.7279 74.7256 92.9753 74.6424C92.2342 74.5207 91.5546 74.4384 90.9349 74.4328C90.3238 74.4031 89.7967 74.3907 89.3723 74.4348C88.5168 74.5001 88.0251 74.5635 88.0251 74.5635C88.0251 74.5635 88.4897 74.7365 89.3082 74.9939C89.7255 75.1025 90.1984 75.3141 90.7407 75.4979C91.2826 75.6738 91.8782 75.9484 92.531 76.2059C93.1889 76.4462 93.8496 76.8413 94.5793 77.1406C95.2721 77.5359 96.0191 77.8986 96.7436 78.3583C97.4958 78.7701 98.1906 79.3201 98.9337 79.8122C99.6281 80.3733 100.374 80.8898 101.025 81.5202C101.732 82.0893 102.33 82.7714 102.979 83.3859C103.541 84.0781 104.2 84.6796 104.691 85.385C105.227 86.0554 105.717 86.7285 106.166 87.3874C106.642 88.0295 106.986 88.7035 107.387 89.289C107.761 89.8883 108.045 90.4723 108.348 90.9736C108.646 91.4775 108.864 91.9378 109.059 92.315C109.449 93.0693 109.701 93.5043 109.701 93.5043C109.701 93.5043 109.683 93.0153 109.601 92.1524C109.552 91.7231 109.523 91.1882 109.372 90.6062Z" fill="#333333"/>
<path d="M175.5 51.41C178.98 51.41 181.635 52.025 183.465 53.255C185.325 54.485 186.165 56.435 185.985 59.105C185.925 60.065 185.61 61.025 185.04 61.985C184.47 62.945 183.63 63.8 182.52 64.55C181.41 65.27 180.015 65.78 178.335 66.08V66.17C181.635 66.17 184.065 66.935 185.625 68.465C187.185 69.965 187.89 71.87 187.74 74.18C187.65 76.01 187.11 77.585 186.12 78.905C185.16 80.225 183.87 81.245 182.25 81.965C180.66 82.655 178.845 83 176.805 83H163.8L163.89 81.515C165.03 81.485 165.825 81.23 166.275 80.75C166.725 80.24 166.995 79.565 167.085 78.725C167.175 77.855 167.25 76.865 167.31 75.755L168.3 56.855C168.33 56.045 168.375 55.355 168.435 54.785C168.495 54.185 168.555 53.69 168.615 53.3C168.075 53.33 167.52 53.36 166.95 53.39C166.41 53.42 165.87 53.45 165.33 53.48L165.465 51.5C167.115 51.5 168.75 51.485 170.37 51.455C171.99 51.425 173.7 51.41 175.5 51.41ZM176.13 67.385C175.23 67.385 174.405 67.4 173.655 67.43C172.935 67.43 172.215 67.46 171.495 67.52L170.955 77.645C170.925 78.455 170.88 79.145 170.82 79.715C170.76 80.285 170.7 80.765 170.64 81.155C171.12 81.185 171.69 81.215 172.35 81.245C173.04 81.245 173.67 81.245 174.24 81.245C174.84 81.245 175.23 81.245 175.41 81.245C177.72 81.245 179.61 80.675 181.08 79.535C182.58 78.395 183.39 76.7 183.51 74.45C183.6 72.68 183.3 71.285 182.61 70.265C181.95 69.215 181.05 68.48 179.91 68.06C178.77 67.61 177.51 67.385 176.13 67.385ZM175.635 53.03C174.675 53.03 173.94 53.165 173.43 53.435C172.95 53.705 172.605 54.155 172.395 54.785C172.215 55.415 172.095 56.285 172.035 57.395L171.585 65.765C172.155 65.765 172.725 65.765 173.295 65.765C173.865 65.735 174.39 65.705 174.87 65.675C176.58 65.585 177.945 65.21 178.965 64.55C180.015 63.89 180.78 63.065 181.26 62.075C181.74 61.055 181.995 59.99 182.025 58.88C182.085 57.26 181.785 56.03 181.125 55.19C180.465 54.35 179.625 53.78 178.605 53.48C177.615 53.18 176.625 53.03 175.635 53.03ZM215.736 83.495C214.926 83.495 214.266 83.33 213.756 83C213.246 82.64 212.871 82.16 212.631 81.56C212.391 80.96 212.271 80.255 212.271 79.445C212.271 78.665 212.346 77.645 212.496 76.385C212.676 75.095 212.856 73.685 213.036 72.155C213.246 70.595 213.426 69.035 213.576 67.475C213.756 65.915 213.846 64.46 213.846 63.11C213.846 62.66 213.831 62.225 213.801 61.805C213.801 61.385 213.786 60.95 213.756 60.5H217.536C217.566 60.71 217.581 60.905 217.581 61.085C217.581 61.235 217.581 61.43 217.581 61.67C217.581 62.36 217.521 63.32 217.401 64.55C217.281 65.75 217.131 67.07 216.951 68.51C216.801 69.95 216.636 71.39 216.456 72.83C216.276 74.27 216.126 75.56 216.006 76.7C215.886 77.81 215.826 78.65 215.826 79.22C215.826 79.76 215.901 80.225 216.051 80.615C216.231 81.005 216.561 81.2 217.041 81.2C217.521 81.2 218.076 80.885 218.706 80.255C219.336 79.595 219.876 78.47 220.326 76.88L221.586 77.15C221.496 77.69 221.301 78.32 221.001 79.04C220.731 79.73 220.356 80.42 219.876 81.11C219.396 81.8 218.811 82.37 218.121 82.82C217.431 83.27 216.636 83.495 215.736 83.495ZM200.481 83.495C198.951 83.495 197.721 83.195 196.791 82.595C195.861 81.965 195.216 81.125 194.856 80.075C194.496 78.995 194.406 77.78 194.586 76.43C194.976 74 195.291 72.035 195.531 70.535C195.771 69.005 195.951 67.82 196.071 66.98C196.191 66.14 196.266 65.525 196.296 65.135C196.356 64.745 196.386 64.46 196.386 64.28C196.416 63.74 196.356 63.275 196.206 62.885C196.086 62.465 195.771 62.255 195.261 62.255C194.781 62.255 194.211 62.585 193.551 63.245C192.891 63.905 192.306 65.03 191.796 66.62L190.536 66.35C190.656 65.81 190.866 65.195 191.166 64.505C191.496 63.785 191.901 63.08 192.381 62.39C192.891 61.7 193.491 61.13 194.181 60.68C194.901 60.23 195.711 60.005 196.611 60.005C197.751 60.005 198.561 60.335 199.041 60.995C199.521 61.625 199.776 62.45 199.806 63.47C199.866 64.49 199.806 65.57 199.626 66.71L198.006 76.835C197.796 78.425 198.066 79.655 198.816 80.525C199.566 81.365 200.541 81.785 201.741 81.785C203.181 81.785 204.321 81.26 205.161 80.21C206.031 79.13 206.481 77.6 206.511 75.62C206.571 73.97 206.376 72.635 205.926 71.615C205.476 70.595 204.561 70.085 203.181 70.085C202.371 70.085 201.561 70.28 200.751 70.67C199.941 71.03 199.116 71.585 198.276 72.335L198.321 70.265C199.281 69.695 200.181 69.245 201.021 68.915C201.891 68.585 202.791 68.42 203.721 68.42C205.011 68.42 206.136 68.675 207.096 69.185C208.086 69.665 208.866 70.37 209.436 71.3C210.006 72.23 210.276 73.37 210.246 74.72C210.216 76.34 209.781 77.825 208.941 79.175C208.101 80.495 206.946 81.545 205.476 82.325C204.036 83.105 202.371 83.495 200.481 83.495ZM243.358 83.495C241.948 83.495 240.988 83.12 240.478 82.37C239.968 81.62 239.713 80.555 239.713 79.175C239.713 78.335 239.773 77.345 239.893 76.205C240.043 75.065 240.208 73.85 240.388 72.56C240.598 71.27 240.763 69.965 240.883 68.645C241.033 67.325 241.108 66.065 241.108 64.865C241.108 64.505 241.048 64.115 240.928 63.695C240.838 63.275 240.643 62.915 240.343 62.615C240.043 62.285 239.593 62.12 238.993 62.12C238.153 62.12 237.313 62.51 236.473 63.29C235.633 64.07 234.838 65.12 234.088 66.44C233.338 67.76 232.663 69.23 232.063 70.85C231.463 72.44 230.983 74.09 230.623 75.8C230.293 77.48 230.128 79.085 230.128 80.615C230.128 81.065 230.128 81.485 230.128 81.875C230.158 82.235 230.188 82.61 230.218 83H226.438C226.408 82.79 226.393 82.61 226.393 82.46C226.393 82.28 226.393 82.07 226.393 81.83C226.393 81.32 226.423 80.735 226.483 80.075C226.543 79.385 226.633 78.485 226.753 77.375C226.903 76.235 227.083 74.72 227.293 72.83C227.503 71.06 227.653 69.68 227.743 68.69C227.863 67.7 227.953 66.95 228.013 66.44C228.073 65.9 228.103 65.495 228.103 65.225C228.133 64.925 228.148 64.61 228.148 64.28C228.148 63.74 228.073 63.275 227.923 62.885C227.773 62.465 227.443 62.255 226.933 62.255C226.453 62.255 225.898 62.585 225.268 63.245C224.638 63.905 224.098 65.03 223.648 66.62L222.388 66.35C222.478 65.81 222.658 65.195 222.928 64.505C223.228 63.785 223.618 63.08 224.098 62.39C224.578 61.7 225.163 61.13 225.853 60.68C226.543 60.23 227.338 60.005 228.238 60.005C229.258 60.005 230.008 60.29 230.488 60.86C230.998 61.4 231.313 62.105 231.433 62.975C231.583 63.845 231.628 64.775 231.568 65.765C231.508 66.605 231.403 67.415 231.253 68.195C231.133 68.975 231.013 69.665 230.893 70.265H231.028C232.048 67.535 233.053 65.435 234.043 63.965C235.033 62.465 236.008 61.43 236.968 60.86C237.958 60.29 238.933 60.005 239.893 60.005C241.093 60.005 242.053 60.275 242.773 60.815C243.493 61.355 244.003 62.075 244.303 62.975C244.633 63.845 244.798 64.805 244.798 65.855C244.798 67.505 244.678 69.2 244.438 70.94C244.228 72.65 244.003 74.24 243.763 75.71C243.553 77.15 243.448 78.305 243.448 79.175C243.448 79.715 243.508 80.195 243.628 80.615C243.778 81.035 244.123 81.245 244.663 81.245C245.173 81.245 245.728 80.93 246.328 80.3C246.958 79.64 247.498 78.5 247.948 76.88L249.208 77.195C249.118 77.705 248.923 78.32 248.623 79.04C248.353 79.76 247.978 80.465 247.498 81.155C247.018 81.815 246.433 82.37 245.743 82.82C245.053 83.27 244.258 83.495 243.358 83.495ZM262.449 60.005C263.529 60.005 264.549 60.17 265.509 60.5C266.469 60.83 267.249 61.37 267.849 62.12C268.449 62.87 268.749 63.89 268.749 65.18C268.749 66.41 268.329 67.475 267.489 68.375C266.649 69.275 265.554 70.025 264.204 70.625C262.854 71.195 261.414 71.66 259.884 72.02C258.354 72.38 256.884 72.635 255.474 72.785C255.474 74.645 255.654 76.205 256.014 77.465C256.404 78.725 256.974 79.67 257.724 80.3C258.474 80.93 259.434 81.245 260.604 81.245C261.474 81.245 262.344 81.05 263.214 80.66C264.114 80.27 264.969 79.685 265.779 78.905C266.589 78.095 267.324 77.06 267.984 75.8L269.469 76.655C268.629 78.215 267.729 79.505 266.769 80.525C265.809 81.545 264.759 82.295 263.619 82.775C262.479 83.255 261.219 83.495 259.839 83.495C256.989 83.495 254.889 82.61 253.539 80.84C252.189 79.04 251.514 76.685 251.514 73.775C251.514 72.035 251.739 70.34 252.189 68.69C252.639 67.04 253.314 65.57 254.214 64.28C255.114 62.96 256.254 61.925 257.634 61.175C259.014 60.395 260.619 60.005 262.449 60.005ZM261.819 61.535C260.439 61.535 259.299 62 258.399 62.93C257.529 63.86 256.854 65.06 256.374 66.53C255.924 68 255.639 69.545 255.519 71.165C257.109 70.955 258.624 70.58 260.064 70.04C261.504 69.5 262.689 68.81 263.619 67.97C264.549 67.1 265.014 66.095 265.014 64.955C265.014 63.995 264.744 63.185 264.204 62.525C263.694 61.865 262.899 61.535 261.819 61.535ZM282.319 74.72C280.519 74.72 279.214 74.18 278.404 73.1C277.594 71.99 277.249 70.49 277.369 68.6C277.489 67.04 277.609 65.795 277.729 64.865C277.879 63.935 277.924 63.275 277.864 62.885C277.804 62.465 277.489 62.255 276.919 62.255C276.379 62.255 275.764 62.585 275.074 63.245C274.414 63.875 273.814 65 273.274 66.62L272.014 66.305C272.134 65.795 272.359 65.18 272.689 64.46C273.049 63.74 273.499 63.05 274.039 62.39C274.609 61.7 275.284 61.13 276.064 60.68C276.844 60.23 277.729 60.005 278.719 60.005C279.949 60.005 280.774 60.395 281.194 61.175C281.614 61.955 281.764 63.095 281.644 64.595C281.584 65.375 281.479 66.14 281.329 66.89C281.209 67.64 281.119 68.39 281.059 69.14C280.969 70.31 281.089 71.18 281.419 71.75C281.749 72.32 282.409 72.605 283.399 72.605C284.029 72.605 284.659 72.515 285.289 72.335C285.949 72.125 286.594 71.855 287.224 71.525C287.884 71.165 288.499 70.775 289.069 70.355L289.564 71.075C288.274 72.455 287.014 73.415 285.784 73.955C284.554 74.465 283.399 74.72 282.319 74.72ZM290.959 83.495C290.149 83.495 289.489 83.33 288.979 83C288.469 82.64 288.094 82.16 287.854 81.56C287.614 80.96 287.494 80.255 287.494 79.445C287.494 78.665 287.569 77.645 287.719 76.385C287.899 75.095 288.079 73.685 288.259 72.155C288.469 70.595 288.649 69.035 288.799 67.475C288.979 65.915 289.069 64.46 289.069 63.11C289.069 62.66 289.054 62.225 289.024 61.805C289.024 61.385 289.024 60.95 289.024 60.5H292.759C292.789 60.71 292.804 60.905 292.804 61.085C292.804 61.235 292.804 61.43 292.804 61.67C292.804 62.36 292.744 63.32 292.624 64.55C292.504 65.75 292.354 67.07 292.174 68.51C292.024 69.95 291.859 71.39 291.679 72.83C291.499 74.27 291.349 75.56 291.229 76.7C291.109 77.81 291.049 78.65 291.049 79.22C291.049 79.76 291.124 80.225 291.274 80.615C291.454 81.005 291.784 81.2 292.264 81.2C292.774 81.2 293.329 80.885 293.929 80.255C294.559 79.595 295.114 78.47 295.594 76.88L296.809 77.15C296.719 77.69 296.524 78.32 296.224 79.04C295.954 79.73 295.579 80.42 295.099 81.11C294.619 81.8 294.034 82.37 293.344 82.82C292.654 83.27 291.859 83.495 290.959 83.495ZM317.106 83.495C316.086 83.495 315.261 83.105 314.631 82.325C314.031 81.545 313.626 79.97 313.416 77.6C313.236 75.47 312.891 74.015 312.381 73.235C311.871 72.425 311.076 72.02 309.996 72.02L305.181 72.065L305.226 70.76H311.211V71.165C313.161 71.165 314.541 71.675 315.351 72.695C316.191 73.715 316.686 74.975 316.836 76.475C316.986 78.035 317.166 79.16 317.376 79.85C317.616 80.54 318.066 80.915 318.726 80.975C319.206 81.005 319.626 80.825 319.986 80.435C320.346 80.045 320.661 79.295 320.931 78.185L322.191 78.41C322.011 79.25 321.711 80.06 321.291 80.84C320.871 81.62 320.316 82.265 319.626 82.775C318.966 83.255 318.126 83.495 317.106 83.495ZM301.941 83C301.911 82.82 301.896 82.595 301.896 82.325C301.926 82.055 301.941 81.74 301.941 81.38C301.971 80.3 302.046 79.13 302.166 77.87C302.286 76.58 302.436 75.29 302.616 74C302.796 72.68 302.961 71.42 303.111 70.22C303.291 69.02 303.441 67.955 303.561 67.025C303.681 66.065 303.756 65.345 303.786 64.865C303.816 64.265 303.786 63.68 303.696 63.11C303.606 62.54 303.246 62.255 302.616 62.255C302.136 62.255 301.566 62.585 300.906 63.245C300.276 63.905 299.721 65.03 299.241 66.62L297.981 66.35C298.101 65.81 298.311 65.195 298.611 64.505C298.911 63.785 299.301 63.08 299.781 62.39C300.291 61.7 300.891 61.13 301.581 60.68C302.271 60.23 303.066 60.005 303.966 60.005C305.646 60.005 306.636 60.665 306.936 61.985C307.266 63.275 307.251 65.09 306.891 67.43C306.621 69.2 306.396 70.79 306.216 72.2C306.066 73.58 305.931 74.81 305.811 75.89C305.721 76.94 305.661 77.855 305.631 78.635C305.601 79.385 305.586 80.015 305.586 80.525C305.586 80.885 305.586 81.275 305.586 81.695C305.616 82.115 305.646 82.55 305.676 83H301.941ZM307.881 71.57V70.76C309.201 70.76 310.251 70.4 311.031 69.68C311.811 68.96 312.531 67.7 313.191 65.9C313.971 63.77 314.796 62.255 315.666 61.355C316.566 60.455 317.706 60.005 319.086 60.005C319.866 60.005 320.481 60.23 320.931 60.68C321.381 61.13 321.606 61.73 321.606 62.48C321.606 63.08 321.426 63.62 321.066 64.1C320.706 64.55 320.181 64.775 319.491 64.775C318.741 64.775 318.156 64.61 317.736 64.28C317.316 63.95 317.076 63.485 317.016 62.885C316.596 63.155 316.221 63.575 315.891 64.145C315.561 64.685 315.186 65.525 314.766 66.665C314.256 68.105 313.566 69.29 312.696 70.22C311.856 71.12 310.926 71.57 309.906 71.57H307.881ZM338.04 60.005C338.94 60.005 339.93 60.08 341.01 60.23C342.09 60.35 343.11 60.53 344.07 60.77C343.83 62.57 343.59 64.37 343.35 66.17C343.14 67.94 342.93 69.635 342.72 71.255C342.54 72.845 342.39 74.285 342.27 75.575C342.15 76.835 342.09 77.825 342.09 78.545C342.09 79.145 342.135 79.745 342.225 80.345C342.315 80.945 342.69 81.245 343.35 81.245C343.86 81.245 344.415 80.915 345.015 80.255C345.645 79.595 346.185 78.47 346.635 76.88L347.895 77.15C347.805 77.69 347.61 78.32 347.31 79.04C347.04 79.73 346.665 80.42 346.185 81.11C345.705 81.8 345.12 82.37 344.43 82.82C343.74 83.27 342.945 83.495 342.045 83.495C340.845 83.495 339.99 83.12 339.48 82.37C338.97 81.62 338.715 80.645 338.715 79.445C338.715 78.575 338.79 77.63 338.94 76.61C339.12 75.59 339.315 74.525 339.525 73.415H339.39C338.67 75.635 337.92 77.42 337.14 78.77C336.39 80.09 335.625 81.095 334.845 81.785C334.095 82.475 333.36 82.925 332.64 83.135C331.92 83.375 331.245 83.495 330.615 83.495C328.995 83.495 327.63 82.895 326.52 81.695C325.44 80.495 324.9 78.485 324.9 75.665C324.9 73.565 325.17 71.57 325.71 69.68C326.25 67.79 327.06 66.125 328.14 64.685C329.25 63.215 330.63 62.075 332.28 61.265C333.93 60.425 335.85 60.005 338.04 60.005ZM336.645 61.625C335.295 61.625 334.11 62 333.09 62.75C332.1 63.5 331.275 64.52 330.615 65.81C329.955 67.07 329.46 68.495 329.13 70.085C328.83 71.645 328.68 73.25 328.68 74.9C328.68 76.82 328.89 78.41 329.31 79.67C329.73 80.9 330.495 81.515 331.605 81.515C332.415 81.515 333.225 81.11 334.035 80.3C334.875 79.49 335.655 78.41 336.375 77.06C337.095 75.68 337.74 74.15 338.31 72.47C338.88 70.76 339.33 69.02 339.66 67.25C339.99 65.48 340.155 63.785 340.155 62.165C339.705 61.985 339.18 61.85 338.58 61.76C337.98 61.67 337.335 61.625 336.645 61.625ZM361.6 94.475V93.125C362.44 93.125 363.025 92.84 363.355 92.27C363.715 91.7 363.94 90.935 364.03 89.975C364.15 89.045 364.255 87.995 364.345 86.825C364.555 84.245 364.765 81.755 364.975 79.355C365.215 76.925 365.425 74.72 365.605 72.74C365.815 70.73 365.98 69.02 366.1 67.61C366.22 66.2 366.28 65.21 366.28 64.64C366.28 64.04 366.22 63.5 366.1 63.02C366.01 62.51 365.665 62.255 365.065 62.255C364.585 62.255 364.03 62.585 363.4 63.245C362.8 63.905 362.275 65.03 361.825 66.62L360.52 66.35C360.61 65.81 360.79 65.195 361.06 64.505C361.36 63.785 361.75 63.08 362.23 62.39C362.71 61.7 363.295 61.13 363.985 60.68C364.675 60.23 365.47 60.005 366.37 60.005C367.72 60.005 368.62 60.485 369.07 61.445C369.55 62.375 369.79 63.47 369.79 64.73C369.79 65.63 369.715 66.545 369.565 67.475C369.445 68.375 369.31 69.17 369.16 69.86H369.295C370.135 67.1 370.99 65.015 371.86 63.605C372.76 62.195 373.675 61.25 374.605 60.77C375.535 60.26 376.435 60.005 377.305 60.005C378.685 60.005 379.825 60.41 380.725 61.22C381.625 62 382.285 63.05 382.705 64.37C383.155 65.69 383.38 67.145 383.38 68.735C383.38 71.645 382.87 74.21 381.85 76.43C380.86 78.65 379.375 80.39 377.395 81.65C375.445 82.88 373.015 83.495 370.105 83.495C369.715 83.495 369.34 83.48 368.98 83.45C368.65 83.42 368.32 83.39 367.99 83.36C367.84 85.64 367.72 87.395 367.63 88.625C367.57 89.885 367.51 90.8 367.45 91.37C367.42 91.97 367.36 92.435 367.27 92.765C367.75 92.735 368.215 92.705 368.665 92.675C369.145 92.675 369.625 92.66 370.105 92.63V94.475H361.6ZM370.87 81.965C372.13 81.965 373.24 81.71 374.2 81.2C375.16 80.69 375.97 80.015 376.63 79.175C377.32 78.305 377.875 77.33 378.295 76.25C378.715 75.17 379.015 74.06 379.195 72.92C379.405 71.75 379.51 70.625 379.51 69.545C379.51 68.165 379.42 66.92 379.24 65.81C379.06 64.67 378.745 63.77 378.295 63.11C377.845 62.45 377.2 62.12 376.36 62.12C375.55 62.12 374.74 62.555 373.93 63.425C373.12 64.295 372.37 65.465 371.68 66.935C370.99 68.375 370.375 69.98 369.835 71.75C369.295 73.52 368.89 75.32 368.62 77.15C368.5 77.81 368.395 78.5 368.305 79.22C368.245 79.91 368.185 80.645 368.125 81.425C368.605 81.575 369.055 81.71 369.475 81.83C369.925 81.92 370.39 81.965 370.87 81.965ZM388.298 95.195C387.278 95.135 386.453 94.835 385.823 94.295C385.193 93.785 384.878 93.14 384.878 92.36C384.878 91.67 385.088 91.145 385.508 90.785C385.928 90.455 386.333 90.29 386.723 90.29C388.073 90.29 388.718 91.07 388.658 92.63C388.838 92.72 389.003 92.795 389.153 92.855C389.303 92.915 389.468 92.945 389.648 92.945C390.308 92.975 390.983 92.735 391.673 92.225C392.393 91.715 393.068 91.07 393.698 90.29C394.358 89.54 394.928 88.79 395.408 88.04C395.918 87.32 396.293 86.765 396.533 86.375C396.263 84.635 395.948 82.85 395.588 81.02C395.228 79.16 394.808 77.315 394.328 75.485C393.878 73.625 393.368 71.84 392.798 70.13C392.258 68.39 391.673 66.755 391.043 65.225C390.833 64.715 390.563 64.19 390.233 63.65C389.903 63.11 389.438 62.87 388.838 62.93C388.268 62.99 387.833 63.44 387.533 64.28C387.263 65.12 387.188 66.23 387.308 67.61L385.868 67.79C385.778 66.98 385.763 66.125 385.823 65.225C385.913 64.325 386.108 63.485 386.408 62.705C386.708 61.895 387.143 61.25 387.713 60.77C388.283 60.26 389.033 60.005 389.963 60.005C390.983 60.005 391.808 60.275 392.438 60.815C393.098 61.355 393.623 62.015 394.013 62.795C394.433 63.575 394.778 64.34 395.048 65.09C395.618 66.62 396.173 68.375 396.713 70.355C397.253 72.335 397.718 74.36 398.108 76.43C398.528 78.47 398.843 80.375 399.053 82.145H399.143C399.983 80.675 400.793 79.055 401.573 77.285C402.353 75.515 402.998 73.715 403.508 71.885C404.018 70.025 404.273 68.285 404.273 66.665C404.273 65.915 404.198 65.255 404.048 64.685C403.928 64.115 403.778 63.71 403.598 63.47C403.478 63.56 403.313 63.635 403.103 63.695C402.923 63.725 402.713 63.74 402.473 63.74C401.933 63.74 401.498 63.575 401.168 63.245C400.838 62.885 400.673 62.465 400.673 61.985C400.673 61.325 400.883 60.83 401.303 60.5C401.753 60.17 402.248 60.005 402.788 60.005C403.718 60.005 404.438 60.29 404.948 60.86C405.458 61.43 405.818 62.15 406.028 63.02C406.268 63.89 406.388 64.805 406.388 65.765C406.388 67.745 406.103 69.77 405.533 71.84C404.963 73.91 404.213 75.95 403.283 77.96C402.383 79.97 401.423 81.905 400.403 83.765C398.903 86.465 397.463 88.67 396.083 90.38C394.733 92.09 393.413 93.32 392.123 94.07C390.833 94.85 389.558 95.225 388.298 95.195ZM419.648 74.72C417.848 74.72 416.543 74.18 415.733 73.1C414.923 71.99 414.578 70.49 414.698 68.6C414.818 67.04 414.938 65.795 415.058 64.865C415.208 63.935 415.253 63.275 415.193 62.885C415.133 62.465 414.818 62.255 414.248 62.255C413.708 62.255 413.093 62.585 412.403 63.245C411.743 63.875 411.143 65 410.603 66.62L409.343 66.305C409.463 65.795 409.688 65.18 410.018 64.46C410.378 63.74 410.828 63.05 411.368 62.39C411.938 61.7 412.613 61.13 413.393 60.68C414.173 60.23 415.058 60.005 416.048 60.005C417.278 60.005 418.103 60.395 418.523 61.175C418.943 61.955 419.093 63.095 418.973 64.595C418.913 65.375 418.808 66.14 418.658 66.89C418.538 67.64 418.448 68.39 418.388 69.14C418.298 70.31 418.418 71.18 418.748 71.75C419.078 72.32 419.738 72.605 420.728 72.605C421.358 72.605 421.988 72.515 422.618 72.335C423.278 72.125 423.923 71.855 424.553 71.525C425.213 71.165 425.828 70.775 426.398 70.355L426.893 71.075C425.603 72.455 424.343 73.415 423.113 73.955C421.883 74.465 420.728 74.72 419.648 74.72ZM428.288 83.495C427.478 83.495 426.818 83.33 426.308 83C425.798 82.64 425.423 82.16 425.183 81.56C424.943 80.96 424.823 80.255 424.823 79.445C424.823 78.665 424.898 77.645 425.048 76.385C425.228 75.095 425.408 73.685 425.588 72.155C425.798 70.595 425.978 69.035 426.128 67.475C426.308 65.915 426.398 64.46 426.398 63.11C426.398 62.66 426.383 62.225 426.353 61.805C426.353 61.385 426.353 60.95 426.353 60.5H430.088C430.118 60.71 430.133 60.905 430.133 61.085C430.133 61.235 430.133 61.43 430.133 61.67C430.133 62.36 430.073 63.32 429.953 64.55C429.833 65.75 429.683 67.07 429.503 68.51C429.353 69.95 429.188 71.39 429.008 72.83C428.828 74.27 428.678 75.56 428.558 76.7C428.438 77.81 428.378 78.65 428.378 79.22C428.378 79.76 428.453 80.225 428.603 80.615C428.783 81.005 429.113 81.2 429.593 81.2C430.103 81.2 430.658 80.885 431.258 80.255C431.888 79.595 432.443 78.47 432.923 76.88L434.138 77.15C434.048 77.69 433.853 78.32 433.553 79.04C433.283 79.73 432.908 80.42 432.428 81.11C431.948 81.8 431.363 82.37 430.673 82.82C429.983 83.27 429.188 83.495 428.288 83.495ZM455.155 83.495C454.345 83.495 453.685 83.33 453.175 83C452.665 82.64 452.29 82.16 452.05 81.56C451.81 80.96 451.69 80.255 451.69 79.445C451.69 78.755 451.75 77.87 451.87 76.79C452.02 75.68 452.17 74.48 452.32 73.19L443.635 73.28C443.515 74.42 443.38 75.575 443.23 76.745C443.11 77.885 442.975 79.025 442.825 80.165C442.765 80.735 442.735 81.245 442.735 81.695C442.765 82.145 442.81 82.58 442.87 83H439.09C439.06 82.79 439.045 82.61 439.045 82.46C439.045 82.28 439.045 82.07 439.045 81.83C439.075 81.32 439.12 80.735 439.18 80.075C439.24 79.385 439.345 78.485 439.495 77.375C439.675 76.235 439.885 74.72 440.125 72.83C440.365 71.06 440.545 69.68 440.665 68.69C440.815 67.7 440.92 66.95 440.98 66.44C441.07 65.9 441.13 65.495 441.16 65.225C441.19 64.925 441.205 64.61 441.205 64.28C441.235 63.74 441.16 63.275 440.98 62.885C440.8 62.465 440.455 62.255 439.945 62.255C439.465 62.255 438.91 62.585 438.28 63.245C437.65 63.905 437.08 65.03 436.57 66.62L435.31 66.35C435.43 65.81 435.64 65.195 435.94 64.505C436.24 63.785 436.63 63.08 437.11 62.39C437.62 61.7 438.22 61.13 438.91 60.68C439.6 60.23 440.395 60.005 441.295 60.005C442.435 60.005 443.245 60.335 443.725 60.995C444.205 61.625 444.475 62.45 444.535 63.47C444.595 64.49 444.55 65.57 444.4 66.71C444.31 67.49 444.22 68.285 444.13 69.095C444.04 69.905 443.95 70.7 443.86 71.48H452.545C452.725 70.04 452.875 68.75 452.995 67.61C453.115 66.47 453.19 65.345 453.22 64.235C453.28 63.125 453.265 61.88 453.175 60.5H456.955C456.985 60.71 457 60.905 457 61.085C457 61.235 457 61.43 457 61.67C457 62.36 456.94 63.32 456.82 64.55C456.7 65.75 456.55 67.07 456.37 68.51C456.22 69.95 456.055 71.39 455.875 72.83C455.695 74.27 455.545 75.56 455.425 76.7C455.305 77.81 455.245 78.65 455.245 79.22C455.245 79.76 455.32 80.225 455.47 80.615C455.65 81.005 455.98 81.2 456.46 81.2C456.97 81.2 457.525 80.885 458.125 80.255C458.755 79.595 459.295 78.47 459.745 76.88L461.005 77.15C460.915 77.69 460.72 78.32 460.42 79.04C460.15 79.73 459.775 80.42 459.295 81.11C458.815 81.8 458.23 82.37 457.54 82.82C456.85 83.27 456.055 83.495 455.155 83.495ZM474.357 60.005C475.977 60.005 477.432 60.395 478.722 61.175C480.012 61.925 481.032 63.035 481.782 64.505C482.532 65.975 482.907 67.76 482.907 69.86C482.907 72.26 482.472 74.51 481.602 76.61C480.732 78.68 479.472 80.345 477.822 81.605C476.202 82.865 474.222 83.495 471.882 83.495C469.902 83.495 468.267 83.045 466.977 82.145C465.717 81.245 464.772 80.03 464.142 78.5C463.542 76.97 463.242 75.275 463.242 73.415C463.242 70.985 463.677 68.75 464.547 66.71C465.447 64.67 466.722 63.05 468.372 61.85C470.052 60.62 472.047 60.005 474.357 60.005ZM473.682 61.67C472.362 61.64 471.222 62.09 470.262 63.02C469.302 63.92 468.552 65.15 468.012 66.71C467.502 68.27 467.232 70.01 467.202 71.93C467.172 72.95 467.232 74.03 467.382 75.17C467.532 76.31 467.787 77.375 468.147 78.365C468.537 79.355 469.062 80.165 469.722 80.795C470.412 81.425 471.267 81.755 472.287 81.785C473.487 81.815 474.507 81.5 475.347 80.84C476.187 80.15 476.862 79.265 477.372 78.185C477.882 77.105 478.257 75.95 478.497 74.72C478.767 73.49 478.917 72.335 478.947 71.255C478.977 70.205 478.917 69.125 478.767 68.015C478.647 66.905 478.392 65.87 478.002 64.91C477.612 63.95 477.072 63.185 476.382 62.615C475.692 62.015 474.792 61.7 473.682 61.67ZM494.314 83.495C493.114 83.495 492.154 83.225 491.434 82.685C490.714 82.145 490.189 81.425 489.859 80.525C489.559 79.625 489.409 78.665 489.409 77.645C489.409 75.965 489.529 74.27 489.769 72.56C490.009 70.85 490.249 69.275 490.489 67.835C490.729 66.365 490.849 65.21 490.849 64.37C490.849 63.8 490.774 63.305 490.624 62.885C490.504 62.465 490.174 62.255 489.634 62.255C489.154 62.255 488.614 62.585 488.014 63.245C487.444 63.905 486.934 65.03 486.484 66.62L485.224 66.35C485.314 65.81 485.494 65.195 485.764 64.505C486.034 63.785 486.394 63.08 486.844 62.39C487.324 61.7 487.894 61.13 488.554 60.68C489.244 60.23 490.039 60.005 490.939 60.005C492.139 60.005 493.039 60.38 493.639 61.13C494.269 61.88 494.584 62.96 494.584 64.37C494.584 65.21 494.509 66.245 494.359 67.475C494.209 68.705 494.029 69.995 493.819 71.345C493.639 72.665 493.474 73.955 493.324 75.215C493.174 76.475 493.099 77.585 493.099 78.545C493.099 78.875 493.144 79.265 493.234 79.715C493.354 80.165 493.564 80.555 493.864 80.885C494.194 81.215 494.644 81.38 495.214 81.38C496.054 81.38 496.879 80.99 497.689 80.21C498.499 79.43 499.264 78.38 499.984 77.06C500.704 75.74 501.349 74.285 501.919 72.695C502.489 71.075 502.924 69.425 503.224 67.745C503.554 66.035 503.719 64.415 503.719 62.885C503.719 62.435 503.704 62.03 503.674 61.67C503.674 61.28 503.659 60.89 503.629 60.5H507.409C507.439 60.71 507.454 60.905 507.454 61.085C507.454 61.235 507.454 61.43 507.454 61.67C507.454 62.18 507.424 62.795 507.364 63.515C507.304 64.205 507.214 65.135 507.094 66.305C506.974 67.445 506.794 68.96 506.554 70.85C506.344 72.59 506.179 73.955 506.059 74.945C505.969 75.935 505.894 76.685 505.834 77.195C505.774 77.675 505.729 78.05 505.699 78.32C505.699 78.59 505.699 78.89 505.699 79.22C505.699 79.76 505.774 80.225 505.924 80.615C506.104 81.005 506.434 81.2 506.914 81.2C507.424 81.2 507.979 80.885 508.579 80.255C509.209 79.595 509.749 78.47 510.199 76.88L511.459 77.15C511.369 77.69 511.174 78.32 510.874 79.04C510.604 79.73 510.229 80.42 509.749 81.11C509.269 81.8 508.684 82.37 507.994 82.82C507.304 83.27 506.509 83.495 505.609 83.495C504.409 83.495 503.524 83.12 502.954 82.37C502.414 81.62 502.144 80.645 502.144 79.445C502.144 78.575 502.219 77.63 502.369 76.61C502.549 75.59 502.744 74.525 502.954 73.415H502.819C501.799 76.145 500.824 78.245 499.894 79.715C498.964 81.155 498.049 82.145 497.149 82.685C496.249 83.225 495.304 83.495 494.314 83.495ZM498.454 55.775C497.404 55.775 496.429 55.64 495.529 55.37C494.629 55.07 493.909 54.62 493.369 54.02C492.859 53.42 492.634 52.685 492.694 51.815C492.754 51.005 493.024 50.435 493.504 50.105C493.984 49.745 494.509 49.55 495.079 49.52C495.889 49.49 496.429 49.715 496.699 50.195C496.999 50.645 497.149 51.08 497.149 51.5C497.119 51.74 497.044 52.01 496.924 52.31C496.834 52.61 496.669 52.88 496.429 53.12C496.759 53.42 497.119 53.66 497.509 53.84C497.929 53.99 498.469 54.065 499.129 54.065C500.569 54.065 501.769 53.69 502.729 52.94C503.059 52.67 503.374 52.31 503.674 51.86C503.974 51.41 504.259 50.96 504.529 50.51L505.879 51.725C504.799 53.105 503.614 54.125 502.324 54.785C501.064 55.445 499.774 55.775 498.454 55.775ZM163.89 152.475V151.125C164.73 151.125 165.315 150.84 165.645 150.27C166.005 149.7 166.23 148.935 166.32 147.975C166.44 147.045 166.545 145.995 166.635 144.825C166.845 142.245 167.055 139.755 167.265 137.355C167.505 134.925 167.715 132.72 167.895 130.74C168.105 128.73 168.27 127.02 168.39 125.61C168.51 124.2 168.57 123.21 168.57 122.64C168.57 122.04 168.51 121.5 168.39 121.02C168.3 120.51 167.955 120.255 167.355 120.255C166.875 120.255 166.32 120.585 165.69 121.245C165.09 121.905 164.565 123.03 164.115 124.62L162.81 124.35C162.9 123.81 163.08 123.195 163.35 122.505C163.65 121.785 164.04 121.08 164.52 120.39C165 119.7 165.585 119.13 166.275 118.68C166.965 118.23 167.76 118.005 168.66 118.005C170.01 118.005 170.91 118.485 171.36 119.445C171.84 120.375 172.08 121.47 172.08 122.73C172.08 123.63 172.005 124.545 171.855 125.475C171.735 126.375 171.6 127.17 171.45 127.86H171.585C172.425 125.1 173.28 123.015 174.15 121.605C175.05 120.195 175.965 119.25 176.895 118.77C177.825 118.26 178.725 118.005 179.595 118.005C180.975 118.005 182.115 118.41 183.015 119.22C183.915 120 184.575 121.05 184.995 122.37C185.445 123.69 185.67 125.145 185.67 126.735C185.67 129.645 185.16 132.21 184.14 134.43C183.15 136.65 181.665 138.39 179.685 139.65C177.735 140.88 175.305 141.495 172.395 141.495C172.005 141.495 171.63 141.48 171.27 141.45C170.94 141.42 170.61 141.39 170.28 141.36C170.13 143.64 170.01 145.395 169.92 146.625C169.86 147.885 169.8 148.8 169.74 149.37C169.71 149.97 169.65 150.435 169.56 150.765C170.04 150.735 170.505 150.705 170.955 150.675C171.435 150.675 171.915 150.66 172.395 150.63V152.475H163.89ZM173.16 139.965C174.42 139.965 175.53 139.71 176.49 139.2C177.45 138.69 178.26 138.015 178.92 137.175C179.61 136.305 180.165 135.33 180.585 134.25C181.005 133.17 181.305 132.06 181.485 130.92C181.695 129.75 181.8 128.625 181.8 127.545C181.8 126.165 181.71 124.92 181.53 123.81C181.35 122.67 181.035 121.77 180.585 121.11C180.135 120.45 179.49 120.12 178.65 120.12C177.84 120.12 177.03 120.555 176.22 121.425C175.41 122.295 174.66 123.465 173.97 124.935C173.28 126.375 172.665 127.98 172.125 129.75C171.585 131.52 171.18 133.32 170.91 135.15C170.79 135.81 170.685 136.5 170.595 137.22C170.535 137.91 170.475 138.645 170.415 139.425C170.895 139.575 171.345 139.71 171.765 139.83C172.215 139.92 172.68 139.965 173.16 139.965ZM202.513 118.005C203.413 118.005 204.403 118.08 205.483 118.23C206.563 118.35 207.583 118.53 208.543 118.77C208.303 120.57 208.063 122.37 207.823 124.17C207.613 125.94 207.403 127.635 207.193 129.255C207.013 130.845 206.863 132.285 206.743 133.575C206.623 134.835 206.563 135.825 206.563 136.545C206.563 137.145 206.608 137.745 206.698 138.345C206.788 138.945 207.163 139.245 207.823 139.245C208.333 139.245 208.888 138.915 209.488 138.255C210.118 137.595 210.658 136.47 211.108 134.88L212.368 135.15C212.278 135.69 212.083 136.32 211.783 137.04C211.513 137.73 211.138 138.42 210.658 139.11C210.178 139.8 209.593 140.37 208.903 140.82C208.213 141.27 207.418 141.495 206.518 141.495C205.318 141.495 204.463 141.12 203.953 140.37C203.443 139.62 203.188 138.645 203.188 137.445C203.188 136.575 203.263 135.63 203.413 134.61C203.593 133.59 203.788 132.525 203.998 131.415H203.863C203.143 133.635 202.393 135.42 201.613 136.77C200.863 138.09 200.098 139.095 199.318 139.785C198.568 140.475 197.833 140.925 197.113 141.135C196.393 141.375 195.718 141.495 195.088 141.495C193.468 141.495 192.103 140.895 190.993 139.695C189.913 138.495 189.373 136.485 189.373 133.665C189.373 131.565 189.643 129.57 190.183 127.68C190.723 125.79 191.533 124.125 192.613 122.685C193.723 121.215 195.103 120.075 196.753 119.265C198.403 118.425 200.323 118.005 202.513 118.005ZM201.118 119.625C199.768 119.625 198.583 120 197.563 120.75C196.573 121.5 195.748 122.52 195.088 123.81C194.428 125.07 193.933 126.495 193.603 128.085C193.303 129.645 193.153 131.25 193.153 132.9C193.153 134.82 193.363 136.41 193.783 137.67C194.203 138.9 194.968 139.515 196.078 139.515C196.888 139.515 197.698 139.11 198.508 138.3C199.348 137.49 200.128 136.41 200.848 135.06C201.568 133.68 202.213 132.15 202.783 130.47C203.353 128.76 203.803 127.02 204.133 125.25C204.463 123.48 204.628 121.785 204.628 120.165C204.178 119.985 203.653 119.85 203.053 119.76C202.453 119.67 201.808 119.625 201.118 119.625ZM223.341 141.45C221.481 141.45 219.816 140.955 218.346 139.965C216.876 138.975 215.751 137.46 214.971 135.42C214.221 133.35 213.951 130.725 214.161 127.545C214.341 124.905 214.761 122.43 215.421 120.12C216.111 117.81 217.101 115.815 218.391 114.135C219.681 112.425 221.316 111.21 223.296 110.49C224.166 110.16 225.036 109.935 225.906 109.815C226.806 109.695 227.661 109.59 228.471 109.5C229.311 109.41 230.031 109.29 230.631 109.14C231.441 108.93 232.191 108.705 232.881 108.465C233.601 108.195 234.156 107.655 234.546 106.845L235.851 107.295C235.551 108.255 235.146 109.11 234.636 109.86C234.126 110.58 233.526 111.195 232.836 111.705C232.146 112.185 231.351 112.575 230.451 112.875C229.701 113.115 228.921 113.31 228.111 113.46C227.331 113.58 226.551 113.685 225.771 113.775C225.021 113.865 224.331 114 223.701 114.18C221.151 114.93 219.291 116.22 218.121 118.05C216.981 119.88 216.201 122.25 215.781 125.16H216.096C216.906 123.39 218.046 121.98 219.516 120.93C220.986 119.88 222.861 119.355 225.141 119.355C226.641 119.355 228.066 119.76 229.416 120.57C230.766 121.35 231.831 122.52 232.611 124.08C233.421 125.61 233.766 127.5 233.646 129.75C233.526 132.09 232.971 134.145 231.981 135.915C230.991 137.655 229.731 139.02 228.201 140.01C226.701 140.97 225.081 141.45 223.341 141.45ZM223.161 139.74C224.571 139.74 225.741 139.32 226.671 138.48C227.601 137.61 228.306 136.44 228.786 134.97C229.296 133.47 229.596 131.79 229.686 129.93C229.776 128.43 229.641 127.005 229.281 125.655C228.951 124.275 228.381 123.15 227.571 122.28C226.791 121.41 225.756 120.975 224.466 120.975C223.116 120.975 221.976 121.38 221.046 122.19C220.116 123 219.396 124.065 218.886 125.385C218.406 126.675 218.121 128.07 218.031 129.57C217.941 131.58 218.076 133.35 218.436 134.88C218.826 136.41 219.411 137.61 220.191 138.48C221.001 139.32 221.991 139.74 223.161 139.74ZM248.698 118.005C250.318 118.005 251.773 118.395 253.063 119.175C254.353 119.925 255.373 121.035 256.123 122.505C256.873 123.975 257.248 125.76 257.248 127.86C257.248 130.26 256.813 132.51 255.943 134.61C255.073 136.68 253.813 138.345 252.163 139.605C250.543 140.865 248.563 141.495 246.223 141.495C244.243 141.495 242.608 141.045 241.318 140.145C240.058 139.245 239.113 138.03 238.483 136.5C237.883 134.97 237.583 133.275 237.583 131.415C237.583 128.985 238.018 126.75 238.888 124.71C239.788 122.67 241.063 121.05 242.713 119.85C244.393 118.62 246.388 118.005 248.698 118.005ZM248.023 119.67C246.703 119.64 245.563 120.09 244.603 121.02C243.643 121.92 242.893 123.15 242.353 124.71C241.843 126.27 241.573 128.01 241.543 129.93C241.513 130.95 241.573 132.03 241.723 133.17C241.873 134.31 242.128 135.375 242.488 136.365C242.878 137.355 243.403 138.165 244.063 138.795C244.753 139.425 245.608 139.755 246.628 139.785C247.828 139.815 248.848 139.5 249.688 138.84C250.528 138.15 251.203 137.265 251.713 136.185C252.223 135.105 252.598 133.95 252.838 132.72C253.108 131.49 253.258 130.335 253.288 129.255C253.318 128.205 253.258 127.125 253.108 126.015C252.988 124.905 252.733 123.87 252.343 122.91C251.953 121.95 251.413 121.185 250.723 120.615C250.033 120.015 249.133 119.7 248.023 119.67ZM292.28 141.495C290.87 141.495 289.91 141.12 289.4 140.37C288.92 139.62 288.68 138.555 288.68 137.175C288.68 136.335 288.755 135.345 288.905 134.205C289.085 133.065 289.28 131.85 289.49 130.56C289.7 129.27 289.88 127.965 290.03 126.645C290.21 125.325 290.3 124.065 290.3 122.865C290.3 122.505 290.24 122.115 290.12 121.695C290 121.275 289.79 120.915 289.49 120.615C289.19 120.285 288.74 120.12 288.14 120.12C287.3 120.12 286.475 120.51 285.665 121.29C284.855 122.07 284.105 123.12 283.415 124.44C282.725 125.76 282.11 127.23 281.57 128.85C281.06 130.44 280.655 132.09 280.355 133.8C280.055 135.48 279.905 137.085 279.905 138.615C279.905 139.065 279.905 139.485 279.905 139.875C279.935 140.235 279.965 140.61 279.995 141H276.215C276.185 140.79 276.17 140.61 276.17 140.46C276.17 140.28 276.17 140.07 276.17 139.83C276.17 138.69 276.245 137.34 276.395 135.78C276.575 134.22 276.77 132.615 276.98 130.965C277.22 129.315 277.415 127.755 277.565 126.285C277.745 124.815 277.82 123.615 277.79 122.685C277.76 122.175 277.61 121.62 277.34 121.02C277.07 120.42 276.5 120.12 275.63 120.12C274.79 120.12 273.965 120.51 273.155 121.29C272.375 122.07 271.64 123.12 270.95 124.44C270.26 125.76 269.645 127.23 269.105 128.85C268.565 130.44 268.145 132.09 267.845 133.8C267.545 135.48 267.395 137.085 267.395 138.615C267.395 139.065 267.395 139.485 267.395 139.875C267.425 140.235 267.455 140.61 267.485 141H263.705C263.675 140.79 263.66 140.61 263.66 140.46C263.66 140.28 263.66 140.07 263.66 139.83C263.66 139.32 263.675 138.735 263.705 138.075C263.765 137.385 263.855 136.485 263.975 135.375C264.125 134.235 264.305 132.72 264.515 130.83C264.725 129.06 264.89 127.68 265.01 126.69C265.13 125.7 265.22 124.95 265.28 124.44C265.34 123.9 265.37 123.495 265.37 123.225C265.4 122.925 265.415 122.61 265.415 122.28C265.415 121.74 265.34 121.275 265.19 120.885C265.04 120.465 264.71 120.255 264.2 120.255C263.72 120.255 263.165 120.585 262.535 121.245C261.905 121.905 261.365 123.03 260.915 124.62L259.655 124.35C259.745 123.81 259.925 123.195 260.195 122.505C260.495 121.785 260.885 121.08 261.365 120.39C261.845 119.7 262.43 119.13 263.12 118.68C263.81 118.23 264.605 118.005 265.505 118.005C266.495 118.005 267.23 118.26 267.71 118.77C268.19 119.25 268.505 119.895 268.655 120.705C268.835 121.485 268.895 122.34 268.835 123.27C268.805 124.11 268.715 124.965 268.565 125.835C268.415 126.675 268.28 127.41 268.16 128.04H268.295C269.255 125.31 270.2 123.225 271.13 121.785C272.09 120.345 273.02 119.355 273.92 118.815C274.85 118.275 275.72 118.005 276.53 118.005C277.73 118.005 278.675 118.29 279.365 118.86C280.085 119.4 280.595 120.06 280.895 120.84C281.195 121.62 281.345 122.385 281.345 123.135C281.345 123.975 281.285 124.695 281.165 125.295C281.045 125.895 280.85 126.765 280.58 127.905H280.715C281.705 125.175 282.68 123.105 283.64 121.695C284.63 120.255 285.59 119.28 286.52 118.77C287.45 118.26 288.32 118.005 289.13 118.005C290.33 118.005 291.275 118.275 291.965 118.815C292.655 119.355 293.135 120.075 293.405 120.975C293.705 121.845 293.855 122.805 293.855 123.855C293.855 125.505 293.735 127.2 293.495 128.94C293.255 130.65 293 132.24 292.73 133.71C292.49 135.15 292.37 136.305 292.37 137.175C292.37 137.715 292.43 138.195 292.55 138.615C292.7 139.035 293.045 139.245 293.585 139.245C294.095 139.245 294.665 138.93 295.295 138.3C295.925 137.64 296.465 136.5 296.915 134.88L298.175 135.195C298.085 135.705 297.89 136.32 297.59 137.04C297.29 137.76 296.9 138.465 296.42 139.155C295.94 139.815 295.355 140.37 294.665 140.82C293.975 141.27 293.18 141.495 292.28 141.495ZM324.589 141.495C323.779 141.495 323.119 141.33 322.609 141C322.099 140.64 321.724 140.16 321.484 139.56C321.244 138.96 321.124 138.255 321.124 137.445C321.124 136.665 321.199 135.645 321.349 134.385C321.529 133.095 321.709 131.685 321.889 130.155C322.099 128.595 322.279 127.035 322.429 125.475C322.609 123.915 322.699 122.46 322.699 121.11C322.699 120.66 322.684 120.225 322.654 119.805C322.654 119.385 322.639 118.95 322.609 118.5H326.389C326.419 118.71 326.434 118.905 326.434 119.085C326.434 119.235 326.434 119.43 326.434 119.67C326.434 120.36 326.374 121.32 326.254 122.55C326.134 123.75 325.984 125.07 325.804 126.51C325.654 127.95 325.489 129.39 325.309 130.83C325.129 132.27 324.979 133.56 324.859 134.7C324.739 135.81 324.679 136.65 324.679 137.22C324.679 137.76 324.754 138.225 324.904 138.615C325.084 139.005 325.414 139.2 325.894 139.2C326.374 139.2 326.929 138.885 327.559 138.255C328.189 137.595 328.729 136.47 329.179 134.88L330.439 135.15C330.349 135.69 330.154 136.32 329.854 137.04C329.584 137.73 329.209 138.42 328.729 139.11C328.249 139.8 327.664 140.37 326.974 140.82C326.284 141.27 325.489 141.495 324.589 141.495ZM309.334 141.495C307.804 141.495 306.574 141.195 305.644 140.595C304.714 139.965 304.069 139.125 303.709 138.075C303.349 136.995 303.259 135.78 303.439 134.43C303.829 132 304.144 130.035 304.384 128.535C304.624 127.005 304.804 125.82 304.924 124.98C305.044 124.14 305.119 123.525 305.149 123.135C305.209 122.745 305.239 122.46 305.239 122.28C305.269 121.74 305.209 121.275 305.059 120.885C304.939 120.465 304.624 120.255 304.114 120.255C303.634 120.255 303.064 120.585 302.404 121.245C301.744 121.905 301.159 123.03 300.649 124.62L299.389 124.35C299.509 123.81 299.719 123.195 300.019 122.505C300.349 121.785 300.754 121.08 301.234 120.39C301.744 119.7 302.344 119.13 303.034 118.68C303.754 118.23 304.564 118.005 305.464 118.005C306.604 118.005 307.414 118.335 307.894 118.995C308.374 119.625 308.629 120.45 308.659 121.47C308.719 122.49 308.659 123.57 308.479 124.71L306.859 134.835C306.649 136.425 306.919 137.655 307.669 138.525C308.419 139.365 309.394 139.785 310.594 139.785C312.034 139.785 313.174 139.26 314.014 138.21C314.884 137.13 315.334 135.6 315.364 133.62C315.424 131.97 315.229 130.635 314.779 129.615C314.329 128.595 313.414 128.085 312.034 128.085C311.224 128.085 310.414 128.28 309.604 128.67C308.794 129.03 307.969 129.585 307.129 130.335L307.174 128.265C308.134 127.695 309.034 127.245 309.874 126.915C310.744 126.585 311.644 126.42 312.574 126.42C313.864 126.42 314.989 126.675 315.949 127.185C316.939 127.665 317.719 128.37 318.289 129.3C318.859 130.23 319.129 131.37 319.099 132.72C319.069 134.34 318.634 135.825 317.794 137.175C316.954 138.495 315.799 139.545 314.329 140.325C312.889 141.105 311.224 141.495 309.334 141.495Z" fill="#333333"/>
</g>
<defs>
<filter id="filter0_d_14_163" x="0" y="0" width="575.1" height="216.1" filterUnits="userSpaceOnUse" color-interpolation-filters="sRGB">
<feFlood flood-opacity="0" result="BackgroundImageFix"/>
<feColorMatrix in="SourceAlpha" type="matrix" values="0 0 0 0 0 0 0 0 0 0 0 0 0 0 0 0 0 0 127 0" result="hardAlpha"/>
<feOffset dx="10" dy="14"/>
<feGaussianBlur stdDeviation="3.55"/>
<feComposite in2="hardAlpha" operator="out"/>
<feColorMatrix type="matrix" values="0 0 0 0 0 0 0 0 0 0 0 0 0 0 0 0 0 0 0.25 0"/>
<feBlend mode="normal" in2="BackgroundImageFix" result="effect1_dropShadow_14_163"/>
<feBlend mode="normal" in="SourceGraphic" in2="effect1_dropShadow_14_163" result="shape"/>
</filter>
</defs>
</svg>
